<svg width="183" height="158" viewBox="0 0 183 136" fill="none" xmlns="http://www.w3.org/2000/svg">
<path opacity="0.1" d="M105.952 18.9314C94.3 18.6308 83.2022 15.8365 72.6049 12.7794C62.0077 9.72228 51.5112 6.32848 40.138 4.7081C32.8228 3.66566 24.4563 3.51803 18.5635 6.43291C12.8904 9.23436 11.0575 14.0703 10.0727 18.5713C9.33094 21.9507 8.89524 25.5066 10.9261 28.6699C12.3376 30.8664 14.8402 32.7119 16.5722 34.8165C22.5982 42.1371 18.3384 51.1626 11.8101 58.3102C8.7494 61.6626 5.19357 64.8602 2.82962 68.4304C0.465668 72.0006 -0.627188 76.0876 1.4415 79.7299C3.49038 83.3307 8.37492 86.0475 13.6664 87.9542C24.4131 91.8269 37.0718 92.9342 49.4245 93.5625C76.7603 94.9524 104.24 94.3493 131.648 93.7425C141.792 93.5193 151.978 93.2942 161.956 92.1222C167.498 91.4758 173.218 90.4478 177.242 87.9686C182.348 84.8214 183.614 79.4922 180.191 75.5457C174.451 68.9255 158.586 67.2799 154.569 60.1755C152.362 56.265 154.629 51.9097 157.839 48.2819C164.723 40.5023 176.262 33.6769 176.869 24.7828C177.287 18.6758 171.74 12.5579 163.163 9.66826C154.173 6.63996 141.705 7.01984 135.076 12.034C128.243 17.203 116.242 19.1907 105.952 18.9314Z" fill="#D79922"/>
<g opacity="0.8">
<path opacity="0.8" d="M169.367 32.1789C169.367 32.1789 167.336 31.3543 160.876 34.3178C154.416 37.2813 153.61 36.905 151.937 36.4513C150.264 35.9976 149.332 35.8914 147.538 33.4176C147.538 33.4176 146.278 26.5634 145.05 25.4958C143.822 24.4281 138.626 26.1025 138.626 26.1025C138.626 26.1025 132.393 27.5356 131.198 19.2015C131.198 19.2015 132.04 12.9216 130.892 10.9934C130.892 10.9934 133.211 11.9926 137.035 10.3794C140.859 8.76625 143.92 12.1186 143.92 12.1186C143.92 12.1186 144.885 14.6158 144.784 16.103C144.683 17.5901 145.293 18.1518 147.124 17.4317C147.124 17.4317 148.025 16.157 146.752 14.0505C145.479 11.944 144.577 10.374 144.931 8.73744C145.286 7.10086 146.303 4.83413 149.575 3.69626C152.846 2.5584 157.291 2.34595 159.425 1.46734C161.558 0.588738 162.073 0 162.073 0C162.073 0 160.761 1.31611 163.854 6.89021C166.947 12.4643 164.976 14.8859 164.976 14.8859C164.976 14.8859 163.33 18.8072 156.067 18.4867C156.067 18.4867 149.069 18.7424 152.884 21.7095C152.884 21.7095 155.327 21.2126 158.982 20.0513C162.637 18.89 165.271 23.6827 165.926 27.0171C166.582 30.3515 169.367 32.1789 169.367 32.1789Z" fill="#D79922"/>
<path opacity="0.8" d="M159.961 4.22015L159.999 4.20935C160.28 5.2734 157.153 9.5476 154.479 12.9468L154.449 12.9234C158.219 8.12887 160.185 5.03754 159.961 4.22015Z" fill="#444053"/>
<path opacity="0.8" d="M154.503 12.8532L154.519 12.8964C152.383 15.6115 149.697 18.8522 147.547 21.2522C147.342 21.4808 147.139 21.7203 146.944 21.9723L146.881 21.9237C147.079 21.6771 147.283 21.4358 147.488 21.2036C149.638 18.8 152.369 15.5664 154.503 12.8532Z" fill="#444053"/>
<path opacity="0.8" d="M146.934 21.8517L146.977 21.9237C143.064 26.8082 142.805 34.3916 142.796 34.4582L141.972 33.5148C141.981 33.4392 142.994 26.7686 146.934 21.8517Z" fill="#444053"/>
<path opacity="0.8" d="M164.832 29.5305C164.832 29.5305 160.219 27.1323 156.623 27.9929C153.028 28.8535 144.935 24.9502 144.935 24.9502C144.935 24.9502 141.498 23.5549 140.807 21.9633C140.807 21.9633 138.45 19.4697 138.315 18.1824C138.18 16.8951 135.879 13.6471 134.388 13.5301" stroke="#444053" stroke-miterlimit="10"/>
<path opacity="0.8" d="M164.164 31.8386C164.164 31.8386 161.841 30.2741 162.111 28.4484" stroke="#444053" stroke-miterlimit="10"/>
<path opacity="0.8" d="M160.601 33.8605C160.601 33.8605 157.277 32.6542 156.944 27.9191" stroke="#444053" stroke-miterlimit="10"/>
<path opacity="0.8" d="M155.239 35.0848C155.239 35.0848 152.063 32.4508 153.118 27.8471" stroke="#444053" stroke-miterlimit="10"/>
<path opacity="0.8" d="M148.795 33.7975C148.795 33.7975 146.681 29.363 148.563 26.4788" stroke="#444053" stroke-miterlimit="10"/>
<path opacity="0.8" d="M164.886 26.6066C164.886 26.6066 162.482 27.37 162.999 28.6339" stroke="#444053" stroke-miterlimit="10"/>
<path opacity="0.8" d="M161.985 22.246C161.985 22.246 158.77 23.265 158.694 27.8147" stroke="#444053" stroke-miterlimit="10"/>
<path opacity="0.8" d="M157.502 21.1964C157.502 21.1964 154.576 24.808 154.783 28.0902" stroke="#444053" stroke-miterlimit="10"/>
<path opacity="0.8" d="M152.378 22.6133C152.378 22.6133 149.47 25.3913 149.841 26.9343" stroke="#444053" stroke-miterlimit="10"/>
<path opacity="0.8" d="M150.624 21.6321C150.624 21.6321 147.899 22.12 147.519 21.2252" stroke="#444053" stroke-miterlimit="10"/>
<path opacity="0.8" d="M147.083 18.3409C147.083 18.3409 148.46 20.1647 148.815 19.756" stroke="#444053" stroke-miterlimit="10"/>
<path opacity="0.8" d="M160.734 17.1868C160.734 17.1868 153.863 17.6855 152.31 15.615" stroke="#444053" stroke-miterlimit="10"/>
<path opacity="0.8" d="M145.637 9.15152C145.637 9.15152 148.862 16.0705 151.202 16.9527" stroke="#444053" stroke-miterlimit="10"/>
<path opacity="0.8" d="M149.022 5.85495C149.022 5.85495 151.003 12.2194 153.455 14.2071" stroke="#444053" stroke-miterlimit="10"/>
<path opacity="0.8" d="M163.625 11.935C163.625 11.935 158.404 14.1765 155.264 11.908" stroke="#444053" stroke-width="0.75" stroke-miterlimit="10"/>
<path opacity="0.8" d="M153.674 4.49744C153.674 4.49744 154.868 9.17853 156.476 10.3074" stroke="#444053" stroke-width="0.75" stroke-miterlimit="10"/>
<path opacity="0.8" d="M162.837 6.68854C162.837 6.68854 159.9 7.7994 158.804 6.9478" stroke="#444053" stroke-width="0.75" stroke-miterlimit="10"/>
<path opacity="0.8" d="M144.568 19.8694C144.568 19.8694 144.568 23.9474 143.457 24.2373" stroke="#444053" stroke-miterlimit="10"/>
<path opacity="0.8" d="M135.49 25.1537C135.49 25.1537 139.901 25.5318 141.934 23.256" stroke="#444053" stroke-miterlimit="10"/>
<path opacity="0.8" d="M143.43 15.0515C143.43 15.0515 142.364 19.1925 139.42 20.3015" stroke="#444053" stroke-miterlimit="10"/>
<path opacity="0.8" d="M132.845 20.7966C132.845 20.7966 135.967 21.8769 138.652 19.1186" stroke="#444053" stroke-miterlimit="10"/>
<path opacity="0.8" d="M139.961 11.4956C139.961 11.4956 139.665 15.0083 137.755 16.652" stroke="#444053" stroke-miterlimit="10"/>
<path opacity="0.8" d="M132.964 15.444C132.964 15.444 135.555 15.4602 136.162 14.6176" stroke="#444053" stroke-miterlimit="10"/>
</g>
<path opacity="0.1" d="M47.6763 135.093C69.3531 135.093 86.9255 133.843 86.9255 132.302C86.9255 130.761 69.3531 129.512 47.6763 129.512C25.9996 129.512 8.42714 130.761 8.42714 132.302C8.42714 133.843 25.9996 135.093 47.6763 135.093Z" fill="#D79922"/>
<path d="M70.4138 117.108C70.954 116.138 71.6003 115.223 72.1224 114.24C72.5996 113.34 72.9722 112.386 73.4025 111.46C74.1389 109.876 75.0463 108.378 75.8727 106.837C76.4128 105.827 76.935 104.727 76.8306 103.585C76.7315 102.505 76.0978 101.569 75.8529 100.525C74.8555 96.2379 72.4555 92.3022 70.9918 88.1558C70.6173 87.1044 70.2536 86.0457 69.7855 85.0303C68.8853 83.0768 67.625 81.3214 66.3647 79.5804C65.9105 78.9152 65.4049 78.2868 64.8523 77.7008C64.4004 77.2489 63.8927 76.851 63.4822 76.3613C62.636 75.353 62.2399 73.9019 61.1813 73.1205C61.1633 73.1673 61.1435 73.2123 61.1237 73.2591C60.3657 71.3237 57.8235 70.0472 56.3489 68.443C55.4905 67.4633 54.7007 66.4256 53.985 65.3373L50.7748 60.6976C50.2221 59.8982 49.6586 59.0772 49.4353 58.1248C49.1617 56.9761 49.4155 55.7518 49.1455 54.6032C48.9728 53.9117 48.6362 53.2719 48.1642 52.7379C48.1948 52.7289 48.2273 52.7163 48.2597 52.7091C48.8718 52.5453 49.52 52.5165 50.1267 52.3706C51.45 52.0556 52.6005 51.2094 53.9184 50.8709C54.5917 50.6908 55.3101 50.6548 55.9205 50.3308C56.2173 50.1531 56.4514 49.8874 56.5902 49.5705C56.7289 49.2536 56.7654 48.9014 56.6946 48.5627C56.2679 46.3032 57.4598 44.0131 57.2582 41.7211C57.2042 41.0874 57.0421 40.4699 56.9377 39.8415C56.6946 38.3832 56.7396 36.8888 56.8261 35.4089C57.237 34.7419 57.7299 34.1292 58.2934 33.585C59.1036 32.8037 60.0704 32.1447 60.634 31.1671C61.1255 30.3011 61.2443 29.255 61.1201 28.2648C61.0318 27.5446 60.787 26.7867 60.2199 26.3492C59.6527 25.9117 58.8389 25.8792 58.153 26.1079C58.0576 26.1385 57.9639 26.1763 57.8721 26.2159C57.5854 26.0724 57.2725 25.9888 56.9524 25.9703C56.6323 25.9517 56.3119 25.9985 56.0105 26.1079C55.3263 26.3348 54.7394 26.7867 54.1884 27.2566C53.8619 27.5126 53.5755 27.816 53.3386 28.1568C52.9912 28.6969 52.8903 29.3631 52.7589 29.9986C52.4794 31.2255 52.0721 32.4197 51.5436 33.5616C51.4464 33.7633 51.1835 34.1252 50.9711 34.4709L50.5858 34.3916C50.4184 35.9958 49.0752 37.1733 48.2579 38.5596C47.86 39.233 47.5809 39.9693 47.2226 40.6661C46.8138 41.4246 46.3574 42.1564 45.8561 42.8572C45.37 43.5774 44.8833 44.291 44.396 44.9979C43.7852 45.9264 43.1241 46.8208 42.4155 47.6769C41.7547 47.6229 41.094 47.5743 40.435 47.5635C39.329 47.5477 38.2243 47.646 37.1385 47.857C37.0752 47.4751 37.0361 47.0897 37.0214 46.7029C37.0214 46.6795 37.0214 46.6561 37.0214 46.6327C37.0214 46.5391 37.0322 46.4274 37.0448 46.3068C37.9806 45.6802 38.7422 44.8265 39.2584 43.8256C39.7747 42.8247 40.0288 41.7093 39.997 40.5835C39.9652 39.4578 39.6484 38.3585 39.0764 37.3884C38.5044 36.4182 37.6958 35.609 36.7262 35.0362C36.7619 34.8338 36.7848 34.6293 36.7946 34.424C36.7946 34.3034 36.7946 34.181 36.7946 34.064C36.7946 34.0027 36.7946 33.9415 36.782 33.8839C36.7708 33.7625 36.7504 33.6421 36.7208 33.5238C36.7064 33.4662 36.6902 33.4086 36.6703 33.3438C36.632 33.2308 36.582 33.1222 36.5209 33.0197C36.5171 33.0134 36.5129 33.0074 36.5083 33.0017C36.4849 32.9639 36.4615 32.9261 36.4345 32.8901C36.4075 32.8541 36.4111 32.8613 36.4003 32.8469C36.3813 32.8205 36.3609 32.7953 36.3391 32.7713L36.2941 32.7244C36.2743 32.7028 36.2545 32.6812 36.2328 32.6614L36.1824 32.6164L36.1194 32.5606L36.0618 32.5174L35.997 32.4688L35.934 32.4274L35.8692 32.386C35.8476 32.3716 35.8242 32.359 35.8007 32.3464L35.7341 32.3085L35.6621 32.2725L35.5955 32.2401L35.5163 32.2059L35.4515 32.1771L35.365 32.1447L35.3038 32.1213L35.2102 32.0889L35.1544 32.0709L35.0518 32.0385L35.0032 32.0241L34.8915 31.9935L34.8483 31.9809L34.7313 31.9521L34.6971 31.9431L34.5675 31.9143H34.5459L34.355 31.8728C33.5664 31.7108 32.773 31.571 31.9749 31.4533C31.3213 31.3561 30.6515 31.2733 30.007 31.4191C29.1176 31.6172 28.3758 32.2185 27.544 32.5912C26.561 33.0341 25.4699 33.1511 24.4221 33.3942C23.3742 33.6373 22.2958 34.0532 21.6386 34.912C21.1381 35.5673 20.9383 36.4009 20.7888 37.2129C19.5429 43.9897 20.8861 50.9411 21.1399 57.8295C21.2389 60.5103 21.1183 63.3766 19.5988 65.5713L24.0242 65.4543C24.2366 65.4543 24.4509 65.4417 24.6669 65.4291C24.883 65.4165 25.099 65.4003 25.3115 65.3751C25.8727 65.3225 26.418 65.1591 26.9157 64.8944C27.1461 64.7631 27.3565 64.5994 27.5404 64.4083C28.1418 63.7889 28.4622 62.9229 28.7557 62.0947C28.8547 61.8157 28.9537 61.533 29.042 61.2485C29.078 61.1297 29.1122 61.0109 29.1428 60.8884L29.1572 60.8308L29.2076 60.8542C29.3876 61.1927 29.5911 61.524 29.8071 61.8445C30.5795 62.9823 31.559 63.9546 32.5312 64.9214C34.463 66.8388 36.4381 68.7905 38.8597 70.022C39.6771 70.4343 40.5611 70.7817 41.184 71.4623C41.4901 71.7918 41.7547 72.2149 42.1886 72.3283C42.4587 72.3985 42.7558 72.3283 43.0132 72.4435C43.3913 72.602 43.53 73.0575 43.7046 73.432C43.8792 73.8065 44.2735 74.1881 44.648 74.0171C44.5778 74.3648 44.6068 74.7252 44.7316 75.0572C44.8564 75.3893 45.072 75.6796 45.3538 75.8949C45.5352 75.9956 45.6915 76.136 45.8111 76.3054C45.8687 76.46 45.9004 76.623 45.9047 76.788C45.9817 77.2478 46.2244 77.6635 46.5871 77.9564C46.236 78.538 46.5169 79.3716 46.5259 80.0971C46.5259 80.7057 46.326 81.2926 46.1892 81.8849C45.7913 83.6223 46.0091 85.4408 46.3332 87.1926C46.5133 88.1594 46.7419 89.1604 47.3721 89.9112C47.5773 90.1543 47.8222 90.3649 48.0382 90.6008C48.4506 91.0655 48.7933 91.5877 49.0554 92.1509C49.6019 93.2663 49.9741 94.4588 50.1591 95.687C50.2461 96.3032 50.422 96.9036 50.6812 97.4694C51.0755 98.33 50.7154 99.3886 51.0683 100.267C51.2286 100.662 51.5238 100.998 51.6192 101.411C51.7543 102.01 51.4392 102.61 51.3546 103.22C51.1493 104.649 52.181 105.976 52.2746 107.417C52.2899 107.501 52.2719 107.588 52.2242 107.66C52.154 107.739 52.0333 107.737 51.9379 107.782C51.7579 107.869 51.7093 108.112 51.6517 108.313C51.594 108.515 51.432 108.744 51.2322 108.682C48.2741 110.265 45.2115 111.727 42.2535 113.31L40.9031 114.03L33.6816 117.888C33.594 117.932 33.5203 117.999 33.469 118.082C33.4178 118.166 33.391 118.262 33.3918 118.36C33.3918 118.446 33.4026 118.54 33.4098 118.621C32.9039 118.747 32.4178 118.898 32.0721 118.961C31.9298 118.988 31.7876 119.015 31.6472 119.046C31.6813 118.991 31.7034 118.93 31.712 118.866C31.7126 118.777 31.6804 118.691 31.6216 118.625C31.5628 118.558 31.4815 118.516 31.3933 118.506C31.2169 118.488 31.0389 118.511 30.873 118.574C30.4602 118.687 30.0386 118.764 29.6127 118.806C29.1068 118.855 28.5919 118.853 28.1021 118.986C27.6124 119.119 27.1299 119.417 26.9319 119.886C26.8328 120.158 26.7887 120.447 26.8022 120.736C26.7913 121.849 26.9232 122.959 27.1947 124.038C27.199 124.081 27.2131 124.122 27.2359 124.159C27.2587 124.195 27.2896 124.226 27.3262 124.249C27.3892 124.274 27.4648 124.249 27.5278 124.278C27.5833 124.311 27.6248 124.364 27.6448 124.425C27.9473 125.113 28.0175 125.88 28.0985 126.629C28.2186 127.739 28.3704 128.847 28.5541 129.951C28.6621 130.595 28.7953 131.269 29.2148 131.766C29.6757 132.306 30.4049 132.545 31.1088 132.641C32.5942 132.84 34.0939 132.54 35.5595 132.232C35.8332 132.174 36.1266 132.104 36.3103 131.892C36.4445 131.722 36.509 131.508 36.4903 131.292C36.4561 130.552 35.7827 130.032 35.1706 129.616L34.3352 129.038C34.2639 129 34.2075 128.939 34.1748 128.866C34.1422 128.792 34.1352 128.709 34.1552 128.631L34.2092 127.538H34.0471C34.2272 126.768 34.517 126.028 35.0842 125.498C35.4749 125.138 35.9844 124.886 36.3931 124.559C36.9174 124.962 37.5526 125.195 38.2133 125.226C39.2936 123.772 40.8149 122.782 42.3363 121.806C43.5719 121.025 44.8491 120.312 46.1622 119.67C47.2256 119.145 48.3059 118.652 49.4029 118.192C50.9513 117.54 52.5285 116.959 54.1074 116.392C55.1607 116.014 56.2229 115.641 57.1933 115.083C59.7139 113.626 61.4946 110.719 61.1543 107.807C60.7258 104.135 61.6422 100.307 61.581 96.6088C61.563 95.5285 61.5234 94.4483 61.1957 93.413C61.2719 93.4671 61.3436 93.5273 61.4099 93.5931C62.0653 94.2052 62.2237 95.1775 62.8503 95.876C63.3382 96.4251 64.08 96.7762 64.3752 97.446C64.6003 97.9591 64.5679 98.6523 65.0378 98.9475C65.171 99.0322 65.3295 99.0682 65.4627 99.151C65.6221 99.2646 65.7563 99.4098 65.857 99.5777C66.3557 100.289 66.8724 101.05 66.9264 101.918C66.9498 102.262 66.9174 102.66 67.1695 102.892C67.2415 102.959 67.3333 103.007 67.3711 103.098C67.4503 103.278 67.2415 103.468 67.2055 103.668C67.1533 103.946 67.4269 104.156 67.5962 104.388C67.7374 104.582 67.8135 104.816 67.8135 105.055C67.8135 105.295 67.7374 105.529 67.5962 105.723C66.1198 107.64 65.8534 110.224 64.5625 112.274C64.116 112.982 63.6191 113.652 63.187 114.368C61.8582 116.568 61.1867 119.096 60.5349 121.586C60.8134 122.071 61.1906 122.492 61.6422 122.821C61.3982 123.66 60.9777 124.436 60.4089 125.099C60.2637 125.261 60.1279 125.431 60.002 125.608C59.8964 125.474 59.7581 125.37 59.6005 125.306C59.3638 126.339 59.243 127.396 59.2404 128.456C59.2404 129.155 59.3359 129.953 59.903 130.356C60.1293 130.498 60.3784 130.601 60.6394 130.66L61.8744 131.02C62.0917 131.104 62.3275 131.127 62.5568 131.087C62.7026 131.045 62.8323 130.955 62.9817 130.927C63.1441 130.91 63.3081 130.931 63.4606 130.99L64.5283 131.301C64.8893 131.397 65.242 131.522 65.5833 131.674C65.8876 131.82 66.1684 132.009 66.4673 132.171C66.9643 132.422 67.4802 132.634 68.0103 132.804L69.8503 133.438C70.363 133.641 70.8987 133.78 71.4455 133.852C71.8236 133.885 72.2071 133.852 72.5798 133.917C72.8642 133.966 73.1397 134.068 73.4259 134.097C73.901 134.111 74.3681 133.972 74.7583 133.701C74.9107 133.615 75.0422 133.496 75.1436 133.354C75.4136 132.932 75.1814 132.376 74.9185 131.951C74.4306 131.162 73.8202 130.424 73.0154 129.971C72.6896 129.791 72.3367 129.657 72 129.492C71.0422 129.024 70.3202 128.242 69.4146 127.707C69.2991 127.625 69.1587 127.586 69.0173 127.595C68.8758 127.605 68.7421 127.663 68.6386 127.76C67.8861 127.272 67.0723 126.795 66.6582 126.001C66.4737 125.618 66.3521 125.207 66.2981 124.785C66.7212 124.886 67.1479 124.965 67.5782 125.036C68.2785 122.321 69.0437 119.557 70.4138 117.108ZM53.1172 40.3222C53.0812 40.5257 53.0416 40.7273 52.9984 40.929C52.6383 42.6196 52.1234 44.5136 50.9459 45.7721C50.5586 46.141 50.1087 46.4379 49.6172 46.6489L49.4857 46.7137C50.3337 44.4488 51.6841 42.3495 53.1172 40.3222Z" fill="url(#paint0_linear)"/>
<path d="M54.86 30.2939C54.9932 29.6655 55.0941 29.0066 55.4415 28.4646C55.6791 28.1239 55.9661 27.8205 56.2931 27.5644C56.8441 27.0981 57.4328 26.6498 58.1188 26.423C58.8047 26.1961 59.6113 26.2267 60.1875 26.6624C60.7636 27.0981 61.0066 27.8489 61.0967 28.5655C61.2191 29.5503 61.0967 30.5873 60.6087 31.4461C60.0506 32.4202 59.082 33.0665 58.2682 33.8479C57.6786 34.412 57.1659 35.0512 56.7432 35.7491C56.5509 36.1129 56.3178 36.4536 56.0483 36.7646C55.9116 36.9193 55.7406 37.0398 55.5489 37.1164C55.3572 37.193 55.1503 37.2236 54.9446 37.2057C54.5971 37.1499 54.3145 36.9086 54.0444 36.6782C53.7113 36.3865 52.8147 35.8662 52.7841 35.4035C52.7625 35.029 53.4629 34.1792 53.6339 33.8281C54.166 32.6965 54.577 31.5119 54.86 30.2939Z" fill="#FBBEBE"/>
<path opacity="0.1" d="M54.86 30.2939C54.9932 29.6655 55.0941 29.0066 55.4415 28.4646C55.6791 28.1239 55.9661 27.8205 56.2931 27.5644C56.8441 27.0981 57.4328 26.6498 58.1188 26.423C58.8047 26.1961 59.6113 26.2267 60.1875 26.6624C60.7636 27.0981 61.0066 27.8489 61.0967 28.5655C61.2191 29.5503 61.0967 30.5873 60.6087 31.4461C60.0506 32.4202 59.082 33.0665 58.2682 33.8479C57.6786 34.412 57.1659 35.0512 56.7432 35.7491C56.5509 36.1129 56.3178 36.4536 56.0483 36.7646C55.9116 36.9193 55.7406 37.0398 55.5489 37.1164C55.3572 37.193 55.1503 37.2236 54.9446 37.2057C54.5971 37.1499 54.3145 36.9086 54.0444 36.6782C53.7113 36.3865 52.8147 35.8662 52.7841 35.4035C52.7625 35.029 53.4629 34.1792 53.6339 33.8281C54.166 32.6965 54.577 31.5119 54.86 30.2939Z" fill="black"/>
<path d="M35.9556 48.2891C37.3981 47.9055 38.8868 47.7238 40.3792 47.749C42.8692 47.785 45.433 48.3881 47.8042 47.6248C48.4163 47.4124 49.0115 47.1542 49.5848 46.8524C50.0619 46.6147 50.548 46.3699 50.9135 45.981C52.0928 44.7315 52.6005 42.85 52.9696 41.1702C53.3386 39.4904 53.4341 37.7656 53.5295 36.0498C54.1434 36.3361 54.7898 36.6188 55.4704 36.5612C56.1509 36.5036 56.8297 35.985 56.8261 35.3009C56.7252 36.8906 56.646 38.5002 56.9143 40.0702C57.0187 40.6931 57.1807 41.3071 57.2366 41.9372C57.4382 44.213 56.2445 46.4869 56.6712 48.732C56.7417 49.0688 56.7049 49.4192 56.566 49.734C56.4272 50.0489 56.1933 50.3123 55.897 50.4874C55.2849 50.8169 54.5647 50.8583 53.8914 51.0275C52.5717 51.3642 51.4194 52.2032 50.0943 52.5165C49.4767 52.6623 48.834 52.6965 48.2255 52.8532C47.3504 53.0836 46.5565 53.5842 45.6653 53.7426C44.9973 53.8614 44.3095 53.7804 43.6344 53.838C43.0474 53.8866 42.4713 54.0415 41.8826 54.0559C40.4422 54.0919 39.0793 53.2763 38.1215 52.1942C37.1637 51.1122 36.5569 49.5998 35.9556 48.2891Z" fill="#D79922"/>
<path opacity="0.1" d="M35.9556 48.2891C37.3981 47.9055 38.8868 47.7238 40.3792 47.749C42.8692 47.785 45.433 48.3881 47.8042 47.6248C48.4163 47.4124 49.0115 47.1542 49.5848 46.8524C50.0619 46.6147 50.548 46.3699 50.9135 45.981C52.0928 44.7315 52.6005 42.85 52.9696 41.1702C53.3386 39.4904 53.4341 37.7656 53.5295 36.0498C54.1434 36.3361 54.7898 36.6188 55.4704 36.5612C56.1509 36.5036 56.8297 35.985 56.8261 35.3009C56.7252 36.8906 56.646 38.5002 56.9143 40.0702C57.0187 40.6931 57.1807 41.3071 57.2366 41.9372C57.4382 44.213 56.2445 46.4869 56.6712 48.732C56.7417 49.0688 56.7049 49.4192 56.566 49.734C56.4272 50.0489 56.1933 50.3123 55.897 50.4874C55.2849 50.8169 54.5647 50.8583 53.8914 51.0275C52.5717 51.3642 51.4194 52.2032 50.0943 52.5165C49.4767 52.6623 48.834 52.6965 48.2255 52.8532C47.3504 53.0836 46.5565 53.5842 45.6653 53.7426C44.9973 53.8614 44.3095 53.7804 43.6344 53.838C43.0474 53.8866 42.4713 54.0415 41.8826 54.0559C40.4422 54.0919 39.0793 53.2763 38.1215 52.1942C37.1637 51.1122 36.5569 49.5998 35.9556 48.2891Z" fill="black"/>
<path d="M100.704 50.5018C103.156 50.5018 105.552 51.2288 107.59 52.5907C109.628 53.9527 111.217 55.8885 112.155 58.1533C113.093 60.4181 113.338 62.9103 112.86 65.3145C112.382 67.7188 111.201 69.9272 109.467 71.6605C107.734 73.3938 105.525 74.5741 103.121 75.0521C100.717 75.5301 98.2245 75.2844 95.9599 74.3461C93.6952 73.4077 91.7596 71.8188 90.3979 69.7804C89.0363 67.742 88.3097 65.3455 88.31 62.8941C88.3105 59.6073 89.6165 56.4553 91.9408 54.1313C94.2651 51.8074 97.4173 50.5018 100.704 50.5018ZM100.704 47.4411C97.6474 47.4411 94.6593 48.3476 92.1177 50.0458C89.5761 51.7441 87.5952 54.1579 86.4256 56.982C85.2559 59.8061 84.9499 62.9137 85.5464 65.9117C86.1429 68.9097 87.615 71.6634 89.7766 73.8248C91.9381 75.9861 94.6921 77.4579 97.6901 78.054C100.688 78.6501 103.796 78.3438 106.62 77.1738C109.444 76.0038 111.857 74.0226 113.555 71.4808C115.253 68.9391 116.159 65.9509 116.159 62.8941C116.154 58.7969 114.524 54.8688 111.627 51.9718C108.73 49.0748 104.801 47.4454 100.704 47.4411Z" fill="#3F3D56"/>
<path d="M102.038 43.8259H98.4158V47.6392H102.038V43.8259Z" fill="#3F3D56"/>
<path d="M111.604 47.2383L108.499 45.3726L106.535 48.6412L109.64 50.5069L111.604 47.2383Z" fill="#3F3D56"/>
<path d="M117.972 54.7853L116.216 51.617L112.881 53.4658L114.637 56.634L117.972 54.7853Z" fill="#3F3D56"/>
<path d="M116.169 74.0673L118.088 70.9953L114.854 68.9745L112.935 72.0465L116.169 74.0673Z" fill="#3F3D56"/>
<path d="M86.7723 56.6328L88.5285 53.4645L85.1934 51.6158L83.4372 54.7841L86.7723 56.6328Z" fill="#3F3D56"/>
<path d="M88.4752 72.0452L86.5556 68.9732L83.3217 70.9939L85.2413 74.0659L88.4752 72.0452Z" fill="#3F3D56"/>
<path d="M91.767 50.5067L94.872 48.641L92.908 45.3724L89.803 47.2381L91.767 50.5067Z" fill="#3F3D56"/>
<path d="M102.038 78.1491H98.4158V81.9624H102.038V78.1491Z" fill="#3F3D56"/>
<path d="M109.641 75.2822L106.536 77.1479L108.5 80.4165L111.605 78.5508L109.641 75.2822Z" fill="#3F3D56"/>
<path d="M89.8035 78.5511L92.9085 80.4167L94.8725 77.1481L91.7675 75.2824L89.8035 78.5511Z" fill="#3F3D56"/>
<path d="M85.6418 61.3691H81.256V64.6099H85.6418V61.3691Z" fill="#3F3D56"/>
<path d="M115.766 64.6099H120.152V61.3691H115.766V64.6099Z" fill="#3F3D56"/>
<path d="M129.496 28.1928C131.948 28.1928 134.344 28.9197 136.382 30.2817C138.421 31.6437 140.009 33.5795 140.947 35.8443C141.885 38.1091 142.131 40.6013 141.652 43.0055C141.174 45.4098 139.993 47.6182 138.26 49.3515C136.526 51.0848 134.318 52.265 131.913 52.7431C129.509 53.2211 127.017 52.9754 124.752 52.037C122.488 51.0987 120.552 49.5098 119.19 47.4714C117.829 45.4329 117.102 43.0365 117.102 40.5851C117.103 37.2983 118.409 34.1463 120.733 31.8223C123.057 29.4984 126.21 28.1928 129.496 28.1928ZM129.496 25.1321C126.44 25.1321 123.452 26.0385 120.91 27.7368C118.368 29.4351 116.388 31.8489 115.218 34.673C114.048 37.4971 113.742 40.6047 114.339 43.6026C114.935 46.6006 116.407 49.3544 118.569 51.5157C120.73 53.6771 123.484 55.1488 126.482 55.745C129.481 56.3411 132.588 56.0348 135.412 54.8648C138.236 53.6948 140.65 51.7136 142.348 49.1718C144.046 46.6301 144.952 43.6418 144.951 40.5851C144.947 36.4878 143.317 32.5598 140.419 29.6628C137.522 26.7658 133.594 25.1364 129.496 25.1321Z" fill="#3F3D56"/>
<path d="M130.831 21.5186H127.208V25.3319H130.831V21.5186Z" fill="#3F3D56"/>
<path d="M140.398 24.9281L137.293 23.0624L135.329 26.331L138.434 28.1967L140.398 24.9281Z" fill="#3F3D56"/>
<path d="M146.765 32.4756L145.009 29.3074L141.674 31.1561L143.43 34.3244L146.765 32.4756Z" fill="#3F3D56"/>
<path d="M144.96 51.7587L146.88 48.6867L143.646 46.6659L141.726 49.7379L144.96 51.7587Z" fill="#3F3D56"/>
<path d="M115.563 34.326L117.32 31.1577L113.984 29.309L112.228 32.4773L115.563 34.326Z" fill="#3F3D56"/>
<path d="M117.267 49.7375L115.347 46.6655L112.113 48.6862L114.033 51.7582L117.267 49.7375Z" fill="#3F3D56"/>
<path d="M120.559 28.1971L123.664 26.3314L121.7 23.0628L118.595 24.9285L120.559 28.1971Z" fill="#3F3D56"/>
<path d="M130.831 55.8401H127.208V59.6533H130.831V55.8401Z" fill="#3F3D56"/>
<path d="M138.433 52.9737L135.328 54.8394L137.292 58.1081L140.397 56.2424L138.433 52.9737Z" fill="#3F3D56"/>
<path d="M118.595 56.2414L121.7 58.1071L123.664 54.8385L120.559 52.9728L118.595 56.2414Z" fill="#3F3D56"/>
<path d="M114.432 39.0601H110.047V42.3009H114.432V39.0601Z" fill="#3F3D56"/>
<path d="M144.561 42.3009H148.946V39.0601H144.561V42.3009Z" fill="#3F3D56"/>
<path d="M71.9046 27.2385C72.0504 27.2385 72.1963 27.2385 72.3421 27.2385C75.5906 27.3493 78.6656 28.7318 80.9046 31.0882C83.1435 33.4446 84.3672 36.5862 84.3119 39.8361C84.2567 43.0861 82.9269 46.1843 80.6092 48.4632C78.2914 50.7421 75.1712 52.0192 71.9208 52.0195C71.775 52.0195 71.6291 52.0195 71.4815 52.0195C68.2328 51.9087 65.1576 50.5261 62.9187 48.1696C60.6797 45.813 59.4561 42.6712 59.5116 39.4211C59.5671 36.1709 60.8972 33.0727 63.2153 30.794C65.5334 28.5152 68.654 27.2384 71.9046 27.2385ZM71.9046 24.1778C67.8512 24.1773 63.9599 25.7693 61.0691 28.6106C58.1784 31.4519 56.5195 35.3152 56.4501 39.3679C56.3807 43.4207 57.9062 47.3385 60.698 50.2772C63.4898 53.2159 67.3243 54.9401 71.3753 55.0785C71.5553 55.0785 71.7353 55.0875 71.9154 55.0875C75.9686 55.0875 79.8596 53.4952 82.75 50.6538C85.6404 47.8123 87.2989 43.9491 87.368 39.8964C87.4372 35.8438 85.9116 31.9262 83.1199 28.9878C80.3281 26.0493 76.4937 24.3252 72.4429 24.1868C72.2629 24.1868 72.0828 24.1778 71.9028 24.1778H71.9046Z" fill="#3F3D56"/>
<path d="M73.9052 20.6252L70.285 20.4994L70.1525 24.3104L73.7728 24.4362L73.9052 20.6252Z" fill="#3F3D56"/>
<path d="M83.3458 24.3651L80.3074 22.3927L78.2311 25.5912L81.2695 27.5636L83.3458 24.3651Z" fill="#3F3D56"/>
<path d="M89.4488 32.1284L87.8037 28.901L84.4064 30.6328L86.0515 33.8602L89.4488 32.1284Z" fill="#3F3D56"/>
<path d="M86.9791 51.3311L89.0042 48.3276L85.8424 46.1958L83.8173 49.1993L86.9791 51.3311Z" fill="#3F3D56"/>
<path d="M58.203 32.89L60.0682 29.7846L56.7992 27.8212L54.934 30.9266L58.203 32.89Z" fill="#3F3D56"/>
<path d="M59.117 48.651L57.3058 45.4995L53.9882 47.4062L55.7995 50.5577L59.117 48.651Z" fill="#3F3D56"/>
<path d="M63.4118 26.9384L66.5797 25.1816L64.7304 21.8468L61.5625 23.6035L63.4118 26.9384Z" fill="#3F3D56"/>
<path d="M72.7149 54.9242L69.0946 54.7984L68.9622 58.6094L72.5824 58.7352L72.7149 54.9242Z" fill="#3F3D56"/>
<path d="M80.4144 52.3259L77.2464 54.0827L79.0957 57.4175L82.2637 55.6608L80.4144 52.3259Z" fill="#3F3D56"/>
<path d="M60.4776 54.8998L63.516 56.8722L65.5923 53.6738L62.5539 51.7014L60.4776 54.8998Z" fill="#3F3D56"/>
<path d="M56.9107 37.5865L52.5275 37.4342L52.4149 40.673L56.7981 40.8253L56.9107 37.5865Z" fill="#3F3D56"/>
<path d="M86.9087 41.8664L91.2919 42.0187L91.4044 38.7799L87.0212 38.6276L86.9087 41.8664Z" fill="#3F3D56"/>
<path d="M31.9947 118.659C31.5486 118.713 31.1161 118.848 30.7182 119.056C30.178 119.386 29.8449 119.968 29.6073 120.554C29.0114 122.027 28.8871 123.644 28.8619 125.236C28.8403 126.517 28.8835 127.83 29.3426 129.025C29.4686 129.404 29.687 129.745 29.9782 130.017C30.2343 130.219 30.531 130.363 30.8478 130.439C31.5319 130.619 32.3259 130.619 32.8859 130.187C33.5088 129.699 33.6654 128.84 33.7969 128.06C33.9769 127.009 34.2272 125.9 35.0086 125.167C35.5883 124.627 36.4183 124.357 36.8396 123.687C37.3419 122.891 37.0772 121.853 36.7568 120.967C36.4777 120.2 36.069 118.642 35.266 118.25C34.463 117.857 32.83 118.507 31.9947 118.659Z" fill="#FBBEBE"/>
<path d="M61.6062 122.43C61.3634 123.289 60.933 124.083 60.3459 124.755C59.9858 125.165 59.5447 125.664 59.7337 126.174C59.8106 126.346 59.925 126.499 60.0686 126.622C62.708 129.205 66.4007 130.462 70.0646 130.919C70.1235 130.935 70.1857 130.935 70.2446 130.919C70.3526 130.871 70.3778 130.739 70.3922 130.619C70.4507 130.237 70.4507 129.848 70.3922 129.467C70.2122 128.566 69.429 127.942 68.662 127.448C67.8951 126.955 67.0561 126.476 66.6276 125.671C66.0874 124.67 66.3197 123.367 65.6841 122.43C65.1692 121.669 64.2132 121.35 63.3058 121.201C62.9907 121.152 62.3209 120.806 62.0455 120.967C61.7646 121.129 61.7016 122.117 61.6062 122.43Z" fill="#FBBEBE"/>
<path d="M31.6346 118.565C31.6352 118.476 31.603 118.39 31.5442 118.324C31.4853 118.257 31.4041 118.215 31.3159 118.205C31.1397 118.187 30.9616 118.21 30.7956 118.271C30.3827 118.384 29.9611 118.461 29.5353 118.502C29.0294 118.55 28.5126 118.549 28.0211 118.682C27.5296 118.815 27.0489 119.109 26.8491 119.582C26.7519 119.853 26.7078 120.139 26.7194 120.427C26.7093 121.532 26.8412 122.634 27.1119 123.705C27.1167 123.748 27.1312 123.789 27.1542 123.826C27.1773 123.862 27.2084 123.893 27.2452 123.916C27.3082 123.941 27.3838 123.916 27.4468 123.945C27.5021 123.977 27.5437 124.029 27.5638 124.09C27.8681 124.775 27.9383 125.531 28.0193 126.28C28.1394 127.383 28.2912 128.482 28.4748 129.578C28.5829 130.217 28.7161 130.889 29.1374 131.378C29.5983 131.919 30.3293 132.151 31.0332 132.246C32.5204 132.444 34.0219 132.145 35.4911 131.839C35.7712 131.811 36.0347 131.693 36.2419 131.503C36.3761 131.335 36.4405 131.121 36.4219 130.907C36.3877 130.172 35.7125 129.646 35.1004 129.243L34.2578 128.676C34.199 128.644 34.1485 128.598 34.1102 128.543C34.0702 128.459 34.0558 128.365 34.0687 128.273L34.1228 127.193C33.5631 127.201 33.0163 127.362 32.5407 127.657C32.0651 127.952 31.6785 128.371 31.4221 128.869C31.3051 129.101 31.1953 129.373 30.9522 129.463C30.6515 129.576 30.3167 129.322 30.2158 129.018C30.1457 128.704 30.155 128.377 30.2429 128.068C30.7362 125.424 30.6209 122.708 30.9216 120.036C30.9402 119.736 31.0323 119.445 31.1899 119.19C31.3357 118.988 31.6076 118.812 31.6346 118.565Z" fill="#3F3D56"/>
<path d="M68.4064 128.813C68.5306 129.018 68.7233 129.173 68.8385 129.385C68.9537 129.598 68.9519 129.908 68.7449 130.028C68.6226 130.082 68.4865 130.096 68.356 130.068C65.7125 129.74 63.2308 128.617 61.2389 126.849C60.9082 126.569 60.6152 126.248 60.3675 125.893C60.1352 125.533 59.939 125.109 59.5429 124.962C59.3062 125.988 59.1854 127.038 59.1828 128.091C59.1828 128.784 59.2782 129.576 59.8454 129.978C60.0727 130.119 60.3223 130.221 60.5835 130.278L61.8204 130.628C62.0386 130.71 62.2747 130.733 62.5046 130.694C62.6504 130.655 62.7801 130.563 62.9295 130.536C63.0923 130.519 63.2569 130.54 63.4102 130.597L64.4779 130.909C64.8391 131.001 65.1925 131.121 65.5347 131.269C65.839 131.413 66.1216 131.602 66.4187 131.762C66.9169 132.012 67.434 132.222 67.9653 132.39L69.8449 133.042C70.3587 133.245 70.8957 133.383 71.4437 133.453C71.8218 133.485 72.2053 133.453 72.5798 133.517C72.8642 133.566 73.1397 133.669 73.4278 133.697C73.9024 133.71 74.3689 133.572 74.7601 133.303C74.9125 133.218 75.0446 133.101 75.1472 132.959C75.4172 132.54 75.185 131.987 74.9203 131.564C74.4324 130.783 73.822 130.05 73.0155 129.603C72.6878 129.423 72.3349 129.29 71.9982 129.126C71.0404 128.662 70.3148 127.886 69.4092 127.355C68.554 126.858 68.0031 128.152 68.4064 128.813Z" fill="#3F3D56"/>
<path d="M42.0068 53.1394C41.0138 53.8216 39.8762 54.2641 38.6832 54.4321C38.0592 54.5098 37.4305 54.5435 36.8018 54.533C34.1801 54.5298 31.5631 54.3112 28.9771 53.8794C30.007 52.7451 31.0476 51.5389 31.4365 50.0517C31.6292 49.2673 31.669 48.453 31.5535 47.6535C31.3976 46.6279 31.153 45.6177 30.8226 44.6342C31.9255 44.6934 33.0315 44.6651 34.13 44.5496C34.7565 44.4866 36.2905 43.9159 36.8306 44.348C37.3365 44.7495 36.9548 46.17 36.9458 46.8254C36.9458 46.8488 36.9458 46.8722 36.9458 46.8956C36.9741 47.8904 37.1885 48.8711 37.5778 49.787C38.3699 51.5587 40.0641 53.0134 42.0068 53.1394Z" fill="#FBBEBE"/>
<path opacity="0.1" d="M36.953 46.8163C36.164 47.3318 35.2737 47.6724 34.3421 47.8153C33.4104 47.9581 32.459 47.8999 31.5517 47.6445C31.3958 46.6189 31.1512 45.6086 30.8208 44.6252C31.9237 44.6844 33.0297 44.6561 34.1282 44.5406C34.7547 44.4776 36.2887 43.9068 36.8288 44.3389C37.3437 44.7404 36.962 46.161 36.953 46.8163Z" fill="black"/>
<path d="M33.345 47.5833C36.9843 47.5833 39.9345 44.6331 39.9345 40.9938C39.9345 37.3545 36.9843 34.4042 33.345 34.4042C29.7057 34.4042 26.7554 37.3545 26.7554 40.9938C26.7554 44.6331 29.7057 47.5833 33.345 47.5833Z" fill="#FBBEBE"/>
<path d="M61.3037 74.3376C61.3073 74.8695 61.1722 75.3932 60.9117 75.8569C60.6512 76.3207 60.2744 76.7086 59.8184 76.9824C59.3089 77.2498 58.763 77.4409 58.198 77.5495C55.1841 78.2697 52.0963 78.862 49.0014 78.6856C48.3317 78.6478 47.6511 78.5686 47.0498 78.2751C46.4484 77.9816 45.9353 77.4325 45.8453 76.77C45.8412 76.606 45.809 76.444 45.7499 76.291C45.6306 76.1222 45.4741 75.983 45.2926 75.8841C45.0142 75.6703 44.8014 75.3826 44.6786 75.0538C44.5557 74.725 44.5276 74.3683 44.5976 74.0243C44.2213 74.1918 43.8288 73.8137 43.6524 73.441C43.4759 73.0683 43.3373 72.6182 42.9592 72.4615C42.7017 72.3517 42.4047 72.4165 42.1328 72.3463C41.6989 72.2347 41.4343 71.8062 41.1282 71.4857C40.5034 70.8178 39.6176 70.4721 38.8002 70.0616C36.3751 68.8391 34.3982 66.9018 32.4628 64.997C31.4887 64.0374 30.5075 63.0705 29.7351 61.9363C29.5173 61.6176 29.321 61.2899 29.1356 60.9533C28.55 59.8306 28.0423 58.669 27.616 57.4766C27.3712 56.8393 27.1227 56.1659 27.2235 55.4962C27.2325 55.435 27.2451 55.3737 27.2595 55.3161C27.385 54.881 27.5874 54.4718 27.8573 54.1081C28.527 53.1232 29.4056 52.1906 30.5579 51.8881C31.7102 51.5857 32.8606 51.9511 34.0309 52.1996C34.4195 52.2861 34.8135 52.3462 35.2102 52.3796C36.4507 52.4679 37.6786 52.1348 38.8777 51.8035L40.1848 51.4434C40.8401 51.2634 41.1678 50.4712 41.8303 50.3326C42.1263 50.29 42.4278 50.3053 42.718 50.3776C44.0629 50.6332 45.4186 50.9627 46.6015 51.6469C46.8648 51.7997 47.1169 51.9712 47.3558 52.16C48.1984 52.8262 48.8646 53.7138 49.1094 54.7508C49.3795 55.8905 49.1257 57.1076 49.3993 58.2472C49.6226 59.1888 50.1879 60.0098 50.7424 60.8038L53.9598 65.3985C54.6779 66.4798 55.4689 67.5108 56.3273 68.4844C58.0521 70.3623 61.2605 71.7828 61.3037 74.3376Z" fill="#D79922"/>
<path d="M52.7121 30.2939C52.8453 29.6655 52.9444 29.0066 53.2918 28.4646C53.5294 28.1239 53.8164 27.8205 54.1434 27.5644C54.6962 27.0981 55.2831 26.6498 55.9691 26.423C56.655 26.1961 57.4616 26.2267 58.0377 26.6624C58.6139 27.0981 58.8569 27.8489 58.947 28.5655C59.0694 29.5503 58.947 30.5873 58.459 31.4461C57.9009 32.4202 56.9323 33.0665 56.1185 33.8479C55.5295 34.4125 55.0168 35.0517 54.5935 35.7491C54.4012 36.1129 54.168 36.4536 53.8986 36.7646C53.7619 36.9193 53.5909 37.0398 53.3992 37.1164C53.2075 37.193 53.0006 37.2236 52.7949 37.2057C52.4492 37.1499 52.1648 36.9086 51.8947 36.6782C51.5616 36.3865 50.6632 35.8662 50.6344 35.4035C50.6128 35.029 51.3132 34.1792 51.4842 33.8281C52.0161 32.6963 52.4277 31.5117 52.7121 30.2939Z" fill="#FBBEBE"/>
<path d="M75.8709 106.625C75.0427 108.153 74.1353 109.642 73.3971 111.216C72.9668 112.136 72.5942 113.083 72.1152 113.977C71.5931 114.953 70.9504 115.861 70.4048 116.826C69.0311 119.258 68.2659 122.002 67.5584 124.704C65.5792 124.408 63.6749 123.736 61.9483 122.724C61.8312 122.655 61.7196 122.583 61.6116 122.506C61.1499 122.175 60.7638 121.75 60.4791 121.258C61.1327 118.786 61.8042 116.273 63.1347 114.089C63.5686 113.369 64.0656 112.712 64.5121 112.01C65.8066 109.975 66.073 107.408 67.5512 105.503C67.6924 105.311 67.7686 105.079 67.7686 104.84C67.7686 104.602 67.6924 104.37 67.5512 104.178C67.3801 103.956 67.1083 103.746 67.1587 103.472C67.1965 103.272 67.4053 103.092 67.3243 102.905C67.2865 102.815 67.1947 102.766 67.1227 102.701C66.8706 102.469 66.903 102.073 66.8814 101.733C66.8256 100.87 66.3089 100.112 65.8012 99.4084C65.6999 99.2415 65.5657 99.097 65.4069 98.9835C65.2736 98.9025 65.1152 98.8665 64.982 98.7837C64.5103 98.4884 64.5445 97.8007 64.3176 97.2911C64.0223 96.6196 63.2788 96.2775 62.7909 95.732C62.1697 95.0388 62.0113 94.072 61.3505 93.4652C61.2839 93.3998 61.2122 93.3396 61.1363 93.2852C61.4639 94.3024 61.4964 95.3881 61.5198 96.4593C61.5828 100.13 60.6646 103.931 61.0949 107.579C61.4333 110.472 59.6545 113.36 57.1249 114.806C56.1527 115.36 55.0905 115.731 54.0354 116.107C52.4528 116.667 50.8757 117.245 49.3237 117.893C48.2267 118.347 47.1464 118.836 46.0829 119.361C44.7683 119.999 43.4888 120.707 42.2499 121.482C40.7267 122.45 39.2035 123.435 38.1215 124.881C37.0754 124.852 36.1176 124.224 35.4551 123.413C34.7925 122.603 34.3748 121.613 33.9949 120.648C33.6582 119.811 33.327 118.947 33.3018 118.045C33.3063 117.948 33.3381 117.854 33.3935 117.774C33.4489 117.695 33.5257 117.632 33.615 117.594L40.8473 113.761L42.1994 113.041C45.1611 111.469 48.2291 110.017 51.1907 108.447C51.3906 108.506 51.5508 108.279 51.6102 108.086C51.6697 107.894 51.7111 107.645 51.8983 107.559C51.9919 107.514 52.1144 107.516 52.1846 107.437C52.2303 107.366 52.2483 107.28 52.235 107.197C52.1396 105.757 51.1061 104.448 51.3132 103.027C51.4014 102.422 51.7129 101.826 51.5778 101.227C51.4824 100.815 51.1871 100.481 51.0269 100.091C50.6668 99.2176 51.0269 98.1662 50.638 97.311C50.3796 96.7486 50.2037 96.1519 50.1159 95.5393C49.9296 94.3193 49.5568 93.1352 49.0104 92.0285C48.7475 91.469 48.4048 90.9504 47.9932 90.4892C47.7753 90.2551 47.5305 90.0462 47.3234 89.8032C46.6951 89.0578 46.4628 88.064 46.2846 87.1026C45.9605 85.3616 45.7445 83.5557 46.1406 81.8309C46.2774 81.2422 46.4862 80.6588 46.4772 80.0557C46.4682 79.2581 46.1172 78.3273 46.6717 77.7512C46.9014 77.545 47.1805 77.4017 47.4819 77.3353C48.7566 76.9554 50.0835 76.7825 51.4032 76.6151L57.4436 75.8247C58.135 75.7329 58.8425 75.6447 59.4529 75.3008C60.2721 74.8489 60.8158 74.0117 61.1489 73.1403C62.2093 73.9145 62.6054 75.3566 63.4516 76.3558C63.8639 76.8438 64.3734 77.238 64.8253 77.6864C65.3779 78.2683 65.8841 78.8926 66.3395 79.5534C67.5998 81.2836 68.8601 83.0264 69.7603 84.9673C70.2302 85.9755 70.5939 87.0269 70.9684 88.073C72.4429 92.1906 74.8465 96.0993 75.8439 100.355C76.0888 101.396 76.7243 102.336 76.8233 103.4C76.935 104.529 76.4128 105.62 75.8709 106.625Z" fill="#3F3D56"/>
<path opacity="0.1" d="M44.2375 72.4273C44.0895 72.701 44.0128 73.0075 44.0143 73.3185C44.1493 72.6524 45.0657 72.2833 45.1251 71.6244C45.1521 71.3201 45.0963 71.3345 44.9091 71.4947C44.6246 71.7414 44.5004 72.1663 44.2375 72.4273Z" fill="black"/>
<path opacity="0.1" d="M47.03 74.451C46.8365 74.6144 46.6919 74.8281 46.6123 75.0685C46.4565 75.4071 46.4264 75.7901 46.5277 76.1488C46.6627 76.0858 46.7077 75.9202 46.7491 75.7761C46.8154 75.5518 46.9117 75.3374 47.0354 75.1388C47.1434 74.9587 47.6421 74.5572 47.6403 74.3682C47.6349 74.0783 47.1632 74.3484 47.03 74.451Z" fill="black"/>
<path opacity="0.1" d="M47.3522 52.1474C46.9287 52.5118 46.4619 52.8227 45.9623 53.0728C44.657 53.7336 43.2113 54.0828 41.897 54.7238C41.2486 55.0561 40.6187 55.4233 40.0101 55.8239L36.1032 58.2994C35.7893 58.4792 35.5001 58.6989 35.2426 58.953C34.7727 59.4535 34.7745 60.3339 34.3424 60.8704C33.9103 61.407 33.1649 61.7094 32.4466 61.7454C31.727 61.7497 31.0122 61.6278 30.3347 61.3854C29.9243 61.2626 29.5215 61.1159 29.1284 60.946C28.7172 60.7715 28.328 60.5491 27.9689 60.2835C27.2721 59.7578 26.7086 58.9926 26.6042 58.123C26.5572 57.5263 26.6364 56.9263 26.8364 56.3622C26.9446 55.9952 27.0837 55.638 27.2523 55.2945C27.3484 55.0992 27.4591 54.9114 27.5836 54.7328C28.4838 53.4617 30.0628 52.8658 31.5914 52.5723C32.3943 52.4157 33.2117 52.3202 34.0237 52.1834C34.4123 52.2699 34.8063 52.33 35.203 52.3634C36.4435 52.4517 37.6714 52.1186 38.8705 51.7873L40.1776 51.4272C40.8329 51.2472 41.1606 50.455 41.8231 50.3164C42.1191 50.2738 42.4206 50.2891 42.7107 50.3614C44.0557 50.617 45.4114 50.9465 46.5943 51.6307C46.859 51.7846 47.1123 51.9572 47.3522 52.1474Z" fill="black"/>
<path d="M50.539 34.6581C50.3715 36.2515 49.0266 37.4218 48.1984 38.7991C47.8005 39.467 47.5215 40.1998 47.1632 40.8912C46.7526 41.645 46.2956 42.3725 45.7949 43.0697L44.3311 45.1942C43.4705 46.4437 42.6009 47.704 41.5009 48.75C39.5834 49.0759 37.9756 50.5 36.1572 51.1914C34.7025 51.7441 33.1163 51.8197 31.5896 52.1168C30.0628 52.4139 28.4802 53.017 27.5836 54.2773C27.2497 54.7744 26.9969 55.3213 26.8346 55.8977C26.6334 56.4609 26.5548 57.0606 26.6042 57.6567C26.714 58.5245 27.2703 59.2879 27.9671 59.8172C28.6639 60.3465 29.4975 60.6598 30.3329 60.9191C31.0106 61.1607 31.7252 61.2825 32.4448 61.2791C33.1649 61.2431 33.8959 60.9659 34.3424 60.4041C34.7889 59.8424 34.7673 58.9872 35.2426 58.4867C35.5007 58.2326 35.7906 58.0129 36.105 57.8331L40.0119 55.3576C40.6201 54.9595 41.2494 54.5947 41.897 54.2647C43.2113 53.6219 44.657 53.2745 45.9623 52.6137C47.2676 51.953 48.4829 50.8619 48.744 49.4216C49.5398 44.9961 52.6023 41.2657 55.2255 37.6108C55.1391 37.5928 55.1661 37.3966 55.1337 37.3137C54.7988 36.4459 54.0534 35.7924 53.2144 35.3801C52.3754 34.9678 51.4392 34.8526 50.539 34.6581Z" fill="#D79922"/>
<path d="M36.7261 34.6905C36.7749 34.2105 36.6803 33.7269 36.4543 33.3006C36.0204 32.5804 35.1112 32.3266 34.2938 32.1573C33.5028 31.9953 32.7082 31.856 31.91 31.7396C31.2547 31.6442 30.5831 31.5596 29.9386 31.7072C29.0383 31.9035 28.3056 32.4994 27.472 32.8703C26.4872 33.3096 25.3961 33.4248 24.3447 33.6679C23.2932 33.9109 22.2166 34.3232 21.5576 35.1766C21.0571 35.8248 20.8572 36.653 20.7078 37.4596C19.4601 44.1913 20.8032 51.0959 21.0589 57.9375C21.1579 60.6004 21.0373 63.4468 19.5159 65.6343L23.9468 65.5173C25.081 65.4885 26.2999 65.4291 27.1875 64.7287C27.9725 64.113 28.3434 63.121 28.6801 62.1811C28.9447 61.4412 29.2112 60.6868 29.2454 59.9018C29.3156 58.294 28.4028 56.7151 28.7053 55.1325C28.9267 53.9514 29.7855 52.9972 30.7055 52.2212C31.6256 51.4452 32.6482 50.7809 33.3918 49.8302C34.7205 48.1505 34.9743 45.8549 34.8087 43.7214C34.7097 42.4521 34.4828 41.1828 34.5926 39.9135C34.6755 38.9647 34.9761 37.9853 35.5973 37.2453C36.2958 36.4063 36.6649 35.8806 36.7261 34.6905Z" fill="#3F3D56"/>
<path opacity="0.1" d="M36.4543 33.3006C36.0276 32.5912 35.1418 32.3356 34.3298 32.1663C34.7615 32.3199 35.1308 32.6108 35.3812 32.9945C35.608 33.4205 35.7027 33.9044 35.6531 34.3844C35.5919 35.5727 35.2228 36.0984 34.517 36.9392C33.8959 37.6792 33.5952 38.6568 33.5124 39.6075C33.4026 40.8768 33.6294 42.1461 33.7285 43.4154C33.8941 45.5489 33.6402 47.8444 32.3133 49.5242C31.568 50.4676 30.5453 51.1446 29.6271 51.9151C28.7089 52.6857 27.8465 53.6453 27.625 54.8264C27.328 56.409 28.2408 57.988 28.1652 59.5957C28.131 60.3807 27.8627 61.1351 27.598 61.8751C27.2632 62.8149 26.8905 63.8051 26.1055 64.4209C25.2053 65.1212 23.9936 65.1824 22.8647 65.2113L19.7266 65.2941C19.6564 65.4093 19.5844 65.5245 19.5069 65.6343L23.9378 65.5173C25.072 65.4885 26.2909 65.4291 27.1785 64.7287C27.9635 64.113 28.3344 63.121 28.6711 62.1811C28.9357 61.4412 29.2022 60.6868 29.2364 59.9018C29.3066 58.294 28.3938 56.7151 28.6963 55.1325C28.9177 53.9514 29.7765 52.9972 30.6966 52.2212C31.6166 51.4452 32.6392 50.7809 33.3828 49.8303C34.7115 48.1505 34.9653 45.8549 34.7997 43.7214C34.7007 42.4521 34.4738 41.1828 34.5837 39.9135C34.6665 38.9647 34.9672 37.9853 35.5883 37.2453C36.2941 36.4063 36.6685 35.8806 36.7244 34.6905C36.7736 34.2107 36.6796 33.727 36.4543 33.3006Z" fill="black"/>
<path opacity="0.1" d="M69.7441 102.683L61.6116 122.515C61.1499 122.184 60.7638 121.759 60.4791 121.267C61.1327 118.795 61.8042 116.282 63.1347 114.098C63.5686 113.378 64.0656 112.721 64.5121 112.019C65.8066 109.984 66.073 107.417 67.5512 105.512C67.6924 105.32 67.7686 105.088 67.7686 104.849C67.7686 104.611 67.6924 104.379 67.5512 104.187C67.3801 103.965 67.1083 103.755 67.1587 103.481C67.1965 103.281 67.4053 103.101 67.3243 102.914C67.2865 102.824 67.1947 102.775 67.1227 102.71C66.8706 102.478 66.903 102.082 66.8814 101.742C66.8256 100.879 66.3089 100.121 65.8012 99.4174C65.6999 99.2506 65.5657 99.106 65.4069 98.9926C65.2736 98.9115 65.1152 98.8755 64.982 98.7927C64.5103 98.4974 64.5445 97.8097 64.3176 97.3002C64.0223 96.6286 63.2788 96.2865 62.7909 95.741C62.1697 95.0478 62.0113 94.081 61.3505 93.4743L61.2947 93.3338L61.9285 89.5079L69.7441 102.683Z" fill="black"/>
<defs>
<linearGradient id="paint0_linear" x1="48.2165" y1="134.104" x2="48.2165" y2="25.9531" gradientUnits="userSpaceOnUse">
<stop stop-color="#808080" stop-opacity="0.25"/>
<stop offset="0.54" stop-color="#808080" stop-opacity="0.12"/>
<stop offset="1" stop-color="#808080" stop-opacity="0.1"/>
</linearGradient>
</defs>
</svg>
