<svg width="211" height="158" viewBox="0 0 211 162" fill="none" xmlns="http://www.w3.org/2000/svg">
<path opacity="0.1" d="M96.6112 143.048C145.001 143.048 184.228 140.002 184.228 136.245C184.228 132.488 145.001 129.442 96.6112 129.442C48.2219 129.442 8.9946 132.488 8.9946 136.245C8.9946 140.002 48.2219 143.048 96.6112 143.048Z" fill="#D79922"/>
<g opacity="0.1">
<path opacity="0.1" d="M174.213 97.4792C173.689 95.8897 171.566 95.1578 169.471 95.8464C169.169 95.9448 168.877 96.0711 168.599 96.2237C168.465 96.1866 168.327 96.1536 168.187 96.1288C168.301 95.6716 168.345 95.1995 168.317 94.729C169.039 94.2457 169.625 93.5847 170.019 92.8097C170.412 92.0346 170.6 91.1713 170.564 90.3028C171.284 89.8181 171.868 89.1567 172.26 88.3817C172.652 87.6068 172.839 86.7443 172.803 85.8767C173.529 85.3982 174.114 84.735 174.499 83.9553C175.509 81.9556 175.091 79.7085 173.563 78.9354C172.036 78.1623 169.976 79.158 168.966 81.1577C168.566 81.9295 168.378 82.7942 168.424 83.6625C167.703 84.1473 167.119 84.8087 166.727 85.5836C166.335 86.3586 166.148 87.2211 166.185 88.0887C165.464 88.5735 164.88 89.2349 164.488 90.0098C164.096 90.7847 163.91 91.6473 163.946 92.5149C163.224 92.999 162.638 93.6604 162.245 94.4357C161.851 95.2111 161.663 96.0744 161.699 96.9432C160.973 97.4217 160.387 98.0848 160.002 98.8645C159.812 99.2404 159.668 99.6377 159.574 100.048C159.32 99.6778 159.012 99.3489 158.658 99.0727C158.618 98.7579 158.549 98.4474 158.452 98.145C157.763 96.0484 155.916 94.7703 154.329 95.2939C152.741 95.8175 152.008 97.9389 152.696 100.036C152.978 100.934 153.52 101.729 154.255 102.32C154.295 102.635 154.364 102.945 154.461 103.247C154.861 104.464 155.65 105.404 156.553 105.876C156.473 106.139 156.416 106.408 156.382 106.68C155.531 107.499 154.983 108.583 154.828 109.754C153.976 110.573 153.428 111.658 153.273 112.83C152.851 113.235 152.503 113.71 152.243 114.234C151.23 116.233 151.649 118.482 153.176 119.253C154.704 120.024 156.764 119.033 157.776 117.031C158.043 116.509 158.217 115.945 158.291 115.363C159.143 114.544 159.691 113.461 159.846 112.289C160.698 111.47 161.246 110.386 161.4 109.214C162.246 108.393 162.787 107.309 162.936 106.14C163.791 105.321 164.341 104.234 164.494 103.06C164.757 102.811 164.991 102.535 165.193 102.235C166.036 102.408 166.909 102.353 167.723 102.076C168.025 101.978 168.317 101.852 168.595 101.699C169.507 101.94 170.469 101.905 171.362 101.6C173.45 100.918 174.734 99.0707 174.213 97.4792Z" fill="#3F3D56"/>
<g opacity="0.1">
<path opacity="0.1" d="M170.516 91.212C170.3 91.4248 170.062 91.6147 169.807 91.7789C169.84 92.3674 169.762 92.9568 169.578 93.5168C169.741 93.2926 169.885 93.0562 170.011 92.8097C170.267 92.3088 170.438 91.7689 170.516 91.212Z" fill="black"/>
<path opacity="0.1" d="M172.755 86.7858C172.539 86.9986 172.301 87.1886 172.046 87.3528C172.078 87.9412 172.001 88.5306 171.817 89.0907C171.98 88.866 172.125 88.6289 172.25 88.3815C172.505 87.8809 172.675 87.3418 172.755 86.7858Z" fill="black"/>
<path opacity="0.1" d="M167.678 85.1386C167.659 84.8352 167.67 84.5306 167.713 84.2295C167.312 84.624 166.979 85.0816 166.727 85.5839C166.603 85.8316 166.498 86.0887 166.414 86.3529C166.755 85.8723 167.184 85.4604 167.678 85.1386Z" fill="black"/>
<path opacity="0.1" d="M153.467 111.925C153.647 111.673 153.851 111.44 154.075 111.228C154.11 110.948 154.17 110.672 154.255 110.403C154.075 110.644 153.917 110.9 153.783 111.168C153.658 111.412 153.553 111.665 153.467 111.925Z" fill="black"/>
<path opacity="0.1" d="M155.022 108.853C155.202 108.602 155.405 108.368 155.63 108.156C155.663 107.884 155.721 107.615 155.801 107.352C155.63 107.586 155.478 107.833 155.347 108.092C155.22 108.337 155.111 108.591 155.022 108.853Z" fill="black"/>
<path opacity="0.1" d="M168.275 95.6382C168.06 95.8508 167.823 96.0402 167.568 96.203C167.597 96.6735 167.553 97.1456 167.438 97.6028C167.577 97.6269 167.715 97.6585 167.851 97.6977C168.129 97.5451 168.421 97.4188 168.723 97.3204C170.821 96.6318 172.943 97.3637 173.464 98.9532C173.594 99.3527 173.617 99.7791 173.53 100.19C174.221 99.3778 174.508 98.3883 174.211 97.4812C173.687 95.8917 171.564 95.1599 169.469 95.8484C169.167 95.9468 168.875 96.0731 168.597 96.2257C168.463 96.1886 168.325 96.1556 168.185 96.1309C168.224 95.966 168.253 95.8031 168.275 95.6382Z" fill="black"/>
<path opacity="0.1" d="M152.7 113.469C152.521 113.709 152.363 113.965 152.228 114.234C152.103 114.482 151.997 114.74 151.911 115.005C152.095 114.752 152.302 114.518 152.529 114.304C152.561 114.021 152.618 113.741 152.7 113.469Z" fill="black"/>
<path opacity="0.1" d="M165.428 89.5648C165.41 89.2614 165.421 88.9568 165.463 88.6557C165.063 89.0502 164.73 89.5078 164.478 90.0101C164.354 90.2578 164.249 90.5149 164.165 90.7791C164.506 90.2985 164.935 89.8866 165.428 89.5648Z" fill="black"/>
<path opacity="0.1" d="M162.194 107.616C162.153 107.923 162.084 108.225 161.988 108.519C162.149 108.294 162.293 108.057 162.418 107.81C162.554 107.545 162.666 107.269 162.755 106.985C162.586 107.211 162.398 107.422 162.194 107.616Z" fill="black"/>
<path opacity="0.1" d="M159.085 113.763C159.044 114.07 158.975 114.372 158.879 114.666C159.041 114.442 159.186 114.205 159.312 113.957C159.446 113.692 159.558 113.416 159.648 113.133C159.479 113.359 159.291 113.57 159.085 113.763Z" fill="black"/>
<path opacity="0.1" d="M160.639 110.688C160.599 110.994 160.53 111.297 160.433 111.591C160.597 111.37 160.745 111.137 160.874 110.894C161.01 110.629 161.122 110.353 161.21 110.069C161.038 110.291 160.847 110.498 160.639 110.688Z" fill="black"/>
<path opacity="0.1" d="M163.748 104.542C163.708 104.848 163.639 105.15 163.542 105.443C163.704 105.219 163.848 104.982 163.973 104.736C164.11 104.466 164.223 104.186 164.311 103.897C164.143 104.128 163.955 104.344 163.748 104.542Z" fill="black"/>
<path opacity="0.1" d="M153.57 96.7679C155.162 96.2463 157.009 97.5225 157.693 99.6191C157.79 99.9222 157.859 100.233 157.9 100.549C158.253 100.825 158.562 101.154 158.815 101.524C158.91 101.113 159.054 100.715 159.244 100.339C159.316 100.198 159.394 100.064 159.475 99.9262C159.241 99.6024 158.963 99.3125 158.65 99.0645C158.61 98.7497 158.541 98.4391 158.444 98.1368C157.755 96.0402 155.908 94.762 154.321 95.2857C153.414 95.5825 152.787 96.401 152.544 97.4359C152.823 97.1285 153.176 96.8984 153.57 96.7679Z" fill="black"/>
<path opacity="0.1" d="M160.951 98.4171C160.932 98.1143 160.945 97.8104 160.988 97.51C160.586 97.9039 160.252 98.3616 160 98.8645C159.875 99.1113 159.771 99.3678 159.687 99.6314C160.029 99.1516 160.458 98.7398 160.951 98.4171Z" fill="black"/>
<path opacity="0.1" d="M163.19 93.9889C163.171 93.6861 163.184 93.3822 163.227 93.0818C162.825 93.4746 162.491 93.9317 162.239 94.4342C162.115 94.6819 162.01 94.9391 161.926 95.2032C162.267 94.7226 162.696 94.3107 163.19 93.9889Z" fill="black"/>
<path opacity="0.1" d="M157.531 116.837C157.49 117.145 157.421 117.448 157.324 117.742C157.663 117.273 157.923 116.751 158.093 116.198C157.925 116.427 157.736 116.641 157.531 116.837Z" fill="black"/>
</g>
<path opacity="0.1" d="M177.268 77.0243C177.995 76.5464 178.58 75.883 178.965 75.1029C179.977 73.1032 179.558 70.854 178.031 70.0809C176.503 69.3078 174.444 70.3036 173.431 72.3053C173.03 73.0791 172.844 73.9461 172.891 74.8163C172.171 75.3011 171.587 75.9625 171.195 76.7374C170.803 77.5124 170.616 78.3749 170.652 79.2425C169.925 79.7199 169.339 80.3833 168.956 81.1639C168.832 81.4087 168.727 81.6631 168.644 81.9246C169.183 81.1453 169.963 80.5655 170.865 80.2754C170.967 80.5929 171.132 80.887 171.349 81.1405C171.566 81.394 171.831 81.6019 172.129 81.7522C172.427 81.9025 172.752 81.9922 173.085 82.0162C173.418 82.0401 173.752 81.9978 174.068 81.8916C174.373 82.788 174.373 83.7598 174.068 84.6562C174.229 84.4341 174.373 84.1997 174.497 83.9553C174.897 83.1833 175.084 82.3186 175.037 81.4504C175.759 80.9666 176.344 80.3053 176.736 79.5302C177.128 78.755 177.314 77.8921 177.276 77.0243H177.268Z" fill="#3F3D56"/>
<path opacity="0.1" d="M201.875 48.6489C202.496 48.3589 203.097 48.0262 203.673 47.6531L197.007 42.7837L204.841 46.8182C206.426 45.5592 207.737 43.99 208.694 42.2065C209.652 40.4231 210.235 38.4631 210.408 36.4465L197.094 36.5825L210.437 34.3519C210.299 32.3333 209.749 30.3642 208.823 28.5656C207.896 26.767 206.611 25.1768 205.048 23.8927C203.484 22.6087 201.674 21.6579 199.73 21.0987C197.785 20.5396 195.747 20.3838 193.74 20.6411C191.733 20.8984 189.8 21.5633 188.06 22.5949C186.319 23.6266 184.808 25.0032 183.619 26.6401C182.43 28.2771 181.588 30.1399 181.145 32.1142C180.702 34.0884 180.667 36.1323 181.043 38.1205C180.075 38.5704 179.158 39.1234 178.309 39.7697L185.267 49.4446L176.913 40.9757C175.15 42.7068 173.847 44.8502 173.121 47.212C172.395 49.5737 172.269 52.0791 172.755 54.5017C170.232 55.6795 168.09 57.5435 166.576 59.8806C165.062 62.2178 164.236 64.9338 164.192 67.7182C164.148 70.5027 164.888 73.2434 166.328 75.627C167.768 78.0107 169.85 79.9412 172.335 81.1979C174.82 82.4546 177.609 82.9868 180.382 82.7338C183.155 82.4808 185.801 81.4527 188.018 79.767C190.235 78.0813 191.933 75.806 192.917 73.2011C193.902 70.5962 194.134 67.7668 193.587 65.0363C196.607 63.6307 199.066 61.2504 200.569 58.278C202.073 55.3057 202.532 51.9141 201.875 48.6489Z" fill="#D79922"/>
<path opacity="0.1" d="M174.068 44.8721C172.56 47.843 172.099 51.236 172.759 54.5017C170.236 55.6795 168.095 57.5435 166.58 59.8806C165.066 62.2178 164.24 64.9338 164.196 67.7182C164.152 70.5027 164.892 73.2434 166.332 75.627C167.772 78.0107 169.854 79.9412 172.339 81.1979C174.824 82.4546 177.613 82.9868 180.386 82.7338C183.159 82.4808 185.805 81.4527 188.022 79.767C190.239 78.0813 191.937 75.806 192.921 73.2011C193.906 70.5962 194.138 67.7668 193.591 65.0363C196.504 63.6839 174.815 43.3857 174.068 44.8721Z" fill="black"/>
<path opacity="0.1" d="M190.796 23.3802C192.013 23.3802 193 22.3935 193 21.1764C193 19.9593 192.013 18.9726 190.796 18.9726C189.579 18.9726 188.592 19.9593 188.592 21.1764C188.592 22.3935 189.579 23.3802 190.796 23.3802Z" fill="#D79922"/>
<path opacity="0.1" d="M203.668 24.7945C204.885 24.7945 205.872 23.8078 205.872 22.5907C205.872 21.3735 204.885 20.3868 203.668 20.3868C202.451 20.3868 201.465 21.3735 201.465 22.5907C201.465 23.8078 202.451 24.7945 203.668 24.7945Z" fill="#D79922"/>
<path opacity="0.1" d="M208.633 44.5979C209.85 44.5979 210.836 43.6112 210.836 42.3941C210.836 41.1769 209.85 40.1902 208.633 40.1902C207.416 40.1902 206.429 41.1769 206.429 42.3941C206.429 43.6112 207.416 44.5979 208.633 44.5979Z" fill="#D79922"/>
<path opacity="0.1" d="M201.933 54.4872C203.15 54.4872 204.136 53.5005 204.136 52.2834C204.136 51.0663 203.15 50.0796 201.933 50.0796C200.715 50.0796 199.729 51.0663 199.729 52.2834C199.729 53.5005 200.715 54.4872 201.933 54.4872Z" fill="#D79922"/>
<path opacity="0.1" d="M192.779 75.0266C193.996 75.0266 194.983 74.0399 194.983 72.8228C194.983 71.6057 193.996 70.619 192.779 70.619C191.562 70.619 190.575 71.6057 190.575 72.8228C190.575 74.0399 191.562 75.0266 192.779 75.0266Z" fill="#D79922"/>
<path opacity="0.1" d="M192.779 75.0266C193.996 75.0266 194.983 74.0399 194.983 72.8228C194.983 71.6057 193.996 70.619 192.779 70.619C191.562 70.619 190.575 71.6057 190.575 72.8228C190.575 74.0399 191.562 75.0266 192.779 75.0266Z" fill="black"/>
<path opacity="0.1" d="M172.427 51.7639C173.645 51.7639 174.631 50.7772 174.631 49.5601C174.631 48.3429 173.645 47.3563 172.427 47.3563C171.21 47.3563 170.224 48.3429 170.224 49.5601C170.224 50.7772 171.21 51.7639 172.427 51.7639Z" fill="#D79922"/>
<path opacity="0.1" d="M172.427 51.7639C173.645 51.7639 174.631 50.7772 174.631 49.5601C174.631 48.3429 173.645 47.3563 172.427 47.3563C171.21 47.3563 170.224 48.3429 170.224 49.5601C170.224 50.7772 171.21 51.7639 172.427 51.7639Z" fill="black"/>
<path opacity="0.1" d="M170.077 85.8086C168.611 85.0685 168.168 82.9719 169.024 81.0381C168.978 81.1165 168.935 81.1969 168.894 81.2814C167.882 83.2811 168.3 85.5282 169.828 86.3013C171.355 87.0744 173.415 86.0787 174.425 84.079C174.468 83.9965 174.505 83.912 174.543 83.8295C173.493 85.6664 171.541 86.5508 170.077 85.8086Z" fill="black"/>
<path opacity="0.1" d="M167.9 90.1132C166.436 89.3731 165.991 87.2764 166.849 85.3406C166.803 85.421 166.758 85.5014 166.717 85.5839C165.705 87.5836 166.123 89.8328 167.651 90.6038C169.178 91.3748 171.238 90.3832 172.25 88.3814C172.291 88.299 172.33 88.2165 172.368 88.132C171.316 89.9689 169.366 90.8533 167.9 90.1132Z" fill="black"/>
<path opacity="0.1" d="M165.723 94.4156C164.259 93.6755 163.814 91.5789 164.672 89.6452C164.626 89.7235 164.581 89.8039 164.54 89.8884C163.528 91.8882 163.948 94.1353 165.476 94.9084C167.003 95.6814 169.061 94.6857 170.073 92.686C170.114 92.6035 170.153 92.519 170.191 92.4365C169.141 94.2734 167.189 95.1578 165.723 94.4156Z" fill="black"/>
<path opacity="0.1" d="M163.554 98.7305C162.089 97.9904 161.645 95.8938 162.501 93.96C162.456 94.0384 162.412 94.1188 162.369 94.2012C161.359 96.201 161.777 98.4501 163.305 99.2232C164.833 99.9963 166.892 99.0006 167.902 96.9988C167.946 96.9163 167.983 96.8339 168.02 96.7493C166.964 98.5759 165.012 99.4603 163.554 98.7305Z" fill="black"/>
<path opacity="0.1" d="M161.371 103.023C159.905 102.283 159.462 100.186 160.318 98.2522C160.272 98.3306 160.229 98.411 160.188 98.4955C159.176 100.495 159.594 102.742 161.122 103.515C162.649 104.289 164.709 103.293 165.721 101.293C165.762 101.211 165.802 101.126 165.839 101.044C164.791 102.88 162.835 103.765 161.371 103.023Z" fill="black"/>
<path opacity="0.1" d="M159.194 107.327C157.73 106.587 157.285 104.491 158.143 102.557C158.097 102.635 158.052 102.715 158.011 102.798C156.999 104.798 157.417 107.047 158.947 107.82C160.476 108.593 162.524 107.595 163.554 105.596C163.596 105.513 163.635 105.431 163.672 105.346C162.61 107.183 160.668 108.067 159.194 107.327Z" fill="black"/>
<path opacity="0.1" d="M157.017 111.63C155.553 110.89 155.108 108.793 155.966 106.859C155.92 106.94 155.877 107.018 155.834 107.103C154.824 109.102 155.242 111.349 156.77 112.122C158.297 112.896 160.357 111.9 161.367 109.9C161.41 109.818 161.447 109.733 161.485 109.651C160.435 111.487 158.483 112.372 157.017 111.63Z" fill="black"/>
<path opacity="0.1" d="M154.842 115.934C153.376 115.194 152.933 113.098 153.789 111.164C153.743 111.242 153.7 111.323 153.659 111.405C152.647 113.405 153.065 115.654 154.593 116.427C156.12 117.2 158.18 116.204 159.192 114.203C159.233 114.12 159.27 114.038 159.308 113.953C158.258 115.79 156.306 116.666 154.842 115.934Z" fill="black"/>
<path opacity="0.1" d="M153.411 118.763C151.948 118.021 151.502 115.926 152.36 113.99C152.315 114.071 152.269 114.151 152.228 114.233C151.216 116.233 151.634 118.482 153.162 119.253C154.69 120.024 156.749 119.033 157.761 117.031C157.803 116.949 157.842 116.866 157.879 116.782C156.827 118.618 154.875 119.503 153.411 118.763Z" fill="black"/>
<path opacity="0.1" d="M192.744 99.6087C192.971 98.9574 193.11 98.2786 193.156 97.5905C193.308 97.5901 193.458 97.5586 193.596 97.4977C193.735 97.4369 193.86 97.3481 193.962 97.2369C194.065 97.1258 194.144 96.9946 194.194 96.8516C194.243 96.7086 194.263 96.5568 194.252 96.4059C194.24 96.2549 194.198 96.1079 194.127 95.9741C194.056 95.8403 193.958 95.7226 193.84 95.6283C193.721 95.534 193.585 95.4651 193.438 95.426C193.292 95.3869 193.139 95.3784 192.989 95.4011C192.744 94.2852 192.254 93.238 191.554 92.3355C190.853 91.4329 189.961 90.6977 188.941 90.1832C189.072 89.9224 189.095 89.62 189.004 89.3424C188.913 89.0648 188.715 88.8348 188.454 88.703C188.193 88.5713 187.891 88.5485 187.613 88.6397C187.336 88.731 187.106 88.9288 186.974 89.1896C186.926 89.2823 186.893 89.3817 186.875 89.4844C185.665 89.259 184.419 89.3257 183.241 89.6789C182.062 90.0321 180.985 90.6616 180.098 91.515C179.429 91.4067 178.749 91.3866 178.074 91.4552L177.181 95.5186L177.128 91.6016C176.103 91.8262 175.135 92.2573 174.283 92.8687C173.431 93.4801 172.712 94.2589 172.171 95.1574C171.63 96.0559 171.278 97.0554 171.136 98.0947C170.994 99.1339 171.066 100.191 171.347 101.202C171.627 102.212 172.111 103.155 172.769 103.972C173.426 104.79 174.243 105.464 175.17 105.955C176.097 106.446 177.115 106.742 178.16 106.827C179.206 106.911 180.257 106.781 181.251 106.445C181.357 106.637 181.519 106.792 181.715 106.89C181.917 106.993 182.145 107.031 182.369 106.998C182.593 106.966 182.802 106.866 182.967 106.711C183.132 106.556 183.245 106.354 183.291 106.132C183.337 105.91 183.314 105.68 183.224 105.472C183.575 105.23 183.906 104.96 184.213 104.664C185.823 104.925 187.474 104.671 188.93 103.936C190.385 103.202 191.571 102.025 192.317 100.576L188.163 99.8767L192.744 99.6087Z" fill="#D79922"/>
<g opacity="0.1">
<path opacity="0.1" d="M186.326 101.582C184.793 99.5572 183.853 97.1596 182.77 94.8589C182.336 93.9146 181.849 92.9951 181.313 92.1046L180.5 91.1584C180.364 91.2738 180.228 91.3934 180.088 91.5192C179.419 91.4109 178.738 91.3908 178.064 91.4594L177.171 95.5227L177.117 91.6057C176.093 91.8303 175.125 92.2615 174.273 92.8729C173.42 93.4842 172.702 94.263 172.161 95.1615C171.619 96.0601 171.267 97.0595 171.126 98.0988C170.984 99.1381 171.056 100.195 171.336 101.206C171.617 102.217 172.101 103.159 172.758 103.977C173.416 104.794 174.233 105.468 175.16 105.959C176.087 106.45 177.104 106.746 178.15 106.831C179.195 106.915 180.247 106.785 181.241 106.449C181.347 106.641 181.509 106.796 181.704 106.894C181.906 106.997 182.135 107.035 182.359 107.003C182.583 106.97 182.792 106.87 182.957 106.715C183.122 106.56 183.235 106.358 183.281 106.136C183.327 105.914 183.303 105.684 183.214 105.476C183.565 105.234 183.896 104.964 184.203 104.668C185.779 104.923 187.395 104.684 188.829 103.983C187.872 103.322 187.027 102.511 186.326 101.582Z" fill="black"/>
</g>
<path opacity="0.1" d="M159.165 92.8818C159.25 92.7138 159.291 92.5267 159.283 92.3385C159.275 92.1504 159.219 91.9674 159.12 91.8071C159.021 91.6468 158.883 91.5145 158.718 91.423C158.554 91.3314 158.368 91.2836 158.18 91.2841C157.867 89.6273 157.02 88.1188 155.768 86.9899C155.97 86.2028 156.046 85.3888 155.995 84.5778L151.944 83.8872L155.877 83.6398C155.806 83.2705 155.709 82.9067 155.586 82.5513C155.74 82.446 155.864 82.3043 155.949 82.139C156.048 81.9419 156.086 81.7197 156.058 81.5009C156.029 81.2821 155.936 81.0768 155.79 80.9117C155.644 80.7465 155.451 80.629 155.237 80.5744C155.024 80.5198 154.798 80.5305 154.591 80.6052C153.549 79.1331 152.024 78.0726 150.282 77.6078C148.539 77.1429 146.689 77.3033 145.053 78.0609C143.416 78.8185 142.097 80.1255 141.324 81.7549C140.551 83.3842 140.373 85.2328 140.821 86.9796C140.583 87.0802 140.388 87.2631 140.273 87.495C140.172 87.6946 140.134 87.9203 140.165 88.142C140.195 88.3638 140.292 88.571 140.443 88.736C140.594 88.901 140.792 89.0161 141.011 89.0658C141.229 89.1155 141.457 89.0976 141.665 89.0143C142.06 89.6784 142.553 90.2795 143.126 90.7976C142.709 92.4258 142.835 94.1459 143.485 95.6959L148.917 94.2858L144.073 96.8339C144.929 98.195 146.19 99.2544 147.678 99.8639C149.166 100.473 150.808 100.603 152.373 100.233C153.939 99.8638 155.349 99.0145 156.408 97.804C157.467 96.5935 158.121 95.0823 158.279 93.4818C158.465 93.4656 158.645 93.402 158.8 93.297C158.955 93.192 159.081 93.0491 159.165 92.8818Z" fill="#D79922"/>
<path opacity="0.1" d="M159.165 92.8818C159.25 92.7138 159.291 92.5267 159.283 92.3385C159.275 92.1504 159.219 91.9674 159.12 91.8071C159.021 91.6468 158.883 91.5145 158.718 91.423C158.554 91.3314 158.368 91.2836 158.18 91.2841C157.867 89.6273 157.02 88.1188 155.768 86.9899C155.801 86.86 155.83 86.7322 155.854 86.6023C155.711 86.7065 155.577 86.8246 155.457 86.9548C154.725 87.7568 154.35 88.835 153.626 89.6452C152.772 90.6017 151.494 91.1006 150.218 91.2346C148.942 91.3686 147.658 91.1728 146.398 90.9275C145.355 90.7213 144.297 90.4822 143.24 90.5832C143.137 90.5832 143.034 90.6059 142.939 90.6224C143.001 90.6821 143.062 90.7419 143.126 90.7996C142.709 92.4279 142.835 94.1479 143.485 95.6979L148.917 94.2858L144.073 96.8338C144.929 98.195 146.19 99.2544 147.678 99.8639C149.166 100.473 150.808 100.603 152.373 100.233C153.939 99.8638 155.349 99.0145 156.408 97.804C157.467 96.5935 158.121 95.0823 158.279 93.4817C158.465 93.4656 158.645 93.402 158.8 93.297C158.955 93.192 159.081 93.0491 159.165 92.8818Z" fill="black"/>
</g>
<g opacity="0.1">
<path opacity="0.1" d="M18.449 105.396C18.7129 104.594 19.7828 104.225 20.8383 104.571C20.9902 104.621 21.1371 104.684 21.2775 104.761C21.3455 104.742 21.4156 104.726 21.4836 104.713C21.4257 104.483 21.4034 104.245 21.4176 104.008C21.0553 103.763 20.7615 103.43 20.5642 103.039C20.3669 102.649 20.2725 102.215 20.29 101.778C19.9245 101.537 19.6298 101.203 19.4365 100.811C19.235 100.422 19.1404 99.9864 19.1623 99.5489C18.797 99.3072 18.5025 98.9728 18.3088 98.58C17.8017 97.574 18.0078 96.4422 18.7809 96.0505C19.554 95.6588 20.5889 96.1638 21.0981 97.1699C21.2992 97.5596 21.3931 97.9957 21.3702 98.4336C21.7335 98.6772 22.0281 99.0101 22.2256 99.4004C22.423 99.7907 22.5168 100.225 22.4979 100.662C22.8611 100.906 23.1555 101.24 23.3529 101.63C23.5504 102.021 23.6443 102.456 23.6256 102.893C23.9889 103.136 24.2834 103.469 24.4809 103.86C24.6784 104.25 24.7722 104.684 24.7533 105.121C25.1193 105.363 25.4145 105.697 25.6088 106.09C25.7015 106.28 25.7707 106.481 25.815 106.688C25.942 106.501 26.097 106.335 26.2747 106.195C26.2959 106.036 26.3318 105.88 26.3819 105.727C26.7303 104.672 27.6601 104.029 28.462 104.284C29.264 104.54 29.6309 105.618 29.2866 106.674C29.1443 107.127 28.871 107.528 28.5012 107.826C28.4798 107.984 28.4439 108.14 28.394 108.292C28.2248 108.852 27.8478 109.325 27.3405 109.616C27.3803 109.75 27.4092 109.888 27.4271 110.028C27.6399 110.232 27.8163 110.471 27.9487 110.735C28.0836 110.998 28.1715 111.283 28.2084 111.576C28.4221 111.78 28.5992 112.019 28.7321 112.283C28.8667 112.546 28.9546 112.831 28.9918 113.124C29.206 113.329 29.3831 113.569 29.5155 113.834C30.0247 114.84 29.8144 115.973 29.0454 116.361C28.2765 116.749 27.2374 116.25 26.7282 115.242C26.594 114.978 26.5061 114.694 26.4685 114.4C26.039 113.988 25.7626 113.442 25.6851 112.852C25.2556 112.44 24.9792 111.894 24.9017 111.304C24.6882 111.1 24.5111 110.861 24.378 110.597C24.2447 110.333 24.1569 110.049 24.1183 109.756C23.9054 109.551 23.7291 109.312 23.5967 109.049C23.4618 108.786 23.3739 108.501 23.337 108.208C23.2042 108.084 23.086 107.946 22.9844 107.795C22.5603 107.882 22.1207 107.855 21.7104 107.717C21.558 107.666 21.4104 107.602 21.2692 107.525C20.8107 107.647 20.3263 107.63 19.8776 107.476C18.8324 107.127 18.1872 106.197 18.449 105.396Z" fill="#3F3D56"/>
<g opacity="0.1">
<path opacity="0.1" d="M20.3106 102.235C20.4199 102.343 20.5401 102.439 20.6693 102.522C20.6518 102.818 20.691 103.114 20.7847 103.396C20.7019 103.283 20.6288 103.164 20.5662 103.039C20.4373 102.787 20.3509 102.515 20.3106 102.235Z" fill="black"/>
<path opacity="0.1" d="M19.1829 100.009C19.2928 100.115 19.4129 100.21 19.5416 100.293C19.5243 100.59 19.5635 100.887 19.6571 101.169C19.4073 100.826 19.2446 100.428 19.1829 100.009Z" fill="black"/>
<path opacity="0.1" d="M21.7454 99.1778C21.7552 99.0251 21.7497 98.8718 21.7289 98.7202C21.9305 98.9191 22.0983 99.1496 22.2258 99.4025C22.288 99.5274 22.3404 99.657 22.3825 99.7901C22.2107 99.5476 21.9945 99.3399 21.7454 99.1778Z" fill="black"/>
<path opacity="0.1" d="M28.8991 112.673C28.8089 112.546 28.7067 112.429 28.5939 112.322C28.5751 112.183 28.5448 112.045 28.5032 111.91C28.5927 112.031 28.672 112.159 28.7403 112.293C28.8029 112.416 28.8559 112.542 28.8991 112.673Z" fill="black"/>
<path opacity="0.1" d="M28.1095 111.125C28.0193 110.998 27.9172 110.881 27.8044 110.774C27.7875 110.634 27.7586 110.496 27.7178 110.362C27.8876 110.592 28.0185 110.848 28.1053 111.12L28.1095 111.125Z" fill="black"/>
<path opacity="0.1" d="M21.4403 104.47C21.5485 104.577 21.6681 104.671 21.797 104.752C21.7815 104.989 21.8038 105.227 21.8629 105.457C21.7934 105.47 21.7246 105.485 21.6568 105.505C21.5156 105.429 21.3679 105.365 21.2156 105.315C20.1601 104.969 19.0901 105.338 18.8283 106.14C18.7627 106.339 18.7506 106.553 18.7933 106.758C18.6236 106.58 18.503 106.361 18.4431 106.122C18.3831 105.883 18.3858 105.633 18.451 105.396C18.7149 104.594 19.7849 104.225 20.8404 104.571C20.9922 104.621 21.1392 104.684 21.2795 104.761C21.3475 104.742 21.4176 104.726 21.4857 104.713C21.4658 104.633 21.4507 104.552 21.4403 104.47Z" fill="black"/>
<path opacity="0.1" d="M29.2866 113.45C29.3766 113.572 29.4559 113.7 29.5237 113.836C29.5866 113.96 29.6397 114.09 29.6824 114.223C29.5923 114.096 29.4901 113.978 29.3773 113.871C29.359 113.728 29.3286 113.587 29.2866 113.45Z" fill="black"/>
<path opacity="0.1" d="M22.8731 101.41C22.8829 101.258 22.8774 101.104 22.8566 100.953C23.0586 101.151 23.2265 101.382 23.3534 101.635C23.4157 101.759 23.4681 101.888 23.5101 102.021C23.3383 101.779 23.1221 101.572 22.8731 101.41Z" fill="black"/>
<path opacity="0.1" d="M24.5038 110.502C24.5231 110.656 24.5569 110.808 24.6048 110.956C24.433 110.72 24.302 110.457 24.2172 110.178C24.3029 110.295 24.3988 110.403 24.5038 110.502Z" fill="black"/>
<path opacity="0.1" d="M26.0685 113.598C26.0893 113.752 26.1238 113.904 26.1716 114.052C26.0888 113.94 26.0157 113.82 25.9531 113.695C25.8853 113.563 25.8287 113.425 25.784 113.283C25.8704 113.396 25.9655 113.501 26.0685 113.598Z" fill="black"/>
<path opacity="0.1" d="M25.2872 112.05C25.3065 112.204 25.3403 112.356 25.3882 112.504C25.3061 112.391 25.233 112.272 25.1697 112.147C25.1016 112.015 25.0451 111.877 25.0006 111.735C25.0867 111.848 25.1826 111.954 25.2872 112.05Z" fill="black"/>
<path opacity="0.1" d="M23.7204 108.952C23.7395 109.106 23.7733 109.259 23.8214 109.407C23.7432 109.294 23.6743 109.175 23.6153 109.051C23.5461 108.919 23.4889 108.781 23.4442 108.638C23.5265 108.751 23.619 108.856 23.7204 108.952Z" fill="black"/>
<path opacity="0.1" d="M28.8475 105.037C28.0456 104.773 27.1158 105.416 26.7695 106.48C26.7193 106.632 26.6834 106.789 26.6623 106.948C26.484 107.087 26.3282 107.252 26.2005 107.438C26.1526 107.231 26.0799 107.031 25.984 106.841C25.949 106.771 25.9098 106.703 25.8686 106.634C25.9856 106.472 26.1243 106.326 26.2809 106.202C26.3021 106.043 26.3379 105.886 26.3881 105.734C26.7365 104.678 27.6662 104.035 28.4682 104.29C28.6982 104.379 28.9014 104.525 29.0582 104.715C29.2149 104.905 29.3199 105.132 29.3629 105.375C29.2228 105.22 29.0454 105.104 28.8475 105.037Z" fill="black"/>
<path opacity="0.1" d="M25.1285 105.868C25.1383 105.715 25.1327 105.562 25.112 105.41C25.314 105.609 25.4819 105.839 25.6088 106.092C25.671 106.217 25.7234 106.347 25.7655 106.48C25.5942 106.237 25.378 106.029 25.1285 105.868Z" fill="black"/>
<path opacity="0.1" d="M24.0008 103.637C24.0106 103.484 24.005 103.331 23.9843 103.179C24.1854 103.379 24.3531 103.609 24.4811 103.862C24.5434 103.987 24.5957 104.116 24.6378 104.249C24.466 104.007 24.2499 103.799 24.0008 103.637Z" fill="black"/>
<path opacity="0.1" d="M26.8519 115.147C26.8717 115.301 26.9062 115.454 26.955 115.602C26.8726 115.489 26.7995 115.369 26.7365 115.244C26.6687 115.111 26.6121 114.973 26.5674 114.831C26.6538 114.944 26.7489 115.049 26.8519 115.147Z" fill="black"/>
</g>
<path opacity="0.1" d="M16.909 95.0898C16.5435 94.8492 16.2488 94.5154 16.0555 94.1229C15.5463 93.1148 15.7566 91.983 16.5255 91.5934C17.2945 91.2037 18.3335 91.7047 18.8427 92.7128C19.0441 93.1016 19.1381 93.5372 19.1149 93.9745C19.478 94.2187 19.7725 94.552 19.9699 94.9426C20.1674 95.3331 20.2612 95.7678 20.2425 96.2051C20.6083 96.446 20.9035 96.7796 21.0981 97.172C21.16 97.2956 21.2123 97.4238 21.2548 97.5554C20.9817 97.1657 20.5885 96.876 20.1353 96.7308C20.0849 96.8918 20.0028 97.0412 19.8939 97.1701C19.785 97.2991 19.6516 97.4051 19.5013 97.4818C19.351 97.5586 19.1869 97.6047 19.0186 97.6173C18.8503 97.6299 18.6812 97.6089 18.5211 97.5554C18.3683 98.0067 18.3683 98.4957 18.5211 98.947C18.4437 98.8348 18.3748 98.717 18.315 98.5944C18.1135 98.2056 18.0189 97.7702 18.0408 97.3328C17.678 97.0881 17.3839 96.7547 17.1865 96.3643C16.9891 95.9738 16.895 95.5393 16.9131 95.1021L16.909 95.0898Z" fill="#3F3D56"/>
<path opacity="0.1" d="M4.51484 80.7949C4.20212 80.6487 3.89974 80.4813 3.60981 80.2939L6.96604 77.8406L3.0202 79.8713C2.2224 79.2369 1.56244 78.4464 1.0807 77.5482C0.598968 76.6499 0.305593 75.6628 0.218532 74.6473L6.92687 74.7174L0.204102 73.5918C0.261987 72.5662 0.530451 71.5635 0.992767 70.6462C1.45508 69.7289 2.10134 68.9166 2.89129 68.26C3.68123 67.6034 4.59793 67.1165 5.58428 66.8296C6.57062 66.5427 7.60547 66.462 8.62436 66.5926C9.64324 66.7231 10.6243 67.0621 11.5065 67.5883C12.3887 68.1146 13.153 68.8169 13.7519 69.6514C14.3508 70.486 14.7714 71.4349 14.9876 72.4392C15.2037 73.4434 15.2107 74.4813 15.0082 75.4884C15.4952 75.7137 15.9568 75.9901 16.3853 76.313L12.8807 81.1866L17.0883 76.9232C17.9762 77.7954 18.6327 78.8751 18.9984 80.0647C19.3641 81.2544 19.4275 82.5164 19.1829 83.7367C20.4557 84.3296 21.536 85.2687 22.3003 86.4466C23.0645 87.6246 23.4818 88.9938 23.5045 90.3978C23.5271 91.8017 23.1543 93.1837 22.4285 94.3857C21.7027 95.5877 20.6532 96.5612 19.4002 97.1949C18.1472 97.8285 16.7411 98.0968 15.3428 97.9689C13.9445 97.8411 12.6104 97.3223 11.4931 96.4719C10.3757 95.6215 9.52026 94.4739 9.02447 93.1602C8.52869 91.8465 8.41261 90.4198 8.68951 89.0432C7.17033 88.3352 5.93297 87.1375 5.17595 85.6421C4.41892 84.1467 4.18611 82.4404 4.51484 80.7969V80.7949Z" fill="#D79922"/>
<path opacity="0.1" d="M18.5232 78.8941C19.2835 80.3905 19.516 82.0999 19.1829 83.745C20.4557 84.3379 21.536 85.277 22.3002 86.4549C23.0645 87.6328 23.4818 89.0021 23.5045 90.406C23.5271 91.81 23.1542 93.192 22.4284 94.394C21.7026 95.596 20.6532 96.5695 19.4002 97.2031C18.1472 97.8368 16.7411 98.105 15.3428 97.9772C13.9445 97.8493 12.6104 97.3305 11.493 96.4802C10.3757 95.6298 9.52023 94.4821 9.02445 93.1684C8.52867 91.8547 8.41259 90.428 8.68949 89.0515C7.21959 88.3691 18.1459 78.1458 18.5232 78.8941Z" fill="black"/>
<path opacity="0.1" d="M10.0955 68.0668C10.7092 68.0668 11.2067 67.5693 11.2067 66.9556C11.2067 66.3419 10.7092 65.8444 10.0955 65.8444C9.48181 65.8444 8.98431 66.3419 8.98431 66.9556C8.98431 67.5693 9.48181 68.0668 10.0955 68.0668Z" fill="#D79922"/>
<path opacity="0.1" d="M3.60981 68.78C4.2235 68.78 4.721 68.2825 4.721 67.6689C4.721 67.0552 4.2235 66.5577 3.60981 66.5577C2.99612 66.5577 2.49863 67.0552 2.49863 67.6689C2.49863 68.2825 2.99612 68.78 3.60981 68.78Z" fill="#D79922"/>
<path opacity="0.1" d="M1.11118 78.756C1.72487 78.756 2.22237 78.2585 2.22237 77.6448C2.22237 77.0311 1.72487 76.5336 1.11118 76.5336C0.497494 76.5336 0 77.0311 0 77.6448C0 78.2585 0.497494 78.756 1.11118 78.756Z" fill="#D79922"/>
<path opacity="0.1" d="M4.48597 83.7388C5.09966 83.7388 5.59716 83.2413 5.59716 82.6276C5.59716 82.0139 5.09966 81.5164 4.48597 81.5164C3.87228 81.5164 3.37479 82.0139 3.37479 82.6276C3.37479 83.2413 3.87228 83.7388 4.48597 83.7388Z" fill="#D79922"/>
<path opacity="0.1" d="M9.09562 94.0858C9.70931 94.0858 10.2068 93.5883 10.2068 92.9746C10.2068 92.3609 9.70931 91.8634 9.09562 91.8634C8.48193 91.8634 7.98444 92.3609 7.98444 92.9746C7.98444 93.5883 8.48193 94.0858 9.09562 94.0858Z" fill="#D79922"/>
<path opacity="0.1" d="M9.09562 94.0858C9.70931 94.0858 10.2068 93.5883 10.2068 92.9746C10.2068 92.3609 9.70931 91.8634 9.09562 91.8634C8.48193 91.8634 7.98444 92.3609 7.98444 92.9746C7.98444 93.5883 8.48193 94.0858 9.09562 94.0858Z" fill="black"/>
<path opacity="0.1" d="M19.3478 82.3658C19.9615 82.3658 20.459 81.8683 20.459 81.2546C20.459 80.6409 19.9615 80.1434 19.3478 80.1434C18.7341 80.1434 18.2366 80.6409 18.2366 81.2546C18.2366 81.8683 18.7341 82.3658 19.3478 82.3658Z" fill="#D79922"/>
<path opacity="0.1" d="M19.3478 82.3658C19.9615 82.3658 20.459 81.8683 20.459 81.2546C20.459 80.6409 19.9615 80.1434 19.3478 80.1434C18.7341 80.1434 18.2366 80.6409 18.2366 81.2546C18.2366 81.8683 18.7341 82.3658 19.3478 82.3658Z" fill="black"/>
<path opacity="0.1" d="M20.5332 99.516C21.2713 99.1428 21.4939 98.0873 21.063 97.1122C21.0857 97.1534 21.1084 97.1926 21.129 97.2338C21.6382 98.2419 21.4279 99.3737 20.6569 99.7634C19.8859 100.153 18.851 99.652 18.3418 98.6439C18.3212 98.6027 18.3005 98.5615 18.282 98.5182C18.8118 99.4438 19.7952 99.8891 20.5332 99.516Z" fill="black"/>
<path opacity="0.1" d="M21.6279 101.685C22.366 101.312 22.5907 100.254 22.1598 99.2809C22.1825 99.3201 22.2052 99.3614 22.2258 99.4026C22.735 100.411 22.5247 101.542 21.7537 101.932C20.9827 102.322 19.9477 101.821 19.4385 100.813C19.4159 100.771 19.3973 100.728 19.3788 100.687C19.9086 101.617 20.894 102.058 21.6279 101.685Z" fill="black"/>
<path opacity="0.1" d="M22.7247 103.851C23.4627 103.478 23.6874 102.423 23.2545 101.448C23.2792 101.489 23.2998 101.528 23.3225 101.571C23.8317 102.577 23.6194 103.711 22.8504 104.099C22.0815 104.486 21.0445 103.987 20.5353 102.979C20.5126 102.938 20.494 102.897 20.4755 102.854C21.0033 103.779 21.9866 104.225 22.7247 103.851Z" fill="black"/>
<path opacity="0.1" d="M23.8214 106.02C24.5594 105.647 24.7842 104.592 24.3512 103.616C24.3739 103.656 24.3966 103.697 24.4172 103.738C24.9285 104.746 24.7161 105.878 23.9472 106.268C23.1782 106.657 22.1392 106.156 21.63 105.148C21.6093 105.107 21.5908 105.064 21.5722 105.022C22.1 105.946 23.0834 106.393 23.8214 106.02Z" fill="black"/>
<path opacity="0.1" d="M24.9182 108.187C25.6562 107.814 25.8789 106.758 25.448 105.785C25.4707 105.824 25.4933 105.866 25.514 105.907C26.0232 106.915 25.8129 108.047 25.0439 108.436C24.275 108.826 23.2359 108.323 22.7267 107.317C22.7061 107.274 22.6875 107.232 22.6669 107.191C23.1968 108.115 24.1801 108.56 24.9182 108.187Z" fill="black"/>
<path opacity="0.1" d="M26.0149 110.356C26.7529 109.983 26.9756 108.927 26.5447 107.952C26.5674 107.993 26.5901 108.032 26.6107 108.074C27.1199 109.082 26.9096 110.213 26.1407 110.603C25.3717 110.993 24.3327 110.492 23.8235 109.484C23.8028 109.442 23.7822 109.401 23.7637 109.358C24.2935 110.275 25.2769 110.729 26.0149 110.356Z" fill="black"/>
<path opacity="0.1" d="M27.1117 112.524C27.8477 112.151 28.0724 111.094 27.6415 110.121C27.6642 110.16 27.6869 110.201 27.7075 110.242C28.2167 111.25 28.0064 112.382 27.2354 112.772C26.4643 113.161 25.4294 112.658 24.9202 111.652C24.8996 111.609 24.879 111.568 24.8604 111.527C25.3903 112.45 26.3736 112.898 27.1117 112.524Z" fill="black"/>
<path opacity="0.1" d="M28.2064 114.691C28.9444 114.318 29.1691 113.262 28.7362 112.287C28.7609 112.329 28.7815 112.368 28.8042 112.411C29.3134 113.417 29.1011 114.551 28.3321 114.939C27.5631 115.326 26.5262 114.827 26.017 113.819C25.9943 113.778 25.9757 113.737 25.9572 113.693C26.487 114.619 27.4683 115.064 28.2064 114.691Z" fill="black"/>
<path opacity="0.1" d="M28.9341 116.116C29.6721 115.743 29.8948 114.687 29.4639 113.712C29.4866 113.753 29.5093 113.792 29.5299 113.836C30.0391 114.842 29.8288 115.975 29.0598 116.363C28.2909 116.751 27.2519 116.252 26.7426 115.244C26.722 115.202 26.7014 115.161 26.6829 115.118C27.2065 116.048 28.1899 116.489 28.9341 116.116Z" fill="black"/>
<path opacity="0.1" d="M9.1142 106.468C8.9997 106.14 8.93035 105.798 8.90804 105.451C8.83181 105.451 8.75646 105.435 8.68668 105.404C8.6169 105.374 8.5542 105.329 8.5025 105.273C8.45079 105.217 8.41119 105.151 8.38617 105.079C8.36114 105.007 8.35123 104.93 8.35706 104.854C8.36288 104.778 8.38432 104.704 8.42002 104.637C8.45572 104.57 8.50493 104.51 8.56457 104.463C8.62421 104.415 8.69299 104.381 8.76663 104.361C8.84027 104.341 8.91719 104.337 8.99257 104.348C9.11627 103.786 9.36338 103.259 9.71602 102.804C10.0687 102.35 10.518 101.979 11.0315 101.72C10.965 101.588 10.9536 101.436 10.9996 101.296C11.0456 101.156 11.1453 101.04 11.2768 100.973C11.4083 100.907 11.5608 100.896 11.7007 100.942C11.8407 100.988 11.9566 101.087 12.0231 101.219C12.0472 101.265 12.0639 101.315 12.0726 101.367C12.6826 101.255 13.3105 101.29 13.9042 101.47C14.498 101.649 15.0404 101.967 15.4865 102.398C15.8273 102.342 16.174 102.333 16.5173 102.369L16.9667 104.414L16.977 102.441C17.4882 102.559 17.9701 102.78 18.3938 103.089C18.8174 103.399 19.1741 103.791 19.4422 104.242C19.7102 104.693 19.8842 105.193 19.9537 105.713C20.0231 106.233 19.9865 106.762 19.8461 107.268C19.7057 107.773 19.4644 108.245 19.1367 108.655C18.809 109.064 18.4018 109.403 17.9395 109.652C17.4773 109.9 16.9695 110.052 16.447 110.098C15.9244 110.145 15.3978 110.085 14.899 109.923C14.8447 110.019 14.7638 110.097 14.666 110.147C14.5641 110.199 14.4489 110.218 14.3359 110.202C14.2229 110.185 14.1177 110.135 14.0344 110.057C13.9512 109.978 13.8939 109.877 13.8705 109.765C13.847 109.653 13.8584 109.537 13.9032 109.432C13.7265 109.309 13.5603 109.171 13.4064 109.02C12.5955 109.151 11.7638 109.022 11.0305 108.652C10.2973 108.282 9.70005 107.689 9.32448 106.958L11.417 106.606L9.1142 106.468Z" fill="#D79922"/>
<g opacity="0.1">
<path opacity="0.1" d="M12.3467 107.461C13.1198 106.43 13.594 105.235 14.1382 104.076C14.3562 103.599 14.6012 103.135 14.8721 102.687L15.2845 102.21C15.3546 102.27 15.4226 102.33 15.4906 102.392C15.8314 102.336 16.1781 102.326 16.5214 102.363L16.9708 104.408L16.977 102.441C17.4882 102.56 17.9701 102.78 18.3938 103.089C18.8174 103.399 19.1741 103.791 19.4421 104.242C19.7102 104.693 19.8842 105.193 19.9536 105.713C20.0231 106.233 19.9865 106.762 19.8461 107.268C19.7056 107.773 19.4643 108.245 19.1367 108.655C18.809 109.064 18.4018 109.403 17.9395 109.652C17.4772 109.9 16.9695 110.052 16.447 110.098C15.9244 110.145 15.3978 110.085 14.8989 109.923C14.8447 110.019 14.7638 110.097 14.666 110.147C14.5641 110.199 14.4489 110.218 14.3359 110.202C14.2229 110.185 14.1177 110.135 14.0344 110.057C13.9511 109.979 13.8939 109.877 13.8704 109.765C13.847 109.653 13.8584 109.537 13.9032 109.432C13.7264 109.309 13.5603 109.171 13.4064 109.02C12.6122 109.147 11.7982 109.027 11.0747 108.676C11.5613 108.342 11.9908 107.932 12.3467 107.461Z" fill="black"/>
</g>
<path opacity="0.1" d="M26.0293 103.078C25.9964 103.013 25.9765 102.943 25.971 102.87C25.9655 102.797 25.9744 102.724 25.9972 102.655C26.02 102.586 26.0563 102.522 26.1039 102.467C26.1515 102.412 26.2095 102.367 26.2747 102.334C26.3525 102.294 26.4387 102.274 26.5262 102.274C26.6834 101.439 27.1099 100.679 27.7404 100.11C27.6385 99.7135 27.6002 99.3036 27.627 98.8954L29.6659 98.5532L27.6848 98.4275C27.7207 98.2413 27.7703 98.058 27.8332 97.8791C27.7553 97.8273 27.6922 97.7563 27.6497 97.6729C27.6001 97.5736 27.5814 97.4617 27.5959 97.3517C27.6104 97.2416 27.6574 97.1385 27.731 97.0553C27.8046 96.9722 27.9013 96.913 28.0088 96.8853C28.1163 96.8576 28.2296 96.8627 28.3342 96.8998C28.6983 96.3818 29.1848 95.9619 29.7505 95.6773C30.4167 95.3392 31.1663 95.2005 31.9094 95.2777C32.6526 95.3549 33.3576 95.6448 33.9401 96.1126C34.5227 96.5805 34.9579 97.2064 35.1936 97.9153C35.4294 98.6243 35.4556 99.3862 35.2693 100.11C35.3662 100.151 35.4492 100.22 35.5087 100.307C35.5682 100.394 35.6016 100.496 35.6051 100.601C35.6085 100.707 35.5819 100.811 35.5282 100.902C35.4746 100.992 35.3962 101.066 35.3023 101.114C35.2318 101.149 35.1546 101.17 35.0756 101.173C34.9967 101.177 34.918 101.164 34.8446 101.134C34.6456 101.468 34.3975 101.769 34.1086 102.029C34.3199 102.851 34.2569 103.72 33.9293 104.503L31.2018 103.785L33.6406 105.07C33.2745 105.654 32.7595 106.131 32.1485 106.45C31.5376 106.77 30.8526 106.921 30.1638 106.889C29.475 106.857 28.8072 106.642 28.2288 106.266C27.6505 105.891 27.1824 105.368 26.8725 104.752C26.6568 104.324 26.5213 103.859 26.4726 103.381C26.379 103.373 26.2891 103.341 26.2115 103.288C26.1339 103.235 26.0712 103.163 26.0293 103.078Z" fill="#D79922"/>
<path opacity="0.1" d="M26.0293 103.078C25.9964 103.013 25.9765 102.943 25.971 102.87C25.9655 102.797 25.9744 102.724 25.9972 102.655C26.02 102.586 26.0563 102.522 26.1039 102.467C26.1515 102.412 26.2095 102.367 26.2747 102.334C26.3525 102.294 26.4387 102.274 26.5262 102.274C26.6834 101.439 27.1099 100.679 27.7404 100.11C27.7239 100.046 27.7095 99.9798 27.6971 99.9159C27.7711 99.9686 27.8401 100.028 27.9033 100.093C28.2723 100.505 28.462 101.039 28.8248 101.448C29.2794 101.917 29.8907 102.202 30.5421 102.25C31.1874 102.294 31.8357 102.242 32.4655 102.095C32.985 101.961 33.5209 101.902 34.0571 101.92L34.2096 101.94L34.1148 102.029C34.3261 102.851 34.2631 103.72 33.9354 104.503L31.2018 103.785L33.6406 105.07C33.2745 105.654 32.7595 106.131 32.1485 106.45C31.5376 106.77 30.8526 106.921 30.1638 106.889C29.475 106.857 28.8072 106.642 28.2288 106.266C27.6505 105.891 27.1824 105.368 26.8725 104.752C26.6568 104.324 26.5213 103.859 26.4726 103.381C26.379 103.373 26.2891 103.341 26.2115 103.288C26.1339 103.235 26.0712 103.162 26.0293 103.078Z" fill="black"/>
</g>
<path opacity="0.1" d="M71.4024 10.7016C70.5873 10.5469 69.7447 10.6388 68.9821 10.9655C68.5247 11.1693 68.0295 11.2747 67.5287 11.2747C67.0279 11.2747 66.5327 11.1693 66.0753 10.9655C65.5346 10.7285 64.949 10.6118 64.3588 10.6236C63.7686 10.6353 63.188 10.7752 62.6572 11.0335C62.3541 11.1936 62.0166 11.2778 61.6738 11.2789C60.2885 11.2789 59.1361 9.88317 58.8969 8.04219C59.1731 7.83971 59.4082 7.58643 59.5896 7.29591C60.4019 5.98681 61.6512 5.14569 63.0716 5.14569C64.492 5.14569 65.7289 5.97032 66.5412 7.27117C66.7839 7.66183 67.123 7.98347 67.5259 8.20515C67.9288 8.42684 68.382 8.54111 68.8419 8.53697H68.879C69.9717 8.53078 70.9262 9.4152 71.4024 10.7016Z" fill="#D79922"/>
<path opacity="0.1" d="M75.6121 4.92921L73.3732 6.34963L74.7318 3.87575C74.3466 3.56875 73.8699 3.39899 73.3774 3.39334H73.3423C73.187 3.39524 73.0318 3.38351 72.8785 3.35829L72.1178 3.8407L72.4435 3.24903C71.9074 3.06247 71.4432 2.71285 71.1158 2.24917L69.7531 3.1006L70.6107 1.53999C69.817 0.585484 68.745 0 67.5679 0C66.1557 0 64.8878 0.841119 64.0838 2.15021C63.8433 2.54123 63.5035 2.86163 63.0991 3.07888C62.6946 3.29613 62.2399 3.40248 61.7811 3.38715H61.713C60.1545 3.38715 58.8887 5.15392 58.8887 7.33712C58.8887 9.52032 60.1545 11.285 61.713 11.285C62.0558 11.284 62.3933 11.1998 62.6964 11.0397C63.2272 10.7812 63.8079 10.6413 64.3982 10.63C64.9884 10.6186 65.5741 10.7359 66.1145 10.9737C66.5721 11.1769 67.0672 11.2819 67.5679 11.2819C68.0686 11.2819 68.5637 11.1769 69.0213 10.9737C69.5575 10.7409 70.1376 10.6263 70.722 10.6377C71.3065 10.6491 71.8817 10.7862 72.4084 11.0397C72.7092 11.1955 73.0428 11.2775 73.3815 11.2788C74.9421 11.2788 76.2058 9.51207 76.2058 7.33093C76.2113 6.49337 76.0072 5.66774 75.6121 4.92921Z" fill="#D79922"/>
<path opacity="0.1" d="M24.811 39.2625C23.6468 39.0423 22.4435 39.1729 21.3537 39.6377C20.6997 39.9277 19.992 40.0766 19.2766 40.0748C18.5613 40.073 17.8543 39.9206 17.2017 39.6274C16.4296 39.2889 15.5931 39.1222 14.7502 39.139C13.9073 39.1557 13.078 39.3554 12.3199 39.7243C11.8864 39.9527 11.404 40.073 10.914 40.0748C8.93485 40.0748 7.28765 38.0813 6.94543 35.4507C7.34091 35.1625 7.67693 34.8006 7.93499 34.3849C9.09565 32.515 10.8933 31.3131 12.9116 31.3131C14.9299 31.3131 16.7049 32.5006 17.8594 34.3498C18.2063 34.9103 18.6925 35.3714 19.2705 35.6882C19.8486 36.0051 20.4988 36.1668 21.1579 36.1578H21.2094C22.7721 36.1558 24.1368 37.4195 24.811 39.2625Z" fill="#D79922"/>
<path opacity="0.1" d="M30.8307 31.006L27.6312 33.0345L29.5732 29.5031C29.0228 29.0637 28.3415 28.8207 27.6374 28.8124H27.5858C27.3635 28.8157 27.1414 28.7991 26.922 28.763L25.8417 29.4618L26.3077 28.6166C25.5389 28.348 24.8749 27.8428 24.411 27.1735L22.469 28.4104L23.6915 26.1633C22.5556 24.8006 21.0259 23.9657 19.3437 23.9657C17.3254 23.9657 15.5277 25.1655 14.3671 27.0354C14.0233 27.5965 13.5369 28.0564 12.9574 28.3682C12.378 28.68 11.7262 28.8326 11.0686 28.8104H10.9593C8.73074 28.8104 6.9248 31.3358 6.9248 34.4529C6.9248 37.57 8.73074 40.0954 10.9593 40.0954C11.4497 40.0941 11.9323 39.9731 12.3653 39.7429C13.1235 39.3743 13.9528 39.1749 14.7957 39.1585C15.6387 39.1422 16.4751 39.3092 17.2471 39.648C17.8996 39.9412 18.6066 40.0936 19.322 40.0954C20.0373 40.0972 20.7451 39.9483 21.3991 39.6583C22.1654 39.3258 22.9942 39.1619 23.8294 39.1779C24.6647 39.1939 25.4866 39.3894 26.2396 39.7511C26.6685 39.9756 27.1451 40.0937 27.6291 40.0954C29.8577 40.0954 31.6636 37.5679 31.6636 34.4529C31.6792 33.2523 31.3928 32.067 30.8307 31.006Z" fill="#D79922"/>
<path opacity="0.1" d="M154.199 18.7417C155.014 18.5871 155.857 18.679 156.619 19.0056C157.076 19.2095 157.571 19.3149 158.072 19.3149C158.572 19.3149 159.067 19.2095 159.524 19.0056C160.065 18.7686 160.65 18.6519 161.241 18.6637C161.831 18.6754 162.411 18.8153 162.942 19.0736C163.245 19.2335 163.583 19.3177 163.926 19.3189C165.311 19.3189 166.465 17.9233 166.705 16.0823C166.428 15.8803 166.193 15.627 166.012 15.336C165.204 14.0228 163.94 13.1755 162.524 13.1755C161.107 13.1755 159.868 14.0001 159.056 15.301C158.814 15.6934 158.474 16.0166 158.071 16.2394C157.667 16.4623 157.212 16.5771 156.751 16.5729H156.716C155.619 16.5709 154.663 17.4553 154.199 18.7417Z" fill="#D79922"/>
<path opacity="0.1" d="M149.977 12.9693L152.216 14.3856L150.855 11.9117C151.241 11.605 151.717 11.4353 152.21 11.4293H152.247C152.402 11.4311 152.557 11.4194 152.711 11.3943L153.469 11.8767L153.143 11.285C153.683 11.1016 154.152 10.7533 154.484 10.2893L155.842 11.151L154.982 9.59041C155.778 8.6359 156.838 8.05042 158.027 8.05042C159.44 8.05042 160.707 8.89153 161.511 10.2006C161.752 10.5918 162.092 10.9123 162.496 11.1296C162.9 11.3468 163.355 11.4531 163.814 11.4376H163.888C165.449 11.4376 166.713 13.2043 166.713 15.3875C166.713 17.5707 165.449 19.3354 163.888 19.3354C163.546 19.3339 163.208 19.2498 162.905 19.0901C162.374 18.8316 161.794 18.6918 161.203 18.6804C160.613 18.669 160.027 18.7863 159.487 19.0241C159.03 19.2273 158.535 19.3323 158.035 19.3323C157.534 19.3323 157.039 19.2273 156.582 19.0241C156.046 18.7913 155.465 18.6767 154.88 18.688C154.296 18.6994 153.72 18.8366 153.193 19.0901C152.892 19.2462 152.559 19.3281 152.22 19.3293C150.661 19.3293 149.396 17.5625 149.396 15.3813C149.385 14.5414 149.584 13.712 149.977 12.9693Z" fill="#D79922"/>
<path opacity="0.1" d="M126.916 160.159C140.01 160.159 150.624 158.313 150.624 156.036C150.624 153.759 140.01 151.913 126.916 151.913C113.823 151.913 103.208 153.759 103.208 156.036C103.208 158.313 113.823 160.159 126.916 160.159Z" fill="#D79922"/>
<path d="M114.508 136.451L77.7726 135.979L77.8819 135.037L79.6569 119.495H111.918L114.291 135.037L114.473 136.216L114.508 136.451Z" fill="#D0D2D5"/>
<path opacity="0.1" d="M114.473 136.216H96.1412L77.7726 135.979L77.8819 135.037H114.291L114.473 136.216Z" fill="black"/>
<path d="M120.396 135.274H71.6498V136.451H120.396V135.274Z" fill="#D0D2D5"/>
<path d="M166.902 26.1468C166.905 25.3345 166.585 24.5543 166.013 23.9776C165.441 23.4009 164.664 23.0748 163.851 23.071H27.7219C27.3193 23.0729 26.9211 23.154 26.5499 23.3098C26.1786 23.4657 25.8418 23.6931 25.5584 23.9791C25.2751 24.2651 25.0509 24.6041 24.8986 24.9767C24.7463 25.3494 24.6689 25.7484 24.6708 26.151V108.665H166.902V26.1468Z" fill="#3F3D56"/>
<path d="M24.6707 107.841V117.505C24.6707 118.314 24.9922 119.09 25.5644 119.663C26.1366 120.235 26.9127 120.556 27.7219 120.556H163.851C164.66 120.556 165.437 120.235 166.009 119.663C166.581 119.09 166.902 118.314 166.902 117.505V107.841H24.6707Z" fill="#D0D2D5"/>
<path d="M161.722 28.2455H30.5586V102.423H161.722V28.2455Z" fill="white"/>
<path d="M96.4937 116.889C96.9753 116.889 97.4508 116.78 97.884 116.57C98.3173 116.36 98.697 116.053 98.9944 115.675C99.0848 115.559 99.1674 115.438 99.2418 115.312L97.4956 115.017L99.382 115.029C99.5628 114.636 99.6614 114.21 99.6717 113.777C99.682 113.344 99.6037 112.914 99.4418 112.512L96.9122 113.823L99.2459 112.108C99.0267 111.731 98.7325 111.404 98.3813 111.145C98.0302 110.887 97.6297 110.704 97.2048 110.607C96.7798 110.51 96.3395 110.502 95.9112 110.582C95.4828 110.663 95.0756 110.83 94.7148 111.075C94.354 111.319 94.0473 111.636 93.8139 112.004C93.5804 112.372 93.4251 112.784 93.3576 113.214C93.2901 113.645 93.3118 114.085 93.4215 114.507C93.5312 114.928 93.7264 115.323 93.9951 115.666C94.2915 116.046 94.6705 116.354 95.1034 116.566C95.5363 116.778 96.0118 116.888 96.4937 116.889Z" fill="#D79922"/>
<path opacity="0.1" d="M99.6726 120.554L114.328 135.274L112.079 120.554H99.6726Z" fill="black"/>
<path opacity="0.1" d="M161.761 28.2538H30.4555V32.5872H161.761V28.2538Z" fill="#444053"/>
<path opacity="0.3" d="M115.487 29.0083H76.1646C76.0986 29.0083 76.045 29.0619 76.045 29.1279V31.5255C76.045 31.5915 76.0986 31.6451 76.1646 31.6451H115.487C115.553 31.6451 115.607 31.5915 115.607 31.5255V29.1279C115.607 29.0619 115.553 29.0083 115.487 29.0083Z" fill="#D79922"/>
<path d="M114.431 30.5998H114.334L114.299 30.5689C114.419 30.4248 114.485 30.2431 114.485 30.0556C114.484 29.9016 114.437 29.7515 114.35 29.6241C114.264 29.4968 114.142 29.3978 113.999 29.3399C113.857 29.2819 113.7 29.2675 113.549 29.2984C113.398 29.3293 113.26 29.4042 113.152 29.5137C113.044 29.6231 112.97 29.7621 112.941 29.9133C112.911 30.0644 112.927 30.2208 112.987 30.3628C113.046 30.5048 113.147 30.626 113.275 30.7111C113.403 30.7962 113.554 30.8414 113.708 30.841C113.896 30.8404 114.077 30.774 114.221 30.6534L114.256 30.6844V30.7813L114.86 31.3853L115.04 31.2039L114.431 30.5998ZM113.708 30.5998C113.6 30.6002 113.495 30.5687 113.405 30.5091C113.315 30.4496 113.245 30.3647 113.203 30.2653C113.162 30.1659 113.151 30.0564 113.172 29.9507C113.192 29.845 113.244 29.7478 113.32 29.6715C113.396 29.5952 113.493 29.5431 113.599 29.5219C113.704 29.5008 113.814 29.5114 113.913 29.5526C114.013 29.5937 114.098 29.6635 114.158 29.753C114.218 29.8425 114.25 29.9479 114.25 30.0556C114.251 30.127 114.237 30.1979 114.21 30.264C114.183 30.3302 114.143 30.3903 114.093 30.4409C114.042 30.4915 113.982 30.5317 113.916 30.5589C113.85 30.5862 113.779 30.6001 113.708 30.5998Z" fill="#3F3D56"/>
<path opacity="0.8" d="M32.816 31.2142C33.2544 31.2142 33.6097 30.8588 33.6097 30.4205C33.6097 29.9821 33.2544 29.6268 32.816 29.6268C32.3777 29.6268 32.0223 29.9821 32.0223 30.4205C32.0223 30.8588 32.3777 31.2142 32.816 31.2142Z" fill="#FA5959"/>
<path opacity="0.8" d="M34.9992 31.2142C35.4376 31.2142 35.7929 30.8588 35.7929 30.4205C35.7929 29.9821 35.4376 29.6268 34.9992 29.6268C34.5609 29.6268 34.2055 29.9821 34.2055 30.4205C34.2055 30.8588 34.5609 31.2142 34.9992 31.2142Z" fill="#FED253"/>
<path opacity="0.8" d="M37.1845 31.2142C37.6228 31.2142 37.9782 30.8588 37.9782 30.4205C37.9782 29.9821 37.6228 29.6268 37.1845 29.6268C36.7461 29.6268 36.3908 29.9821 36.3908 30.4205C36.3908 30.8588 36.7461 31.2142 37.1845 31.2142Z" fill="#8CCF4D"/>
<path d="M103.089 60.0741C101.289 57.6826 98.681 56.1736 95.7783 56.1736C92.8756 56.1736 90.2678 57.6826 88.468 60.0741C88.8659 61.05 89.4546 61.9366 90.1997 62.682C91.1205 63.6023 92.2547 64.2805 93.5012 64.6563C94.7476 65.032 96.0677 65.0935 97.3437 64.8353C98.6197 64.5771 99.8121 64.0073 100.814 63.1765C101.817 62.3458 102.598 61.28 103.089 60.0741Z" fill="#D79922"/>
<path d="M87.1548 61.2677C87.2678 61.3496 87.3895 61.4188 87.5176 61.4739C88.8989 64.2673 91.7604 66.4051 95.0444 66.5845V79.8301C92.5602 79.6816 90.5708 78.4303 88.8989 76.478C88.7546 76.5872 88.6474 76.6862 88.5484 76.7789C88.4096 76.9104 88.3126 77.0799 88.2697 77.2662C88.2268 77.4525 88.2399 77.6473 88.3072 77.8262C88.3979 78.0726 88.4215 78.3387 88.3754 78.5972C88.3294 78.8557 88.2154 79.0973 88.0452 79.2972C87.875 79.4971 87.6547 79.6481 87.4068 79.7348C87.159 79.8215 86.8925 79.8407 86.6348 79.7904C86.3771 79.7402 86.1374 79.6223 85.9403 79.4488C85.7432 79.2754 85.5958 79.0526 85.5132 78.8034C85.4305 78.5542 85.4157 78.2875 85.4701 78.0306C85.5246 77.7738 85.6464 77.536 85.823 77.3418C85.8761 77.2834 85.9341 77.2296 85.9962 77.181C86.0319 77.1483 86.0714 77.1199 86.1137 77.0964C86.3405 76.2759 86.8786 75.5358 87.7527 74.8576C86.7689 73.1763 86.1671 71.2992 85.99 69.3594C85.8625 69.3606 85.7352 69.3688 85.6086 69.3841C85.4367 69.4072 85.2744 69.4771 85.1395 69.5862C85.0047 69.6952 84.9023 69.8393 84.8438 70.0026C84.7486 70.2558 84.586 70.4781 84.3734 70.6455C84.1609 70.8129 83.9067 70.9189 83.6382 70.9521C83.3697 70.9853 83.0973 70.9444 82.8504 70.8338C82.6036 70.7232 82.3916 70.5472 82.2377 70.3248C82.0837 70.1024 81.9935 69.8421 81.9769 69.5721C81.9602 69.3021 82.0178 69.0327 82.1434 68.7931C82.2689 68.5535 82.4576 68.3528 82.6891 68.2128C82.9205 68.0727 83.1859 67.9987 83.4564 67.9987C83.5163 67.9998 83.5762 68.0039 83.6357 68.0111C83.8572 67.8518 84.1029 67.7292 84.3634 67.6483C84.8723 67.4891 85.4013 67.4037 85.9344 67.3947C85.9869 66.0194 86.2469 64.6599 86.7054 63.3623C86.3723 63.1729 86.0582 62.952 85.7674 62.7026C85.4839 62.4494 85.2516 62.1443 85.0829 61.8037C84.9936 61.6316 84.857 61.4886 84.6892 61.3914C84.56 61.3137 84.4421 61.2187 84.3387 61.109C84.1555 60.9114 84.0296 60.6675 83.9748 60.4037C83.9199 60.1399 83.9381 59.8661 84.0274 59.6118C84.1167 59.3576 84.2738 59.1325 84.4816 58.961C84.6894 58.7894 84.9401 58.6778 85.2066 58.6382C85.4732 58.5987 85.7455 58.6326 85.9941 58.7364C86.2428 58.8402 86.4585 59.0099 86.6178 59.2273C86.7771 59.4446 86.8741 59.7013 86.8982 59.9697C86.9224 60.2381 86.8728 60.508 86.7549 60.7503C86.8472 60.9509 86.984 61.1278 87.1548 61.2677Z" fill="#D79922"/>
<path d="M140.393 153.632C140.273 153.442 140.122 153.274 139.945 153.135C139.044 152.284 138.626 151.035 138.403 149.81C138.181 148.585 138.117 147.336 137.76 146.138C137.566 145.524 137.323 144.926 137.034 144.351C136.828 143.91 136.569 143.046 136.191 142.737C136.117 142.673 136.028 142.629 135.931 142.611C135.753 142.232 135.499 141.894 135.185 141.617C134.596 141.083 133.876 140.659 133.482 139.968C133.374 139.729 133.241 139.501 133.084 139.29C132.819 138.997 132.398 138.877 132.153 138.568C131.833 138.168 131.905 137.595 131.946 137.086C131.988 136.577 131.946 135.967 131.505 135.699C131.241 135.536 130.901 135.552 130.627 135.408C130.215 135.202 130.052 134.682 130.06 134.218C130.068 133.755 130.213 133.303 130.25 132.839C130.365 131.363 129.392 129.895 129.767 128.465C129.91 127.922 130.235 127.452 130.477 126.947C130.561 126.779 130.63 126.604 130.683 126.424C131.326 126.679 132.002 126.842 132.691 126.908C131.555 124.36 131.843 121.4 131.314 118.662L131.382 118.569C131.917 117.863 132.221 117.009 132.252 116.124C132.252 115.106 131.775 114.153 131.561 113.155C131.377 112.308 131.386 111.422 131.149 110.589C130.984 110.071 130.766 109.572 130.497 109.1C130.24 108.623 129.97 108.154 129.687 107.692C129.423 106.818 129.159 105.944 128.893 105.07C128.522 103.843 128.141 102.596 127.419 101.536C127.155 101.149 127.075 100.361 126.669 100.126C126.339 99.9556 125.965 99.8901 125.597 99.9386C125.024 99.617 124.521 99.1532 124.449 98.5182C124.441 98.3795 124.455 98.2404 124.49 98.1059H124.56C125.467 98.0234 125.927 97.2235 126.399 96.5226C127.162 95.3887 126.871 93.8549 126.399 92.5644C126.282 92.1571 126.07 91.7833 125.78 91.4738C125.119 90.8553 124.071 90.9914 123.218 90.6925C122.931 90.5935 122.663 90.443 122.371 90.3729C121.804 90.241 121.21 90.4265 120.69 90.6884C120.171 90.9502 119.686 91.2883 119.142 91.4944C118.598 91.7006 117.926 91.8635 117.792 92.4221C117.754 92.6103 117.77 92.8052 117.837 92.9849C117.962 93.3434 118.183 93.6612 118.474 93.9044C118.242 94.3822 118.117 94.9046 118.107 95.4355C118.096 95.9664 118.201 96.4932 118.414 96.9797C118.628 97.4661 118.944 97.9005 119.341 98.253C119.738 98.6054 120.207 98.8675 120.715 99.0212C120.872 99.2727 121.018 99.5284 121.152 99.7902C121.391 100.252 121.593 100.796 121.511 101.291C121.362 101.449 121.224 101.618 121.099 101.796C120.507 102.621 120.171 103.588 119.862 104.552C119.446 105.784 119.114 107.043 118.866 108.319C118.363 109.389 117.748 110.411 117.384 111.535C116.73 111.536 116.08 111.448 115.45 111.275L113.71 110.881C113.104 110.743 112.473 110.595 111.999 110.195C111.747 109.989 111.551 109.715 111.296 109.51C111.04 109.306 110.527 109.067 110.246 109.236C110.195 109.267 110.147 109.304 110.104 109.346C109.849 108.828 109.605 108.315 109.308 107.814C108.882 107.113 108.247 106.472 107.443 106.338C106.951 106.259 106.449 106.376 106.043 106.663C105.573 106.997 105.278 107.694 105.631 108.164C105.719 108.269 105.814 108.367 105.917 108.457C106.156 108.732 106.369 109.028 106.554 109.341C107.219 110.274 108.213 110.92 109.335 111.147L109.263 111.354C109.117 111.782 108.805 112.3 108.884 112.745L116.623 115.394C117.119 115.596 117.646 115.712 118.181 115.738C118.39 115.737 118.598 115.709 118.8 115.656V116.052V116.068C118.82 118.788 118.388 121.488 118.307 124.205C118.293 124.702 118.307 125.236 118.621 125.624C118.971 126.048 119.594 126.133 120.136 126.036C120.266 126.014 120.394 125.985 120.519 125.949C120.703 126.633 120.835 127.33 120.915 128.034L121.426 131.716C121.492 132.093 121.519 132.475 121.507 132.858C121.447 133.722 120.991 134.495 120.661 135.292C120.332 136.09 120.136 137.045 120.569 137.791C120.705 138.022 120.892 138.218 121.014 138.457C121.169 138.827 121.239 139.227 121.22 139.628C121.252 140.738 121.282 141.85 121.311 142.964C121.221 142.949 121.129 142.967 121.051 143.015C120.622 143.349 120.67 144.939 120.639 145.431C120.606 146.256 120.639 147.097 120.593 147.93C120.54 149.052 120.359 150.165 120.055 151.247C119.981 151.599 119.819 151.926 119.583 152.197C119.342 152.407 119.055 152.556 118.744 152.632C117.717 152.954 116.643 153.1 115.567 153.065C115.132 153.051 114.679 153.01 114.275 153.174C113.871 153.339 113.545 153.793 113.691 154.205C113.817 154.552 114.198 154.717 114.543 154.846C115.329 155.123 116.088 155.473 116.81 155.89C117.088 156.079 117.381 156.245 117.687 156.386C117.979 156.491 118.282 156.566 118.59 156.609L122.245 157.24C122.993 157.368 123.894 157.446 124.37 156.828C124.628 156.494 124.665 156.04 124.653 155.615C124.632 154.791 124.467 153.952 124.574 153.127C124.656 152.64 124.784 152.161 124.958 151.698C125.322 150.617 125.688 149.536 126.055 148.456C126.421 147.371 126.793 146.276 126.935 145.138C126.986 144.726 126.982 144.256 126.667 143.998C126.587 143.933 126.494 143.885 126.395 143.858C126.382 142.865 126.252 141.869 126.308 140.875C126.323 140.628 126.347 140.38 126.368 140.131C126.559 140.313 126.73 140.514 126.877 140.733C127.23 141.285 127.359 142.015 127.898 142.382C128.355 142.696 129.033 142.679 129.355 143.133C129.458 143.307 129.536 143.495 129.586 143.691C129.773 144.177 130.053 144.622 130.411 145C130.533 145.453 130.704 145.891 130.92 146.307C131.224 146.949 131.526 147.589 131.827 148.227C132.136 148.915 132.48 149.587 132.858 150.241C133.146 150.652 133.378 151.1 133.548 151.573C133.839 152.591 133.365 153.708 132.614 154.459C131.864 155.209 130.874 155.64 129.899 156.042C129.797 156.077 129.702 156.133 129.623 156.207C129.539 156.307 129.494 156.435 129.497 156.566C129.497 157.042 129.889 157.45 130.338 157.597C130.798 157.72 131.279 157.738 131.747 157.648C134.381 157.329 137.008 156.685 139.337 155.405C139.686 155.24 139.994 155.002 140.242 154.706C140.362 154.557 140.439 154.379 140.466 154.19C140.492 154.001 140.467 153.808 140.393 153.632Z" fill="url(#paint0_linear)"/>
<path d="M129.258 107.401C129.698 108.076 130.11 108.768 130.495 109.475C130.765 109.944 130.984 110.439 131.149 110.954C131.388 111.778 131.382 112.658 131.561 113.5C131.767 114.489 132.25 115.433 132.25 116.448C132.218 117.326 131.914 118.174 131.38 118.872C130.847 119.564 130.237 120.194 129.561 120.748C128.004 116.715 127.135 112.45 126.988 108.129C126.968 107.531 126.964 106.915 127.182 106.356C127.316 106.006 127.959 105.045 128.374 105.422C128.524 105.56 128.563 106.183 128.656 106.391C128.83 106.743 129.031 107.081 129.258 107.401Z" fill="#2F2E41"/>
<path opacity="0.1" d="M129.258 107.401C129.698 108.076 130.11 108.768 130.495 109.475C130.765 109.944 130.984 110.439 131.149 110.954C131.388 111.778 131.382 112.658 131.561 113.5C131.767 114.489 132.25 115.433 132.25 116.448C132.218 117.326 131.914 118.174 131.38 118.872C130.847 119.564 130.237 120.194 129.561 120.748C128.004 116.715 127.135 112.45 126.988 108.129C126.968 107.531 126.964 106.915 127.182 106.356C127.316 106.006 127.959 105.045 128.374 105.422C128.524 105.56 128.563 106.183 128.656 106.391C128.83 106.743 129.031 107.081 129.258 107.401Z" fill="black"/>
<path d="M74.907 79.2755C73.2763 80.9041 73.0805 81.6216 72.1012 81.9452C71.122 82.2689 67.5988 84.0934 68.7058 86.1158L71.6827 88.0825L71.7693 88.1402L72.2249 89.5091L67.7225 97.5245C67.7225 97.5245 60.3008 94.1311 59.5731 99.1511C58.8454 104.171 59.3072 105.542 59.1113 108.222C58.9155 110.902 59.1752 111.677 58.5217 111.677C57.8682 111.677 57.6105 109.917 57.6105 109.917C57.6105 109.917 57.5693 109.836 57.4971 109.686C56.5261 107.667 49.9353 92.8509 60.4926 82.6668C60.4926 82.6668 65.3826 82.3452 66.5598 76.7377C67.372 72.862 70.2129 73.1959 72.1012 73.9855C72.715 74.2262 73.2869 74.5622 73.7959 74.9813C74.2538 75.4149 74.6612 75.899 75.0101 76.4243C75.5482 77.2737 75.8409 78.3395 74.907 79.2755Z" fill="#D0D2D5"/>
<path opacity="0.1" d="M71.7693 88.1403L72.2249 89.5091L67.7225 97.5245C67.7225 97.5245 60.3008 94.1312 59.5731 99.1511C58.8454 104.171 59.3072 105.542 59.1113 108.222C58.9155 110.902 59.1752 111.677 58.5217 111.677C57.8682 111.677 57.6105 109.917 57.6105 109.917C57.6105 109.917 57.5693 109.836 57.4971 109.686C57.1693 107.179 55.5077 92.5149 61.5316 93.2942C61.5316 93.2942 66.4196 95.5784 67.2009 94.6672C67.8194 93.9456 70.5654 89.7957 71.6827 88.0928L71.7693 88.1403Z" fill="black"/>
<path opacity="0.1" d="M75.0101 76.412L72.0332 79.795C72.0332 79.795 68.576 84.4212 67.8586 84.2253C67.6438 84.1785 67.4249 84.1529 67.205 84.149C66.9657 84.1307 66.7365 84.0449 66.5439 83.9017C66.3514 83.7584 66.2034 83.5634 66.117 83.3395C66.0307 83.1155 66.0097 82.8717 66.0563 82.6362C66.1029 82.4008 66.2153 82.1833 66.3804 82.0091C67.5596 80.7722 69.7325 78.4241 69.8748 77.9025C70.017 77.3809 71.4003 75.0947 72.093 73.9752C72.7068 74.2159 73.2787 74.5519 73.7876 74.971C74.2484 75.4035 74.6585 75.8869 75.0101 76.412Z" fill="black"/>
<path d="M159.237 125.084C158.732 126.094 156.145 129.883 155.013 131.538L154.484 132.318C154.484 132.318 154.277 133.686 150.898 131.99C147.52 130.293 68.1307 96.7947 68.1307 96.7947L67.5926 95.1784L71.5096 89.3133L158.522 122.931C158.522 122.931 159.891 123.779 159.237 125.084Z" fill="#454B69"/>
<path opacity="0.1" d="M155.013 131.538L154.484 132.318C154.484 132.318 154.277 133.686 150.898 131.99C147.52 130.293 68.1307 96.7947 68.1307 96.7947L67.5926 95.1784L155.013 131.538Z" fill="black"/>
<path d="M107.127 109.657C106.321 109.525 105.426 109.589 104.8 110.112C104.421 110.433 104.181 110.888 104.132 111.382C104.078 111.953 104.41 112.632 104.983 112.675C105.121 112.677 105.259 112.668 105.396 112.648C105.758 112.647 106.119 112.677 106.476 112.739C107.178 112.805 107.886 112.702 108.54 112.438C109.194 112.174 109.775 111.757 110.234 111.222C110.727 110.603 110.077 110.335 109.496 110.211C108.7 110.042 107.923 109.785 107.127 109.657Z" fill="#FBBEBE"/>
<path d="M120.915 128.275L121.426 131.907C121.491 132.282 121.518 132.663 121.505 133.043C121.445 133.899 120.989 134.666 120.661 135.457C120.334 136.249 120.134 137.197 120.569 137.931C120.703 138.16 120.89 138.356 121.012 138.593C121.166 138.96 121.237 139.356 121.218 139.754L121.358 144.908C122.95 145.016 124.547 145.007 126.137 144.881C126.199 144.884 126.26 144.865 126.31 144.827C126.352 144.774 126.373 144.707 126.37 144.64C126.44 143.434 126.23 142.225 126.298 141.019C126.323 140.578 126.384 140.139 126.393 139.696C126.417 137.9 125.531 136.142 125.799 134.367C125.883 133.919 125.993 133.476 126.129 133.041C126.976 129.949 126.797 126.7 126.609 123.506C126.612 123.455 126.598 123.404 126.568 123.362C126.537 123.332 126.499 123.311 126.457 123.302C125.555 123.032 124.601 122.982 123.676 123.158C122.751 123.334 121.882 123.73 121.142 124.312C120.917 124.494 120.35 124.669 120.202 124.886C119.996 125.187 120.266 125.488 120.385 125.807C120.65 126.608 120.828 127.436 120.915 128.275Z" fill="#3F3D56"/>
<path opacity="0.1" d="M120.915 128.275L121.426 131.907C121.491 132.282 121.518 132.663 121.505 133.043C121.445 133.899 120.989 134.666 120.661 135.457C120.334 136.249 120.134 137.197 120.569 137.931C120.703 138.16 120.89 138.356 121.012 138.593C121.166 138.96 121.237 139.356 121.218 139.754L121.358 144.908C122.95 145.016 124.547 145.007 126.137 144.881C126.199 144.884 126.26 144.865 126.31 144.827C126.352 144.774 126.373 144.707 126.37 144.64C126.44 143.434 126.23 142.225 126.298 141.019C126.323 140.578 126.384 140.139 126.393 139.696C126.417 137.9 125.531 136.142 125.799 134.367C125.883 133.919 125.993 133.476 126.129 133.041C126.976 129.949 126.797 126.7 126.609 123.506C126.612 123.455 126.598 123.404 126.568 123.362C126.537 123.332 126.499 123.311 126.457 123.302C125.555 123.032 124.601 122.982 123.676 123.158C122.751 123.334 121.882 123.73 121.142 124.312C120.917 124.494 120.35 124.669 120.202 124.886C119.996 125.187 120.266 125.488 120.385 125.807C120.65 126.608 120.828 127.436 120.915 128.275Z" fill="black"/>
<path d="M130.474 127.18C130.233 127.681 129.91 128.147 129.765 128.685C129.39 130.105 130.361 131.571 130.246 133.027C130.209 133.486 130.066 133.934 130.056 134.394C130.046 134.853 130.215 135.365 130.623 135.577C130.897 135.717 131.241 135.703 131.499 135.863C131.934 136.129 131.984 136.733 131.94 137.241C131.897 137.748 131.825 138.315 132.146 138.71C132.392 139.018 132.812 139.137 133.076 139.428C133.233 139.637 133.367 139.862 133.474 140.1C133.868 140.789 134.587 141.209 135.177 141.749C135.767 142.289 136.265 143.081 136.002 143.829C135.808 144.378 135.264 144.716 134.74 144.974C133.784 145.446 132.776 145.802 131.736 146.035C131.625 146.069 131.506 146.075 131.392 146.054C131.276 146.011 131.172 145.941 131.091 145.848C130.483 145.252 129.854 144.627 129.574 143.825C129.524 143.631 129.446 143.445 129.343 143.273C129.021 142.821 128.343 142.838 127.885 142.526C127.349 142.162 127.219 141.438 126.869 140.892C126.518 140.345 126.005 140.02 125.632 139.539C125.001 138.739 124.846 137.671 124.395 136.758C124.203 136.371 123.958 136.008 123.805 135.604C123.651 135.119 123.557 134.618 123.523 134.111C123.232 131.703 122.492 129.279 122.958 126.896C123.061 126.372 123.22 125.865 123.286 125.325C123.399 124.391 123.22 123.434 123.358 122.502C123.361 122.385 123.391 122.271 123.445 122.167C123.499 122.063 123.576 121.973 123.669 121.903C123.781 121.853 123.902 121.828 124.024 121.83C125.246 121.765 126.471 121.793 127.689 121.913C128.308 121.973 129 122.098 129.372 122.603C129.687 123.036 129.67 123.616 129.772 124.141C129.897 124.789 130.225 125.141 130.569 125.648C130.914 126.156 130.728 126.656 130.474 127.18Z" fill="#3F3D56"/>
<path d="M125.718 143.932C126.044 143.932 126.405 143.912 126.656 144.118C126.97 144.376 126.974 144.848 126.924 145.25C126.78 146.38 126.411 147.466 126.042 148.548L124.945 151.766C124.772 152.226 124.643 152.701 124.562 153.185C124.455 154.009 124.62 154.834 124.64 155.659C124.64 156.071 124.613 156.529 124.356 156.861C123.89 157.46 122.981 157.39 122.232 157.273L118.581 156.654C118.273 156.613 117.971 156.539 117.678 156.434C117.374 156.293 117.081 156.128 116.802 155.941C116.08 155.528 115.321 155.183 114.534 154.91C114.192 154.782 113.809 154.62 113.685 154.275C113.539 153.863 113.864 153.409 114.269 153.245C114.673 153.08 115.124 153.121 115.561 153.133C116.636 153.167 117.709 153.023 118.736 152.704C119.045 152.629 119.332 152.48 119.573 152.271C119.817 151.997 119.984 151.661 120.055 151.3C120.366 150.226 120.552 149.119 120.608 148.002C120.651 147.177 120.622 146.353 120.655 145.528C120.676 145.04 120.628 143.467 121.057 143.13C121.385 142.879 122.733 143.574 123.177 143.675C124.01 143.866 124.864 143.952 125.718 143.932Z" fill="#2F2E41"/>
<path d="M137.746 146.225C138.102 147.406 138.158 148.655 138.389 149.87C138.62 151.084 139.028 152.323 139.929 153.168C140.104 153.307 140.255 153.475 140.376 153.663C140.452 153.84 140.478 154.034 140.451 154.224C140.424 154.414 140.344 154.593 140.222 154.741C139.973 155.034 139.664 155.271 139.317 155.436C136.989 156.706 134.369 157.347 131.728 157.665C131.261 157.752 130.781 157.734 130.322 157.613C129.873 157.46 129.475 157.056 129.483 156.582C129.479 156.452 129.523 156.325 129.607 156.226C129.687 156.152 129.782 156.097 129.885 156.063C130.858 155.663 131.845 155.228 132.598 154.49C133.35 153.752 133.822 152.634 133.532 151.632C133.36 151.163 133.126 150.719 132.837 150.311C132.46 149.663 132.116 148.996 131.806 148.313L130.899 146.41C130.633 145.854 130.365 145.281 130.32 144.666C131.459 144.717 132.597 144.535 133.664 144.13C134.162 143.927 134.625 143.649 135.039 143.306C135.389 143.013 135.709 142.467 136.181 142.848C136.56 143.153 136.799 144.013 137.022 144.448C137.311 145.019 137.553 145.614 137.746 146.225Z" fill="#2F2E41"/>
<path d="M124.453 98.9759C124.543 99.7675 125.31 100.289 126.042 100.602L121.41 102.081C121.709 101.507 121.468 100.807 121.171 100.225C120.929 99.7649 120.653 99.3232 120.346 98.9037C120.301 98.8398 120.249 98.7594 120.282 98.6852C120.312 98.6367 120.358 98.6007 120.412 98.5842C121.364 98.1595 122.346 97.7204 123.387 97.5657C123.688 97.5224 124.257 97.4029 124.482 97.708C124.706 98.0131 124.409 98.611 124.453 98.9759Z" fill="#FBBEBE"/>
<path opacity="0.1" d="M124.453 98.9759C124.543 99.7675 125.31 100.289 126.042 100.602L121.41 102.081C121.709 101.507 121.468 100.807 121.171 100.225C120.929 99.7649 120.653 99.3232 120.346 98.9037C120.301 98.8398 120.249 98.7594 120.282 98.6852C120.312 98.6367 120.358 98.6007 120.412 98.5842C121.364 98.1595 122.346 97.7204 123.387 97.5657C123.688 97.5224 124.257 97.4029 124.482 97.708C124.706 98.0131 124.409 98.611 124.453 98.9759Z" fill="black"/>
<path d="M121.76 99.617C123.766 99.617 125.393 97.9907 125.393 95.9845C125.393 93.9784 123.766 92.3521 121.76 92.3521C119.754 92.3521 118.128 93.9784 118.128 95.9845C118.128 97.9907 119.754 99.617 121.76 99.617Z" fill="#FBBEBE"/>
<path d="M118.612 125.877C118.965 126.3 119.585 126.382 120.127 126.29C121.395 126.083 122.432 125.149 123.673 124.813C125.195 124.401 126.805 124.931 128.242 125.58C129.679 126.23 131.107 127.023 132.678 127.135C131.258 123.968 132.07 120.158 130.712 116.965C130.38 116.184 129.916 115.431 129.842 114.586C129.749 113.537 130.272 112.524 130.353 111.481C130.427 110.552 130.147 109.626 129.879 108.739C129.547 107.651 129.216 106.562 128.885 105.474C128.514 104.256 128.133 103.017 127.413 101.969C127.147 101.584 127.067 100.802 126.663 100.569C125.78 100.06 124.442 100.701 123.486 100.736C122.529 100.771 121.657 101.452 121.098 102.221C120.507 103.033 120.171 104 119.862 104.956C119.369 106.381 119.002 107.845 118.763 109.333C118.732 109.556 118.705 109.778 118.684 110.003C118.478 112.12 118.779 114.25 118.796 116.378V116.392C118.816 119.091 118.383 121.773 118.303 124.469C118.295 124.962 118.307 125.5 118.612 125.877Z" fill="#2F2E41"/>
<path opacity="0.1" d="M118.802 116.38C119.513 116.2 120.156 115.741 120.709 115.238C121.187 114.809 121.612 114.325 121.975 113.794C122.431 113.081 122.797 112.315 123.065 111.512C123.828 109.365 124.313 107.13 124.508 104.86C124.562 104.241 124.578 103.577 124.209 103.087C124.002 102.821 123.711 102.633 123.384 102.554C123.056 102.474 122.711 102.508 122.406 102.65C121.919 102.887 121.604 103.367 121.311 103.827C120.732 104.738 120.148 105.662 119.775 106.676C119.61 107.125 119.488 107.587 119.328 108.039C119.164 108.484 118.975 108.92 118.763 109.343C118.732 109.566 118.705 109.789 118.684 110.013C118.493 112.131 118.785 114.252 118.802 116.38Z" fill="black"/>
<path d="M124.199 102.689C124.568 103.179 124.552 103.849 124.5 104.46C124.306 106.73 123.821 108.966 123.057 111.112C122.791 111.922 122.425 112.695 121.966 113.413C121.604 113.943 121.179 114.427 120.701 114.856C120 115.495 119.146 116.066 118.196 116.074C117.661 116.049 117.134 115.934 116.637 115.734L108.896 113.1C108.818 112.658 109.129 112.143 109.275 111.718L109.688 110.496C109.805 110.158 109.941 109.793 110.249 109.609C110.556 109.426 111.042 109.677 111.298 109.882C111.553 110.086 111.747 110.354 111.999 110.562C112.475 110.958 113.104 111.106 113.71 111.242L115.448 111.632C116.078 111.804 116.728 111.891 117.382 111.89C117.866 110.409 118.788 109.106 119.309 107.639C119.47 107.189 119.592 106.725 119.759 106.276C120.13 105.262 120.715 104.34 121.294 103.427C121.585 102.969 121.9 102.489 122.389 102.25C122.696 102.106 123.042 102.072 123.371 102.152C123.7 102.231 123.992 102.421 124.199 102.689Z" fill="#2F2E41"/>
<path d="M122.919 96.805C122.891 96.5661 122.817 96.3349 122.7 96.1247C122.64 96.0194 122.547 95.9363 122.436 95.8873C122.324 95.8384 122.201 95.8262 122.082 95.8525C121.719 95.9659 121.597 96.5267 121.218 96.5452C120.962 96.5576 120.779 96.2979 120.699 96.0546C120.618 95.8113 120.575 95.533 120.383 95.3619C120.25 95.2621 120.096 95.1918 119.934 95.1557C119.053 94.8774 118.144 94.3641 117.852 93.4879C117.783 93.3101 117.766 93.1162 117.804 92.9292C117.938 92.3747 118.629 92.2077 119.154 92.0077C119.68 91.8078 120.185 91.4655 120.701 91.2058C121.216 90.946 121.814 90.7625 122.381 90.8945C122.668 90.985 122.951 91.0902 123.228 91.2099C124.082 91.5068 125.127 91.3686 125.789 91.985C126.078 92.2908 126.29 92.6611 126.407 93.0653C126.869 94.3476 127.162 95.869 126.397 96.9947C125.925 97.6894 125.467 98.4831 124.56 98.5676C123.504 98.6563 123.086 97.6997 122.919 96.805Z" fill="#2F2E41"/>
<g opacity="0.1">
<path opacity="0.1" d="M121.307 95.6176C121.226 95.3743 121.183 95.096 120.993 94.9249C120.86 94.825 120.707 94.7548 120.544 94.7187C119.662 94.4404 118.755 93.9271 118.46 93.0509C118.393 92.8726 118.377 92.679 118.414 92.4922C118.435 92.4041 118.472 92.3208 118.524 92.2469C118.188 92.3933 117.895 92.587 117.812 92.9293C117.774 93.1162 117.791 93.3101 117.86 93.488C118.153 94.3641 119.062 94.8774 119.942 95.1558C120.105 95.1918 120.258 95.2621 120.391 95.3619C120.583 95.533 120.624 95.8093 120.707 96.0546C120.789 96.2999 120.971 96.5576 121.226 96.5453C121.482 96.5329 121.606 96.2999 121.769 96.1041C121.544 96.0752 121.381 95.8443 121.307 95.6176Z" fill="black"/>
<path opacity="0.1" d="M125.166 98.1244C124.106 98.2213 123.688 97.2565 123.517 96.3679C123.494 96.1297 123.424 95.8984 123.311 95.6876C123.25 95.5826 123.157 95.4996 123.046 95.4507C122.935 95.4018 122.811 95.3895 122.692 95.4155C122.504 95.5067 122.346 95.6498 122.236 95.8278C122.331 95.8369 122.422 95.8676 122.503 95.9177C122.584 95.9678 122.652 96.0358 122.702 96.1164C122.819 96.3267 122.893 96.5578 122.921 96.7968C123.088 97.6853 123.506 98.6522 124.57 98.5532C124.991 98.5068 125.379 98.3054 125.659 97.9883C125.503 98.0609 125.337 98.1068 125.166 98.1244Z" fill="black"/>
</g>
<path d="M167.628 136.474C171.305 136.474 174.285 135.9 174.285 135.193C174.285 134.486 171.305 133.913 167.628 133.913C163.952 133.913 160.971 134.486 160.971 135.193C160.971 135.9 163.952 136.474 167.628 136.474Z" fill="#D79922"/>
<path d="M167.517 135.663C167.945 135.663 168.292 135.209 168.292 134.649C168.292 134.089 167.945 133.635 167.517 133.635C167.089 133.635 166.742 134.089 166.742 134.649C166.742 135.209 167.089 135.663 167.517 135.663Z" fill="#3F3D56"/>
<path d="M167.517 134.422C167.945 134.422 168.292 133.968 168.292 133.408C168.292 132.848 167.945 132.394 167.517 132.394C167.089 132.394 166.742 132.848 166.742 133.408C166.742 133.968 167.089 134.422 167.517 134.422Z" fill="#3F3D56"/>
<path d="M167.517 133.183C167.945 133.183 168.292 132.729 168.292 132.169C168.292 131.609 167.945 131.155 167.517 131.155C167.089 131.155 166.742 131.609 166.742 132.169C166.742 132.729 167.089 133.183 167.517 133.183Z" fill="#3F3D56"/>
<path d="M167.517 131.942C167.945 131.942 168.292 131.488 168.292 130.928C168.292 130.368 167.945 129.914 167.517 129.914C167.089 129.914 166.742 130.368 166.742 130.928C166.742 131.488 167.089 131.942 167.517 131.942Z" fill="#3F3D56"/>
<path d="M167.517 130.701C167.945 130.701 168.292 130.247 168.292 129.687C168.292 129.127 167.945 128.673 167.517 128.673C167.089 128.673 166.742 129.127 166.742 129.687C166.742 130.247 167.089 130.701 167.517 130.701Z" fill="#3F3D56"/>
<path d="M167.517 129.462C167.945 129.462 168.292 129.008 168.292 128.448C168.292 127.888 167.945 127.434 167.517 127.434C167.089 127.434 166.742 127.888 166.742 128.448C166.742 129.008 167.089 129.462 167.517 129.462Z" fill="#3F3D56"/>
<path d="M167.517 128.221C167.945 128.221 168.292 127.767 168.292 127.207C168.292 126.647 167.945 126.193 167.517 126.193C167.089 126.193 166.742 126.647 166.742 127.207C166.742 127.767 167.089 128.221 167.517 128.221Z" fill="#3F3D56"/>
<path d="M170.417 118.728C170.523 118.593 170.62 118.451 170.706 118.303L168.669 117.969L170.873 117.983C171.083 117.523 171.198 117.025 171.21 116.52C171.222 116.014 171.131 115.511 170.943 115.042L167.987 116.575L170.712 114.572C170.456 114.131 170.113 113.749 169.703 113.447C169.293 113.145 168.825 112.931 168.329 112.818C167.832 112.704 167.318 112.695 166.818 112.789C166.317 112.883 165.842 113.079 165.42 113.365C164.999 113.65 164.641 114.02 164.369 114.45C164.096 114.88 163.915 115.362 163.837 115.865C163.759 116.368 163.785 116.881 163.913 117.374C164.042 117.867 164.271 118.327 164.585 118.728C164.42 118.937 164.277 119.164 164.161 119.404L166.806 120.779L163.985 119.833C163.788 120.417 163.74 121.041 163.845 121.649C163.95 122.256 164.204 122.828 164.585 123.313C164.155 123.86 163.888 124.518 163.814 125.21C163.74 125.902 163.862 126.601 164.166 127.227C164.47 127.853 164.945 128.381 165.535 128.751C166.125 129.12 166.807 129.316 167.503 129.316C168.2 129.316 168.882 129.12 169.472 128.751C170.062 128.381 170.536 127.853 170.841 127.227C171.145 126.601 171.267 125.902 171.193 125.21C171.119 124.518 170.852 123.86 170.422 123.313C170.937 122.658 171.217 121.85 171.217 121.017C171.217 120.184 170.937 119.376 170.422 118.722L170.417 118.728Z" fill="#D79922"/>
<path opacity="0.1" d="M163.785 121.016C163.785 121.85 164.067 122.659 164.585 123.313C164.155 123.86 163.888 124.518 163.814 125.21C163.74 125.902 163.862 126.601 164.166 127.227C164.47 127.853 164.945 128.381 165.535 128.751C166.125 129.12 166.807 129.316 167.503 129.316C168.2 129.316 168.882 129.12 169.472 128.751C170.062 128.381 170.536 127.853 170.841 127.227C171.145 126.601 171.267 125.902 171.193 125.21C171.119 124.518 170.852 123.86 170.422 123.313C170.914 122.68 163.785 120.6 163.785 121.016Z" fill="black"/>
<path d="M30.5978 162C35.891 162 40.182 161.175 40.182 160.157C40.182 159.139 35.891 158.314 30.5978 158.314C25.3046 158.314 21.0135 159.139 21.0135 160.157C21.0135 161.175 25.3046 162 30.5978 162Z" fill="#D79922"/>
<path d="M30.437 160.835C31.0529 160.835 31.5523 160.181 31.5523 159.374C31.5523 158.566 31.0529 157.912 30.437 157.912C29.821 157.912 29.3217 158.566 29.3217 159.374C29.3217 160.181 29.821 160.835 30.437 160.835Z" fill="#3F3D56"/>
<path d="M30.437 159.05C31.0529 159.05 31.5523 158.395 31.5523 157.588C31.5523 156.781 31.0529 156.127 30.437 156.127C29.821 156.127 29.3217 156.781 29.3217 157.588C29.3217 158.395 29.821 159.05 30.437 159.05Z" fill="#3F3D56"/>
<path d="M30.437 157.265C31.0529 157.265 31.5523 156.61 31.5523 155.803C31.5523 154.996 31.0529 154.341 30.437 154.341C29.821 154.341 29.3217 154.996 29.3217 155.803C29.3217 156.61 29.821 157.265 30.437 157.265Z" fill="#3F3D56"/>
<path d="M30.437 155.479C31.0529 155.479 31.5523 154.825 31.5523 154.018C31.5523 153.21 31.0529 152.556 30.437 152.556C29.821 152.556 29.3217 153.21 29.3217 154.018C29.3217 154.825 29.821 155.479 30.437 155.479Z" fill="#3F3D56"/>
<path d="M30.437 153.694C31.0529 153.694 31.5523 153.04 31.5523 152.232C31.5523 151.425 31.0529 150.771 30.437 150.771C29.821 150.771 29.3217 151.425 29.3217 152.232C29.3217 153.04 29.821 153.694 30.437 153.694Z" fill="#3F3D56"/>
<path d="M30.437 151.907C31.0529 151.907 31.5523 151.252 31.5523 150.445C31.5523 149.638 31.0529 148.983 30.437 148.983C29.821 148.983 29.3217 149.638 29.3217 150.445C29.3217 151.252 29.821 151.907 30.437 151.907Z" fill="#3F3D56"/>
<path d="M30.437 150.121C31.0529 150.121 31.5523 149.467 31.5523 148.66C31.5523 147.852 31.0529 147.198 30.437 147.198C29.821 147.198 29.3217 147.852 29.3217 148.66C29.3217 149.467 29.821 150.121 30.437 150.121Z" fill="#3F3D56"/>
<path d="M34.6137 136.443C34.7646 136.246 34.9024 136.039 35.026 135.824L32.0945 135.342L35.2651 135.367C35.569 134.704 35.7347 133.987 35.7521 133.259C35.7695 132.53 35.6382 131.806 35.3662 131.13L31.1152 133.344L35.0322 130.458C34.6654 129.822 34.1714 129.268 33.5809 128.831C32.9905 128.394 32.3164 128.083 31.6006 127.918C30.8847 127.753 30.1426 127.738 29.4205 127.872C28.6984 128.007 28.0118 128.289 27.4036 128.701C26.7954 129.113 26.2785 129.646 25.8853 130.266C25.4922 130.886 25.2311 131.581 25.1184 132.307C25.0057 133.033 25.0438 133.774 25.2303 134.485C25.4168 135.195 25.7478 135.86 26.2025 136.437C25.9617 136.738 25.7544 137.064 25.584 137.41L29.3917 139.389L25.3325 138.026C25.048 138.871 24.9793 139.774 25.1327 140.652C25.2861 141.53 25.6567 142.356 26.2107 143.054C25.5905 143.843 25.2046 144.79 25.0973 145.787C24.9899 146.785 25.1654 147.792 25.6037 148.695C26.042 149.597 26.7254 150.358 27.5757 150.89C28.426 151.423 29.409 151.705 30.4122 151.705C31.4154 151.705 32.3984 151.423 33.2487 150.89C34.0991 150.358 34.7824 149.597 35.2207 148.695C35.659 147.792 35.8345 146.785 35.7272 145.787C35.6198 144.79 35.234 143.843 34.6137 143.054C35.355 142.112 35.7581 140.948 35.7581 139.75C35.7581 138.551 35.355 137.387 34.6137 136.445V136.443Z" fill="#D79922"/>
<path opacity="0.1" d="M25.0666 139.756C25.0668 140.953 25.4698 142.114 26.2108 143.054C25.5905 143.843 25.2046 144.79 25.0973 145.787C24.9899 146.785 25.1654 147.792 25.6037 148.695C26.042 149.597 26.7254 150.358 27.5757 150.89C28.4261 151.423 29.409 151.705 30.4122 151.705C31.4155 151.705 32.3984 151.423 33.2488 150.89C34.0991 150.358 34.7825 149.597 35.2208 148.695C35.659 147.792 35.8345 146.785 35.7272 145.787C35.6198 144.79 35.234 143.843 34.6137 143.054C35.3249 142.143 25.0666 139.148 25.0666 139.756Z" fill="black"/>
<defs>
<linearGradient id="paint0_linear" x1="124.082" y1="157.988" x2="121.353" y2="90.3427" gradientUnits="userSpaceOnUse">
<stop stop-color="#808080" stop-opacity="0.25"/>
<stop offset="0.54" stop-color="#808080" stop-opacity="0.12"/>
<stop offset="1" stop-color="#808080" stop-opacity="0.1"/>
</linearGradient>
</defs>
</svg>
