<svg width="400" height="337" viewBox="0 0 428 357" fill="none" xmlns="http://www.w3.org/2000/svg">
<path opacity="0.1" d="M303.821 356.314C327.94 356.314 347.493 354.387 347.493 352.009C347.493 349.631 327.94 347.704 303.821 347.704C279.701 347.704 260.149 349.631 260.149 352.009C260.149 354.387 279.701 356.314 303.821 356.314Z" fill="#D79922"/>
<path opacity="0.1" d="M187.159 5.21214C206.393 -1.93738 229.809 4.21146 249.806 13.1792C312.61 41.3515 358.364 94.8303 394.717 149.314C407.879 169.042 420.381 189.639 425.329 211.663C435.404 256.489 409.126 302.895 364.437 319.157C349.239 324.692 332.543 326.962 315.821 328.227C286.086 330.479 255.299 329.585 225.802 321.243C204.767 315.282 184.868 305.692 165.783 295.098C112.483 265.495 63.8073 227.052 28.758 180.092C13.3859 159.495 0.381371 136.275 0.00664907 112.51C-0.368073 88.7453 15.119 64.8653 40.6001 60.8243C51.1349 59.1551 62.2786 60.8924 73.1498 62.6809C89.1564 65.3167 105.38 68.0888 121.204 66.9391C137.551 65.7425 158.812 59.3552 161.793 43.7489C164.948 26.9929 167.95 12.3531 187.159 5.21214Z" fill="#D79922"/>
<path d="M103.907 327.375C103.907 327.375 124.457 326.136 122.034 340.537C122.034 340.537 122.515 343.092 120.207 344.238C120.207 344.238 120.173 343.169 118.099 343.531C117.363 343.657 116.614 343.694 115.868 343.641C114.86 343.572 113.902 343.176 113.139 342.513C113.139 342.513 107.36 340.128 105.116 330.684C105.116 330.684 103.451 328.627 103.519 328.095L106.985 329.577C106.985 329.577 105.802 332.08 106.734 334.158C106.734 334.158 106.845 329.67 107.514 329.772C107.646 329.794 109.315 330.624 109.315 330.624C109.315 330.624 107.275 334.98 108.812 338.148C108.812 338.148 108.229 332.779 109.949 330.939L112.393 332.366C112.393 332.366 110.009 336.867 111.627 340.537C111.627 340.537 111.201 334.904 112.904 332.711L115.119 334.414C115.119 334.414 112.879 338.851 114.246 341.9C114.246 341.9 114.42 335.338 115.596 334.844C115.596 334.844 117.533 336.547 117.827 337.254C117.827 337.254 116.294 340.473 117.244 342.172C117.244 342.172 117.827 337.803 118.308 337.782C118.308 337.782 120.233 340.678 120.437 342.662C120.437 342.662 120.352 339.711 118.772 337.505C118.772 337.505 120.637 337.825 121.727 339.034C121.727 339.034 121.425 336.986 118.3 336.807C118.3 336.807 116.707 334.614 116.277 334.478C116.277 334.478 119.39 334.218 121.276 335.057C121.276 335.057 119.615 333.124 115.706 334.001L113.522 332.221C113.522 332.221 117.622 331.659 119.356 332.281C119.356 332.281 117.358 330.577 112.934 331.816L110.558 330.394C110.558 330.394 114.05 329.64 116.132 329.913C116.132 329.913 113.935 328.729 109.86 330.011L108.156 329.249C108.156 329.249 110.711 328.746 111.465 328.665C112.219 328.584 112.253 328.38 112.253 328.38C110.632 328.108 108.968 328.293 107.445 328.912C107.445 328.912 103.843 327.622 103.907 327.375Z" fill="#D79922"/>
<path opacity="0.1" d="M118.061 347.951C126.095 347.951 132.607 346.851 132.607 345.494C132.607 344.137 126.095 343.037 118.061 343.037C110.028 343.037 103.515 344.137 103.515 345.494C103.515 346.851 110.028 347.951 118.061 347.951Z" fill="#D79922"/>
<path d="M76.3775 317.688C76.3775 317.688 87.9641 316.989 86.5972 325.11C86.6694 325.521 86.6089 325.945 86.4245 326.32C86.24 326.695 85.9411 327.002 85.571 327.196C85.571 327.196 85.5497 326.596 84.3829 326.8C83.9682 326.871 83.5464 326.891 83.1268 326.86C82.5569 326.825 82.0148 326.602 81.5853 326.225C81.5853 326.225 78.332 324.875 77.0546 319.553C77.0546 319.553 76.1178 318.39 76.1518 318.092L78.1106 318.944C78.1106 318.944 77.4421 320.358 77.9658 321.529C77.9658 321.529 78.0297 318.995 78.3917 319.055C78.4683 319.055 79.4094 319.544 79.4094 319.544C79.4094 319.544 78.2597 322.001 79.1283 323.802C79.1283 323.802 78.7962 320.775 79.7671 319.736L81.1425 320.541C81.1425 320.541 79.8011 323.096 80.7166 325.148C80.7166 325.148 80.4824 321.971 81.4363 320.737L82.6839 321.707C82.6839 321.707 81.4065 324.207 82.1942 325.927C82.1942 325.927 82.2922 322.227 82.9564 321.95C82.9564 321.95 84.0466 322.912 84.2126 323.308C84.2126 323.308 83.361 325.122 83.8847 326.081C83.8847 326.081 84.2126 323.619 84.4852 323.607C84.4852 323.607 85.571 325.237 85.6817 326.357C85.6274 325.323 85.3045 324.321 84.7449 323.449C85.3714 323.564 85.9503 323.86 86.4099 324.301C86.4099 324.301 86.2438 323.147 84.4766 323.044C84.4766 323.044 83.5782 321.805 83.3397 321.733C83.3397 321.733 85.0941 321.584 86.1586 322.057C86.1586 322.057 85.2218 320.966 83.0161 321.46L81.7854 320.455C81.7854 320.455 84.0977 320.14 85.077 320.49C85.077 320.49 83.9486 319.527 81.4533 320.23L80.1162 319.425C81.1463 319.2 82.2012 319.11 83.2545 319.157C83.2545 319.157 82.0197 318.488 79.7202 319.212L78.7621 318.786C78.7621 318.786 80.2057 318.501 80.6272 318.458C81.0488 318.416 81.0743 318.297 81.0743 318.297C80.1596 318.145 79.2207 318.25 78.3619 318.599C78.3619 318.599 76.3435 317.828 76.3775 317.688Z" fill="#D79922"/>
<path opacity="0.1" d="M84.3574 329.287C88.8869 329.287 92.5587 328.666 92.5587 327.899C92.5587 327.132 88.8869 326.511 84.3574 326.511C79.828 326.511 76.1561 327.132 76.1561 327.899C76.1561 328.666 79.828 329.287 84.3574 329.287Z" fill="#D79922"/>
<path d="M361.426 325.493C361.426 325.493 375.414 324.641 373.775 334.435C373.859 334.933 373.784 335.444 373.56 335.897C373.337 336.349 372.977 336.72 372.531 336.956C372.531 336.956 372.506 336.228 371.096 336.475C370.594 336.56 370.084 336.585 369.576 336.547C368.89 336.503 368.237 336.233 367.72 335.781C367.72 335.781 363.785 334.159 362.256 327.729C362.256 327.729 361.124 326.328 361.17 325.97L363.53 326.975C363.53 326.975 362.725 328.678 363.359 330.096C363.359 330.096 363.436 327.039 363.887 327.115C363.981 327.115 365.114 327.703 365.114 327.703C365.114 327.703 363.725 330.684 364.773 332.813C364.773 332.813 364.377 329.159 365.548 327.907L367.209 328.874C367.209 328.874 365.586 331.94 366.689 334.44C366.689 334.44 366.404 330.607 367.541 329.113L369.048 330.288C369.048 330.288 367.524 333.307 368.452 335.398C368.452 335.398 368.576 330.935 369.376 330.594C369.376 330.594 370.692 331.757 370.892 332.234C370.892 332.234 369.849 334.427 370.496 335.585C370.496 335.585 370.892 332.604 371.22 332.604C371.22 332.604 372.531 334.576 372.668 335.926C372.604 334.678 372.215 333.468 371.539 332.417C372.296 332.56 372.995 332.921 373.549 333.456C373.549 333.456 373.345 332.063 371.211 331.94C371.211 331.94 370.13 330.445 369.84 330.356C369.84 330.356 371.969 330.177 373.247 330.748C373.247 330.748 372.114 329.436 369.453 330.032L367.967 328.819C367.967 328.819 370.756 328.435 371.939 328.857C371.939 328.857 370.577 327.695 367.566 328.542L365.948 327.575C365.948 327.575 368.324 327.064 369.742 327.247C369.742 327.247 368.248 326.443 365.484 327.316L364.326 326.796C364.326 326.796 366.067 326.451 366.578 326.4C367.089 326.349 367.115 326.204 367.115 326.204C366.012 326.02 364.88 326.146 363.845 326.566C363.845 326.566 361.383 325.655 361.426 325.493Z" fill="#D79922"/>
<path opacity="0.1" d="M371.058 339.502C376.526 339.502 380.958 338.753 380.958 337.829C380.958 336.905 376.526 336.156 371.058 336.156C365.59 336.156 361.158 336.905 361.158 337.829C361.158 338.753 365.59 339.502 371.058 339.502Z" fill="#D79922"/>
<path d="M347.489 222.116C347.221 220.617 347.065 219.1 347.025 217.577C347.025 215.75 344.542 214.132 344.542 214.132C344.542 214.132 343.009 210.585 341.987 210.061C340.965 209.538 337.81 204.896 337.81 204.896C337.774 203.981 337.44 203.102 336.86 202.392C335.915 201.15 335.052 199.847 334.276 198.492C333.85 197.972 334.063 197.606 333.424 194.579C333.39 194.421 333.352 194.268 333.305 194.123C333.305 194.055 333.262 193.995 333.237 193.927C333.914 193.247 334.387 192.39 334.6 191.454C334.813 190.518 334.758 189.541 334.442 188.634C334.327 188.274 334.118 187.95 333.837 187.697C333.117 187.11 331.968 187.352 331.227 186.795L332.014 183.311C332.202 182.46 332.3 181.382 331.555 180.923C331.275 180.79 330.981 180.691 330.677 180.629C329.4 180.203 328.659 178.853 328.327 177.554C328.008 176.303 327.921 175.004 328.071 173.722C328.216 172.487 328.578 171.286 328.71 170.047C328.95 167.755 328.399 165.45 327.147 163.515C326.661 162.68 325.944 162.003 325.082 161.565C324.294 161.211 323.379 161.139 322.642 160.713C321.058 159.704 321.139 157.307 319.874 155.931C318.61 154.556 316.37 154.56 314.526 155.033C312.682 155.505 310.847 156.31 308.956 156.11C307.738 155.974 306.597 155.42 305.375 155.292C305.026 155.259 304.673 155.275 304.328 155.339V155.301C303.425 155.463 302.595 155.965 302.382 156.821C302.334 157.025 302.314 157.234 302.322 157.443C302.322 157.941 302.441 158.461 302.45 158.937C302.466 159.127 302.443 159.318 302.384 159.498C302.325 159.679 302.23 159.846 302.105 159.989C301.862 160.249 301.504 160.385 301.253 160.654C301.151 160.756 301.07 160.878 301.017 161.013C300.964 161.148 300.938 161.292 300.942 161.437C300.942 162.195 301.888 162.864 302.522 163.17H302.548C302.377 163.34 302.207 163.519 302.05 163.702C300.231 165.757 299.228 168.406 299.231 171.15C299.246 173.366 299.909 175.529 301.137 177.374C302.366 179.218 304.107 180.663 306.146 181.532L306.056 181.808C305.877 182.356 305.668 182.893 305.431 183.418C304.99 183.27 304.522 183.22 304.06 183.271C303.599 183.323 303.153 183.474 302.756 183.716C301.539 184.568 299.158 184.499 298.524 184.342C297.889 184.184 291.285 183.35 290.752 183.558C290.22 183.767 289.168 182.83 288.483 184.082C287.797 185.334 287.478 186.011 286.78 186.326C286.081 186.641 284.876 187.629 285.038 187.838C285.2 188.047 283.292 189.298 283.292 189.298C283.292 189.298 281.653 191.002 280.703 191.227C279.754 191.453 277.744 192.743 277.744 192.743L275.414 194.566C275.414 194.566 273.673 194.83 274.201 193.629C274.729 192.428 273.247 190.917 273.247 190.917C273.247 190.917 270.288 184.917 270.288 183.678C270.288 182.439 267.856 177.154 267.856 177.154L267.558 177.124L267.422 176.737C266.975 175.481 266.396 173.939 265.953 173.036C265.101 171.312 264.577 171.133 264.577 171.133C264.577 171.133 254.324 163.434 247.664 165.78C241.004 168.127 259.821 175.119 261.511 175.851C262.103 176.107 262.529 176.933 262.827 177.899C261.327 178.623 260.064 179.759 259.186 181.174C259.186 181.174 263.257 190.197 263.364 192.441C263.47 194.685 266.166 200.957 266.166 200.957C266.166 200.957 267.171 205.603 272.613 205.339C272.613 205.339 280.12 206.719 281.759 205.339C283.399 203.959 284.876 202.878 285.672 202.72C286.258 202.528 286.773 202.165 287.15 201.677C287.15 201.677 284.668 217.326 283.45 218.684C282.232 220.043 271.471 237.612 275.334 240.755C278.392 243.123 281.625 245.258 285.004 247.142C285.332 247.304 286.315 245.664 287.721 244.502C287.721 244.796 287.721 245.094 287.721 245.409C287.746 251.66 288.572 261.164 289.713 263.293C291.417 266.423 290.718 272.474 290.718 272.474C291.614 272.895 292.586 273.129 293.576 273.16C293.627 273.364 293.686 273.585 293.742 273.798C294.674 277.32 296.186 282.766 296.957 284.214C298.119 286.407 298.962 293.348 298.962 293.348C298.962 293.348 299.652 300.161 299.388 301.119C299.286 301.481 299.733 304.317 300.436 307.932C300.01 312.825 299.201 322.257 299.065 325.667C299.065 325.731 299.065 325.795 299.065 325.855V325.914C299.067 325.953 299.067 325.991 299.065 326.029C299.065 326.106 299.065 326.174 299.065 326.238C299.051 326.453 299.06 326.668 299.09 326.881C299.143 327.206 299.118 327.539 299.018 327.852C298.716 328.795 298.333 329.71 297.872 330.586C297.678 331.016 297.507 331.457 297.361 331.906C296.935 332.093 296.416 332.549 296.126 333.66C295.598 335.696 294.806 341.325 294.806 341.325C294.806 341.325 294.487 344.77 293.857 345.553C293.227 346.337 292.579 351.238 297.08 351.864C301.581 352.49 303.527 349.479 303.527 349.479L303.37 335.819V335.793C303.461 335.679 303.539 335.554 303.604 335.423V335.389C303.634 335.325 303.668 335.257 303.697 335.18L303.736 335.078L303.804 334.912C303.801 334.892 303.801 334.872 303.804 334.852C304.241 333.544 304.372 332.153 304.187 330.786V330.718V330.611C304.187 330.577 304.187 330.539 304.187 330.505V330.292C304.187 330.266 304.187 330.237 304.187 330.211C304.187 330.12 304.196 330.026 304.213 329.93C304.213 329.93 304.213 329.896 304.213 329.879L304.238 329.713V329.64C304.238 329.585 304.238 329.53 304.272 329.47C304.271 329.456 304.271 329.442 304.272 329.427C304.315 329.232 304.366 329.002 304.421 328.814V328.767L304.485 328.563C304.549 328.346 304.621 328.137 304.698 327.907V327.865C304.698 327.797 304.745 327.728 304.771 327.665V327.639C304.847 327.43 304.928 327.213 305.005 327.034L305.026 326.979L305.094 326.809L305.115 326.758L305.277 326.379L306.525 330.232C306.525 330.232 307.215 333.102 306.844 333.779C306.474 334.456 307.27 337.275 307.794 337.326L307.304 340.873C307.039 342.829 306.882 344.798 306.831 346.771C306.797 346.997 306.763 347.197 306.738 347.333C306.397 349.151 307.215 351.97 307.215 351.97C311.388 356.906 316.361 352.354 316.361 352.354C316.361 352.354 316.94 349.743 316.361 349.224C315.782 348.704 316.042 346.822 316.042 346.822C316.042 346.822 316.306 342.176 316.357 338.787C316.408 335.397 313.585 332.4 313.585 332.4L313.427 332.54C312.912 331.212 312.325 329.662 312.448 328.968C312.661 327.767 311.865 315.09 311.865 315.09C312.159 311.692 312.222 308.277 312.052 304.87C312.12 304.296 312.184 303.729 312.248 303.167C312.567 300.442 312.827 298.113 312.929 296.891V296.746C312.955 296.418 312.968 296.184 312.963 296.073C312.963 295.647 312.963 295.162 313.006 294.629C313.104 293.165 313.334 291.534 313.334 291.534L314.441 284.801C314.441 284.801 315.293 281.514 316.506 279.692L316.651 279.462C316.698 279.381 316.745 279.291 316.796 279.198L316.817 279.159C316.864 279.07 316.915 278.976 316.962 278.878L316.983 278.84C317.153 278.504 317.336 278.116 317.528 277.69C317.528 277.656 317.558 277.626 317.571 277.592L317.715 277.269C317.715 277.226 317.75 277.184 317.771 277.141C317.792 277.098 317.86 276.924 317.907 276.817C317.928 276.774 317.947 276.73 317.962 276.685C318.018 276.558 318.077 276.426 318.133 276.289L318.214 276.093C318.252 275.995 318.295 275.898 318.337 275.8L318.439 275.54C318.469 275.476 318.495 275.412 318.52 275.348L318.635 275.054C318.635 275.012 318.674 274.965 318.691 274.922C318.993 274.169 319.282 273.424 319.542 272.746C319.623 272.534 319.704 272.321 319.776 272.133C322.485 272.299 324.324 272.448 324.324 272.448C324.324 272.448 325.176 266.346 324.903 262.331C324.724 259.589 325.235 256.139 325.572 254.24C325.61 254.032 325.644 253.844 325.678 253.674L325.751 253.734C327.075 254.777 328.025 251.332 328.025 251.332C328.025 251.332 327.667 248.117 327.173 244.221L327.122 243.833C327.885 243.996 328.657 244.114 329.434 244.187C329.434 244.187 329.86 244.148 330.443 244.076C332.057 245.01 333.76 245.781 335.528 246.375L338.342 241.18C338.871 240.103 339.491 239.074 340.195 238.102C341.046 237.058 344.052 233.72 344.001 233.094C343.95 232.468 345.006 228.866 346.062 227.248C347.118 225.629 347.54 222.376 347.489 222.116ZM335.753 226.081C334.642 226.549 333.586 229.16 333.535 229.943C333.484 230.727 332.317 234.167 331.103 234.584C329.983 234.968 327.846 236.935 327.505 237.25C327.156 237.28 326.76 237.327 326.347 237.395C325.883 234.103 325.423 231.378 325.129 230.829C324.277 229.262 326.062 224.254 326.062 224.254C326.062 224.254 326.236 219.195 327.339 217.995C328.442 216.794 328.191 213.766 328.191 213.766C328.191 213.766 328.455 212.514 328.561 211.944C328.668 211.373 330.132 211.944 330.145 211.944C330.145 211.944 332.998 213.506 333.424 215.853C333.85 218.199 336.967 222.27 336.967 222.27C336.967 222.27 336.49 223.679 336.967 224.399C337.444 225.118 336.865 225.612 335.753 226.081Z" fill="url(#paint0_linear)"/>
<path d="M259.306 181.493C260.174 180.061 261.445 178.917 262.959 178.204C264.474 177.49 266.165 177.239 267.822 177.482V183.575H264.122L261.226 182.843L259.306 181.493Z" fill="#4C4981"/>
<path opacity="0.1" d="M259.306 181.493C260.174 180.061 261.445 178.917 262.959 178.204C264.474 177.49 266.165 177.239 267.822 177.482V183.575H264.122L261.226 182.843L259.306 181.493Z" fill="black"/>
<path d="M268.099 179.096L263.564 182.272C263.564 182.272 263.526 181.638 263.411 180.769C263.185 179.126 262.678 176.66 261.584 176.183C259.919 175.451 241.383 168.476 247.958 166.13C254.532 163.783 264.62 171.474 264.62 171.474C264.62 171.474 265.139 171.652 265.97 173.369C266.396 174.271 266.979 175.808 267.418 177.065C267.822 178.197 268.099 179.096 268.099 179.096Z" fill="#AE6E79"/>
<path d="M304.328 183.989L304.843 183.746L306.291 185.398L305.107 187.923L303.089 187.114L303.557 185.096L304.328 183.989Z" fill="#4C4981"/>
<path d="M297.468 331.88C297.468 331.88 296.165 331.727 295.645 333.758C295.126 335.789 294.342 341.423 294.342 341.423C294.342 341.423 294.031 344.859 293.405 345.643C292.779 346.426 292.158 351.319 296.582 351.941C301.006 352.562 302.935 349.56 302.935 349.56L302.778 335.904L297.468 331.88Z" fill="#444053"/>
<path d="M312.908 332.494C312.908 332.494 315.693 335.474 315.642 338.855C315.591 342.236 315.327 346.874 315.327 346.874C315.327 346.874 315.071 348.751 315.642 349.271C316.212 349.79 315.642 352.396 315.642 352.396C315.642 352.396 310.745 356.94 306.631 352.013C306.631 352.013 305.831 349.199 306.163 347.385C306.495 345.571 307.423 337.416 307.423 337.416L312.908 332.494Z" fill="#444053"/>
<path d="M319.806 270.226C319.806 270.226 316.996 278.086 315.795 279.909C314.594 281.731 313.768 285.019 313.768 285.019L312.674 291.734C312.46 293.235 312.338 294.748 312.308 296.265C312.359 297.776 309.599 319.8 309.599 319.8L305.226 325.374C305.226 325.374 303.301 329.278 303.612 330.909C303.923 332.54 303.404 335.129 302.761 335.908C302.761 335.908 302.658 341.018 302.501 342.155C302.343 343.292 303.076 346.533 302.501 347.103C301.926 347.674 294.274 347.418 294.065 346.477C293.857 345.536 295.002 341.01 295.002 341.01L295.679 336.637C295.679 336.637 297.033 334.243 296.723 333.46C296.412 332.676 297.293 330.858 297.344 330.701C297.395 330.543 298.805 327.992 298.545 327.005C298.285 326.017 300.184 305.007 300.184 305.007L305.546 267.36L319.806 270.226Z" fill="#AE6E79"/>
<path opacity="0.1" d="M319.806 270.226C319.806 270.226 319.38 271.409 318.797 272.964C317.869 275.416 316.532 278.793 315.795 279.909C314.598 281.731 313.764 285.019 313.764 285.019L312.67 291.738C312.458 293.24 312.337 294.753 312.308 296.269C312.308 296.865 311.907 300.668 311.396 305.049C310.609 311.747 309.599 319.804 309.599 319.804L305.226 325.378C305.226 325.378 305.005 325.804 304.728 326.477C304.179 327.754 303.404 329.828 303.612 330.897C303.923 332.51 303.404 335.112 302.761 335.896C302.761 335.896 302.654 341.006 302.501 342.142C302.348 343.279 303.076 346.516 302.501 347.09C301.926 347.665 294.274 347.406 294.065 346.469C293.857 345.532 295.002 341.001 295.002 341.001L295.679 336.624C295.679 336.624 297.033 334.231 296.718 333.447C296.403 332.664 297.293 330.845 297.344 330.688C297.395 330.53 298.805 327.98 298.545 326.992C298.345 326.238 299.397 313.902 299.886 308.051C300.052 306.212 300.159 305.015 300.159 305.015L304.771 272.627L305.145 270.017L305.52 267.368L319.806 270.226Z" fill="black"/>
<path d="M315.122 348.538C315.169 349.113 307.777 349.948 306.721 349.322C305.665 348.696 306.721 340.938 306.721 340.938L307.202 337.399C306.687 337.344 305.903 334.533 306.265 333.856C306.627 333.179 305.954 330.318 305.954 330.318L304.728 326.485L303.978 324.139C302.761 321.452 300.998 313.787 299.903 308.064C299.214 304.47 298.775 301.639 298.873 301.277C299.133 300.34 298.447 293.518 298.447 293.518C298.447 293.518 297.595 286.59 296.471 284.406C295.709 282.958 294.223 277.52 293.303 274.011C292.835 272.21 292.511 270.916 292.511 270.916C292.511 270.916 300.38 270.256 305.154 270.026C307.347 269.919 308.888 269.906 308.709 270.085C308.531 270.264 308.484 271.218 308.492 272.598C308.513 276.17 309.012 282.455 309.54 284.146C310.268 286.488 310.996 293.514 310.685 294.195C310.374 294.877 310.477 299.403 310.477 299.403C311.013 301.242 311.322 303.14 311.396 305.054C311.563 308.445 311.503 311.843 311.217 315.227C311.217 315.227 311.997 327.882 311.788 329.078C311.579 330.275 313.453 334.026 313.453 334.755C313.453 335.483 313.972 340.431 313.972 340.431C313.972 340.431 315.088 347.968 315.122 348.538Z" fill="#AE6E79"/>
<path d="M319.231 196.435L318.337 197.402L317.754 198.032L314.347 201.694L305.546 202.686L300.862 201.434L299.703 201.124C299.703 201.124 299.703 198.773 299.912 195.954C300.21 192.339 300.921 187.949 302.62 186.752C303.471 186.086 304.15 185.226 304.6 184.244C304.94 183.567 305.225 182.863 305.452 182.14C305.486 182.047 305.512 181.957 305.541 181.864C305.925 180.602 306.201 179.31 306.367 178.001C306.367 178.001 307.492 177.38 309.054 176.656C313.129 174.752 320.168 172.125 317.72 178.001C317.36 178.862 317.053 179.744 316.8 180.642C316.762 180.774 316.728 180.906 316.698 181.033C315.88 184.304 316.421 186.288 317.03 187.382C317.133 187.572 317.251 187.753 317.383 187.923C317.55 188.152 317.749 188.354 317.975 188.524L318.989 194.958L319.074 195.49L319.231 196.435Z" fill="#AE6E79"/>
<path opacity="0.1" d="M317.724 178.317C317.26 179.432 317.95 177.405 317.724 178.317C315.867 179.637 311.494 183.397 309.037 183.397C307.377 183.397 306.878 183.094 305.456 182.451C305.887 181.104 306.193 179.72 306.372 178.317C306.372 178.317 321.109 170.192 317.724 178.317Z" fill="black"/>
<path d="M321.475 171.474C321.473 174.278 320.434 176.982 318.557 179.066C316.681 181.151 314.1 182.467 311.311 182.762C310.919 182.801 310.523 182.826 310.123 182.826C307.878 182.826 305.683 182.16 303.816 180.913C301.949 179.665 300.494 177.892 299.635 175.818C298.776 173.744 298.551 171.461 298.989 169.259C299.427 167.057 300.508 165.034 302.096 163.446C303.683 161.859 305.706 160.778 307.908 160.339C310.111 159.901 312.393 160.126 314.467 160.985C316.542 161.845 318.315 163.3 319.562 165.167C320.81 167.034 321.475 169.228 321.475 171.474Z" fill="#AE6E79"/>
<path opacity="0.1" d="M323.089 221.797L321.471 226.017C321.471 226.017 320.155 226.072 318.103 226.136C311.175 226.358 295.909 226.639 295.228 224.859C295.075 224.407 294.995 223.934 294.989 223.458C294.9 220.745 296.165 216.581 296.165 216.581C296.165 216.581 296.893 208.247 296.893 207.886C296.893 207.524 296.267 201.686 296.267 201.686L297.519 197.002L301.006 194.553C301.006 194.553 302.569 196.95 303.506 197.155C304.443 197.359 305.695 198.513 305.695 198.513C305.695 198.513 308.765 200.387 309.757 199.344C310.749 198.3 318.452 193.719 318.452 193.719L322.514 198.198L323.089 221.797Z" fill="black"/>
<path d="M323.089 222.444L321.471 226.66C321.471 226.66 320.155 226.72 318.103 226.783H317.903C317.017 226.813 316.004 226.843 314.922 226.864C309.416 226.992 301.832 227.026 297.868 226.439C296.378 226.226 295.403 225.919 295.241 225.502C295.151 225.251 295.088 224.991 295.053 224.727C295.028 224.531 295.011 224.301 295.002 224.101C294.913 221.388 296.178 217.224 296.178 217.224C296.178 217.224 296.906 208.89 296.906 208.529C296.906 208.167 296.28 202.329 296.28 202.329L297.532 197.645L299.929 195.967L301.019 195.2C301.386 195.749 301.785 196.275 302.216 196.776C302.552 197.227 303.001 197.581 303.519 197.802C304.46 198.011 305.707 199.16 305.707 199.16C305.707 199.16 308.778 201.034 309.77 199.991C310.523 199.195 315.207 196.329 317.371 195.021C318.035 194.617 318.465 194.366 318.465 194.366L319.01 194.97L322.527 198.845L323.089 222.444Z" fill="white"/>
<path opacity="0.1" d="M268.099 179.096L263.564 182.272C263.564 182.272 263.526 181.638 263.411 180.769C265.65 179.824 267.013 177.733 267.405 177.065C267.822 178.197 268.099 179.096 268.099 179.096Z" fill="black"/>
<path d="M284.033 189.878L283.045 189.614C283.045 189.614 281.427 191.317 280.49 191.543C279.553 191.768 277.578 193.05 277.578 193.05L275.282 194.873C275.282 194.873 273.579 195.137 274.086 193.936C274.593 192.735 273.149 191.228 273.149 191.228C273.149 191.228 270.232 185.241 270.232 183.989C270.232 182.737 267.822 177.482 267.822 177.482C267.822 177.482 264.799 183.367 259.28 181.493C259.28 181.493 263.291 190.5 263.394 192.739C263.496 194.979 266.153 201.226 266.153 201.226C266.153 201.226 267.145 205.863 272.506 205.603C272.506 205.603 279.903 206.979 281.516 205.603C283.13 204.228 284.587 203.146 285.349 202.989C286.111 202.831 286.805 201.95 286.805 201.95V195.758L284.033 189.878Z" fill="#4C4981"/>
<path opacity="0.1" d="M274.763 195.758C274.763 195.758 276.066 200.604 275.231 201.124L274.763 195.758Z" fill="black"/>
<path opacity="0.1" d="M318.103 226.762C311.175 226.984 295.909 227.26 295.228 225.485C295.075 225.033 294.995 224.56 294.989 224.084L317.622 225.276L318.103 226.762Z" fill="black"/>
<path opacity="0.1" d="M319.806 270.226C319.806 270.226 319.38 271.409 318.797 272.964C315.923 272.789 312.116 272.606 308.501 272.58C307.223 272.58 305.971 272.58 304.788 272.623C302.275 272.7 300.104 272.904 298.72 273.296C296.97 273.835 295.141 274.071 293.312 273.994C292.843 272.193 292.52 270.898 292.52 270.898C292.52 270.898 300.389 270.238 305.162 270.008L305.537 267.36L319.806 270.226Z" fill="black"/>
<path d="M325.9 251.166L325.014 253.04C325.014 253.04 324.891 253.597 324.733 254.483C324.401 256.391 323.881 259.831 324.077 262.574C324.337 266.585 323.502 272.674 323.502 272.674C323.502 272.674 304.34 271.06 298.72 272.674C293.099 274.288 290.331 272.674 290.331 272.674C290.331 272.674 291.012 266.636 289.343 263.511C288.206 261.381 287.406 251.877 287.38 245.626C287.38 242.743 287.525 240.559 287.887 240.116C289.032 238.711 293.925 224.65 293.925 224.65L295.041 224.71L298.021 224.867L314.969 225.762L317.63 225.902L317.911 226.754L325.9 251.166Z" fill="#444053"/>
<path d="M334.335 244.915L334.493 246.584C334.493 246.584 326.1 243.85 326.526 240.491C326.952 237.131 326.526 237.51 326.526 237.51L333.271 238.08L334.335 244.915Z" fill="#4C4981"/>
<path opacity="0.1" d="M334.335 244.915L334.493 246.584C334.493 246.584 326.1 243.85 326.526 240.491C326.952 237.131 326.526 237.51 326.526 237.51L333.271 238.08L334.335 244.915Z" fill="black"/>
<path opacity="0.1" d="M280.363 197.104C281.219 197.832 282.23 198.357 283.318 198.641C283.003 198.573 282.71 198.426 282.466 198.215C281.866 197.789 281.295 197.325 280.716 196.874C280.248 196.508 279.664 195.899 279.089 195.75C279.466 196.244 279.892 196.698 280.363 197.104Z" fill="black"/>
<path opacity="0.1" d="M280.49 199.297C280.76 199.602 280.979 199.948 281.138 200.323C281.406 201.383 281.39 202.495 281.091 203.547L279.745 200.302C279.511 199.748 279.277 199.195 278.996 198.667C278.872 198.441 278.097 197.5 278.187 197.304C278.425 196.75 280.239 198.986 280.49 199.297Z" fill="black"/>
<path opacity="0.1" d="M318.035 217.266C318.952 217.155 319.81 216.754 320.483 216.121C319.099 216.295 317.788 216.84 316.425 217.126C315.16 217.42 313.834 217.297 312.644 216.777C314.211 217.543 316.366 217.569 318.035 217.266Z" fill="black"/>
<path opacity="0.1" d="M314.122 207.732C313.873 207.769 313.621 207.706 313.419 207.558C312.38 206.961 311.355 206.34 310.345 205.692C309.361 205.058 308.173 204.415 307.334 203.615C309.399 205.48 311.324 207.055 314.122 207.732Z" fill="black"/>
<path opacity="0.1" d="M317.009 218.778C317.554 218.803 318.101 218.758 318.635 218.646C319.176 218.534 319.654 218.22 319.972 217.769C319.779 217.724 319.576 217.756 319.406 217.858C317.756 218.553 315.944 218.77 314.177 218.484C315.024 218.846 316.11 218.774 317.009 218.778Z" fill="black"/>
<path opacity="0.1" d="M307.147 242.956C306.062 243.283 304.948 243.501 303.821 243.608C302.944 243.648 302.065 243.631 301.189 243.557L296.931 243.288L294.802 243.152C294.551 243.152 293.525 243.152 294.031 242.645C294.287 242.398 295.709 242.556 296.075 242.543C296.782 242.521 297.492 242.508 298.204 242.505C299.614 242.505 301.028 242.505 302.437 242.59C304.017 242.667 305.571 242.786 307.147 242.956Z" fill="black"/>
<path opacity="0.1" d="M302.211 245.064C301.488 245.034 300.555 245.464 299.81 245.558C298.976 245.657 298.136 245.689 297.297 245.656C295.638 245.616 293.998 245.282 292.456 244.668C295.705 244.834 298.962 244.932 302.211 245.064Z" fill="black"/>
<path opacity="0.1" d="M293.09 247.295C293.405 247.359 293.715 247.444 294.019 247.551C295.816 248.062 297.727 247.61 299.554 247.159C299.099 247.845 298.277 248.138 297.455 248.326C296.118 248.664 294.725 248.715 293.367 248.475C292.941 248.39 291.872 248.236 291.664 247.793C291.315 247.142 292.69 247.231 293.09 247.295Z" fill="black"/>
<path opacity="0.1" d="M303.165 250.655C303.704 250.765 304.236 250.908 304.758 251.081C306.78 251.583 308.88 250.894 310.911 250.429C313.353 249.875 315.856 249.643 318.358 249.74C317.911 249.74 317.2 250.131 316.762 250.263C316.187 250.438 315.603 250.6 315.02 250.745C313.875 251.026 312.712 251.255 311.541 251.422C309.177 251.763 306.785 251.867 304.4 251.732C303.31 251.673 301.419 251.784 300.487 251.234C301.293 250.755 302.233 250.552 303.165 250.655Z" fill="black"/>
<path opacity="0.1" d="M303.927 186.433C303.927 186.433 304.03 191.227 303.25 193.416C303.003 194.097 302.62 195.354 302.203 196.763C301.747 198.326 301.249 200.076 300.866 201.447C300.483 202.818 300.227 203.738 300.227 203.738C300.227 203.738 298.468 218.063 298.013 224.889C298.013 225.008 298.013 225.131 297.987 225.246C297.962 225.629 297.919 226.03 297.855 226.443C296.842 233.222 290.995 243.676 289.032 244.51C288.42 244.791 287.861 245.176 287.38 245.647C287.38 242.764 287.525 240.58 287.887 240.137C289.032 238.732 293.925 224.671 293.925 224.671L295.041 224.731C295.015 224.535 294.998 224.305 294.989 224.105C294.9 221.393 296.165 217.228 296.165 217.228C296.165 217.228 296.893 208.895 296.893 208.533C296.893 208.171 296.267 202.333 296.267 202.333L297.519 197.649L299.916 195.971C300.214 192.356 300.925 187.966 302.624 186.769C303.475 186.103 304.154 185.243 304.605 184.261C304.941 184.308 304.328 184.01 304.328 184.01L303.927 186.433Z" fill="black"/>
<path d="M304.843 183.746C304.409 183.597 303.947 183.547 303.492 183.599C303.036 183.65 302.597 183.802 302.207 184.044C301.006 184.896 298.664 184.823 298.038 184.67C297.412 184.517 290.906 183.678 290.374 183.886C289.841 184.095 288.811 183.158 288.134 184.41C287.457 185.662 287.146 186.335 286.469 186.646C285.792 186.957 284.591 187.949 284.766 188.157C284.94 188.366 283.062 189.614 283.062 189.614L286.861 201.962C286.861 201.962 284.412 217.582 283.216 218.936C282.019 220.29 271.395 237.838 275.197 240.963C278.208 243.331 281.394 245.466 284.727 247.351C285.153 247.559 286.652 244.749 288.734 243.863C290.816 242.977 297.276 231.259 297.676 224.595C298.077 217.931 299.916 203.091 299.916 203.091C299.916 203.091 302.156 194.966 302.935 192.778C303.715 190.589 303.612 185.794 303.612 185.794L304.843 183.746Z" fill="#4C4981"/>
<path opacity="0.1" d="M325.9 251.166L325.014 253.04C325.014 253.04 324.891 253.597 324.733 254.483C324.575 254.463 324.427 254.397 324.307 254.292C323.004 253.248 315.365 245.388 314.986 238.408C314.718 233.26 314.845 228.823 314.931 226.847C314.956 226.226 314.982 225.851 314.982 225.77C314.982 225.77 320.918 218.582 320.241 216.036C319.564 213.489 318.001 199.855 318.001 199.855L317.771 198.066L317.375 195.043L316.429 187.727L317.409 187.957C317.575 188.186 317.775 188.388 318.001 188.558L319.014 194.992L322.531 198.867L323.106 222.457L321.488 226.673C321.488 226.673 320.172 226.732 318.12 226.796H317.92L325.9 251.166Z" fill="black"/>
<path d="M329.179 212.225C329.179 212.225 327.722 211.65 327.62 212.225C327.518 212.8 327.254 214.043 327.254 214.043C327.254 214.043 327.514 217.066 326.402 218.263C325.291 219.459 325.125 224.51 325.125 224.51C325.125 224.51 323.37 229.509 324.201 231.072C324.503 231.638 324.971 234.478 325.44 237.885C325.738 240.014 326.032 242.352 326.291 244.489C326.764 248.373 327.118 251.588 327.118 251.588C327.118 251.588 326.176 255.024 324.873 253.981C323.57 252.937 315.931 245.077 315.557 238.098C315.301 233.196 315.403 228.938 315.488 226.839C315.522 225.949 315.557 225.447 315.557 225.447C315.557 225.447 321.492 218.259 320.815 215.708C320.138 213.157 318.576 199.527 318.576 199.527L318.303 197.419L318.009 195.154L317.941 194.655L317 187.417C317.166 187.455 323.008 188.775 323.779 189.546C324.55 190.316 329.315 191.419 329.315 191.419C330.033 191.614 330.687 191.998 331.206 192.532C331.726 193.065 332.093 193.728 332.27 194.451C332.317 194.596 332.351 194.749 332.385 194.907C333.011 197.93 332.811 198.292 333.237 198.816C333.662 199.339 329.179 212.225 329.179 212.225Z" fill="#4C4981"/>
<path opacity="0.1" d="M326.326 244.485C324.196 244.059 321.037 243.075 321.109 240.904C321.173 238.873 323.617 238.14 325.47 237.88C325.768 240.001 326.062 242.347 326.326 244.485Z" fill="black"/>
<path d="M332.93 243.403C332.845 243.586 332.504 243.744 332.019 243.884C330.88 244.155 329.723 244.345 328.557 244.451C328.557 244.451 321.318 243.876 321.42 240.593C321.497 238.238 324.767 237.612 326.602 237.472C327.009 237.434 327.416 237.417 327.824 237.42C327.824 237.42 333.241 242.73 332.93 243.403Z" fill="#AE6E79"/>
<path opacity="0.1" d="M332.93 243.403C332.845 243.586 332.504 243.744 332.019 243.884C330.132 241.359 327.501 238.119 326.211 237.834L326.602 237.472C327.009 237.434 327.417 237.417 327.824 237.42C327.824 237.42 333.241 242.73 332.93 243.403Z" fill="black"/>
<path d="M331.108 198.467L333.237 198.782C334.005 200.136 334.859 201.44 335.792 202.686C336.364 203.398 336.692 204.274 336.728 205.186C336.728 205.186 339.854 209.819 340.842 210.338C341.83 210.858 343.341 214.401 343.341 214.401C343.341 214.401 345.79 216.015 345.79 217.837C345.833 219.357 345.99 220.871 346.258 222.368C346.314 222.628 345.896 225.86 344.853 227.478C343.81 229.096 342.767 232.664 342.822 233.303C342.877 233.942 339.905 237.263 339.075 238.302C338.382 239.274 337.772 240.302 337.252 241.376L334.493 246.584C334.493 246.584 328.659 237.991 326.526 237.523C326.526 237.523 328.919 235.232 330.115 234.815C331.312 234.397 332.462 230.982 332.513 230.182C332.564 229.381 333.607 226.796 334.697 226.349C335.787 225.902 336.366 225.412 335.898 224.68C335.43 223.948 335.898 222.551 335.898 222.551C335.898 222.551 332.824 218.489 332.406 216.164C331.989 213.839 329.179 212.259 329.179 212.259L327.565 208.299L331.108 198.467Z" fill="#4C4981"/>
<path opacity="0.1" d="M338.853 217.905C340.031 216.91 341.514 216.348 343.056 216.312C342.068 216.483 341.029 216.7 340.305 217.39C340.021 217.689 339.766 218.014 339.543 218.361C339.296 218.714 337.286 221.269 336.988 220.865C336.49 220.273 338.449 218.25 338.853 217.905Z" fill="black"/>
<path opacity="0.1" d="M334.135 215.44C334.454 215.412 334.76 215.3 335.021 215.115C335.282 214.931 335.489 214.68 335.621 214.388C335.875 213.801 336.032 213.177 336.085 212.54C336.238 211.474 336.452 210.417 336.728 209.376C336.811 209.17 336.846 208.948 336.831 208.727C336.815 208.506 336.75 208.291 336.639 208.099C336.525 207.766 336.37 207.449 336.179 207.153C335.796 207.579 335.685 208.571 335.528 209.142C335.332 209.849 335.153 210.56 334.982 211.271C334.893 211.612 334.186 215.44 334.135 215.44Z" fill="black"/>
<path opacity="0.1" d="M332.291 194.417C332.081 194.691 331.84 194.94 331.572 195.158C330.72 195.835 329.592 196.406 329.485 197.474C329.515 197.822 329.471 198.171 329.357 198.501C329.085 198.969 328.416 198.926 327.884 198.837C327.435 198.796 327.004 198.638 326.636 198.377C326.079 197.9 326.028 197.049 325.602 196.448C325.343 196.138 325.016 195.892 324.647 195.729C324.278 195.566 323.876 195.49 323.473 195.507C322.676 195.481 321.884 195.66 321.088 195.694C320.576 195.72 320.063 195.686 319.559 195.592C319.393 195.567 319.228 195.533 319.065 195.49C318.709 195.402 318.362 195.284 318.026 195.137C317.853 195.068 317.684 194.988 317.52 194.898C316.987 194.624 316.493 194.281 316.051 193.876C315.271 193.161 314.624 192.173 314.688 191.113C314.726 190.461 315.02 189.861 315.114 189.218C315.433 187.378 314.211 185.641 312.887 184.325C312.359 183.801 311.797 183.295 311.269 182.762C310.446 182.004 309.797 181.077 309.365 180.046C309.01 178.947 308.894 177.786 309.025 176.639C309.144 175.476 309.177 174.306 309.122 173.139C308.731 169 305.196 165.827 301.662 164.103L301.505 164.022C302.553 162.819 303.844 161.85 305.292 161.179C306.74 160.509 308.314 160.151 309.909 160.13C311.505 160.109 313.088 160.424 314.553 161.056C316.019 161.688 317.335 162.622 318.415 163.797C319.495 164.972 320.315 166.362 320.822 167.875C321.328 169.389 321.51 170.992 321.355 172.581C321.199 174.169 320.711 175.707 319.921 177.094C319.131 178.481 318.057 179.685 316.77 180.629C316.732 180.761 316.698 180.893 316.668 181.021C315.85 184.291 316.391 186.275 317 187.37C317.166 187.408 323.008 188.728 323.779 189.499C324.55 190.269 329.315 191.372 329.315 191.372C330.039 191.565 330.698 191.95 331.222 192.485C331.745 193.021 332.115 193.689 332.291 194.417Z" fill="black"/>
<path d="M300.755 161.02C300.989 160.752 301.343 160.615 301.581 160.356C302.318 159.555 301.581 158.248 301.849 157.192C302.139 156.021 303.578 155.51 304.779 155.633C305.98 155.757 307.104 156.31 308.305 156.447C310.17 156.655 311.975 155.846 313.794 155.373C315.612 154.901 317.809 154.875 319.061 156.268C320.313 157.66 320.228 160.032 321.786 161.041C322.506 161.505 323.413 161.556 324.192 161.893C325.045 162.33 325.752 163.007 326.228 163.839C327.461 165.776 328.004 168.073 327.769 170.358C327.637 171.593 327.279 172.794 327.135 174.029C326.988 175.311 327.074 176.609 327.39 177.861C327.718 179.138 328.429 180.518 329.702 180.927C329.997 180.992 330.282 181.09 330.554 181.221C331.291 181.681 331.193 182.762 331.005 183.605L330.247 187.101C330.976 187.655 332.108 187.416 332.802 188C333.08 188.254 333.286 188.577 333.398 188.937C333.741 189.914 333.778 190.973 333.505 191.972C333.232 192.971 332.662 193.864 331.87 194.532C331.018 195.209 329.89 195.78 329.783 196.844C329.816 197.191 329.772 197.542 329.656 197.87C329.387 198.339 328.714 198.296 328.182 198.207C327.734 198.166 327.306 198.007 326.939 197.747C326.377 197.27 326.33 196.418 325.904 195.818C325.645 195.508 325.318 195.263 324.949 195.1C324.58 194.936 324.178 194.86 323.775 194.877C322.974 194.851 322.187 195.03 321.386 195.068C319.54 195.144 317.737 194.493 316.366 193.254C315.582 192.535 314.939 191.551 314.999 190.487C315.037 189.839 315.331 189.235 315.425 188.592C315.74 186.756 314.522 185.015 313.198 183.699C311.873 182.383 310.319 181.17 309.672 179.42C308.863 177.252 309.646 174.833 309.429 172.534C309.037 168.391 305.507 165.223 301.969 163.494C301.181 163.089 299.84 162.063 300.755 161.02Z" fill="#444053"/>
<path opacity="0.1" d="M328.604 196.78C328.042 196.299 327.995 195.452 327.569 194.851C327.31 194.542 326.983 194.295 326.614 194.132C326.245 193.968 325.843 193.89 325.44 193.906C324.639 193.88 323.847 194.059 323.051 194.098C321.198 194.179 319.388 193.525 318.014 192.279C317.23 191.564 316.591 190.576 316.651 189.516C316.689 188.864 316.983 188.26 317.077 187.621C317.396 185.781 316.174 184.04 314.85 182.724C313.525 181.408 311.975 180.195 311.324 178.444C310.519 176.281 311.324 173.863 311.085 171.559C310.689 167.416 307.159 164.248 303.625 162.519C302.799 162.114 301.458 161.088 302.373 160.045C302.603 159.776 302.957 159.64 303.195 159.38C303.932 158.584 303.195 157.273 303.468 156.221C303.52 156.011 303.611 155.814 303.736 155.637C302.846 155.804 302.033 156.306 301.815 157.158C301.556 158.214 302.284 159.521 301.547 160.321C301.309 160.581 300.955 160.717 300.721 160.982C299.805 162.025 301.147 163.055 301.973 163.456C305.511 165.184 309.042 168.357 309.433 172.496C309.65 174.799 308.867 177.218 309.676 179.385C310.323 181.131 311.877 182.366 313.202 183.665C314.526 184.964 315.757 186.718 315.429 188.558C315.249 189.18 315.107 189.813 315.003 190.453C314.943 191.513 315.586 192.501 316.37 193.216C317.742 194.463 319.551 195.116 321.403 195.034C322.204 194.996 322.991 194.821 323.792 194.843C324.195 194.828 324.597 194.905 324.966 195.069C325.335 195.233 325.662 195.479 325.921 195.788C326.347 196.388 326.394 197.24 326.956 197.717C327.323 197.976 327.752 198.133 328.199 198.173C328.731 198.271 329.404 198.305 329.673 197.841C329.768 197.651 329.809 197.439 329.792 197.227C329.363 197.185 328.954 197.031 328.604 196.78Z" fill="black"/>
<path d="M266.617 171.474H237.163V142.45H266.638L266.617 171.474ZM266.191 127.712H237.589C237.589 82.6092 280.46 85.2451 280.46 56.7108C280.46 40.9938 267.596 28.4023 251.879 28.4023C236.162 28.4023 223.303 41.9775 223.303 57.1579H194.722C194.709 49.6482 196.178 42.2099 199.046 35.2693C201.914 28.3288 206.124 22.0226 211.434 16.7125C216.744 11.4023 223.05 7.19257 229.991 4.32469C236.931 1.45681 244.37 -0.0128167 251.879 8.42041e-05C283.45 8.42041e-05 309.037 25.1874 309.037 56.7108C309.037 92.3903 266.17 96.4527 266.17 127.712H266.191Z" fill="#D79922"/>
<path opacity="0.1" d="M119.713 162.83H112.117V155.327H119.713V162.83ZM119.598 151.545H112.232C112.232 139.921 123.282 140.598 123.282 133.235C123.278 132.272 123.084 131.319 122.712 130.43C122.339 129.542 121.796 128.736 121.111 128.057C120.427 127.379 119.616 126.842 118.725 126.478C117.833 126.113 116.878 125.928 115.915 125.932C113.97 125.977 112.117 126.774 110.747 128.156C109.376 129.537 108.595 131.396 108.565 133.342H101.199C101.247 129.475 102.814 125.783 105.56 123.061C108.306 120.339 112.011 118.805 115.878 118.79C119.744 118.775 123.461 120.28 126.229 122.981C128.996 125.681 130.591 129.361 130.67 133.227C130.648 142.424 119.598 143.472 119.598 151.528V151.545Z" fill="#D79922"/>
<path opacity="0.1" d="M177.233 214.954H169.636V207.473H177.233V214.954ZM177.122 203.674H169.756C169.756 192.045 180.806 192.726 180.806 185.364C180.802 184.401 180.608 183.448 180.236 182.56C179.863 181.672 179.319 180.866 178.635 180.188C177.951 179.51 177.14 178.974 176.248 178.609C175.357 178.245 174.402 178.06 173.439 178.065C171.485 178.101 169.622 178.894 168.243 180.279C166.865 181.663 166.078 183.53 166.051 185.483H158.684C158.733 181.617 160.299 177.925 163.045 175.203C165.791 172.481 169.497 170.947 173.363 170.932C177.23 170.917 180.947 172.422 183.714 175.122C186.481 177.823 188.076 181.503 188.155 185.368C188.168 194.566 177.122 195.618 177.122 203.674Z" fill="#D79922"/>
<path opacity="0.1" d="M212.21 122.679H206.704V117.267H212.21V122.679ZM212.129 114.499H206.789C206.789 106.076 214.799 106.566 214.799 101.234C214.796 100.537 214.655 99.8462 214.385 99.2028C214.115 98.5593 213.72 97.9753 213.224 97.4842C212.729 96.9931 212.141 96.6045 211.495 96.3405C210.849 96.0766 210.157 95.9424 209.459 95.9458C208.046 95.9744 206.699 96.5508 205.703 97.5534C204.707 98.556 204.139 99.9064 204.119 101.32H198.78C198.768 98.4873 199.883 95.7664 201.878 93.7556C203.872 91.7448 206.584 90.6088 209.417 90.5975C212.249 90.5862 214.97 91.7005 216.981 93.6954C218.991 95.6902 220.127 98.4021 220.139 101.234C220.13 107.899 212.129 108.661 212.129 114.499Z" fill="#D79922"/>
<path opacity="0.1" d="M306.248 130.318H303.135V127.252H306.248V130.318ZM306.201 125.698H303.165C303.165 120.937 307.692 121.214 307.692 118.199C307.692 117.805 307.614 117.415 307.462 117.051C307.31 116.687 307.087 116.357 306.807 116.08C306.526 115.802 306.194 115.583 305.828 115.436C305.462 115.288 305.071 115.214 304.677 115.219C303.878 115.235 303.117 115.561 302.554 116.127C301.991 116.693 301.67 117.456 301.658 118.255H298.639C298.674 116.681 299.322 115.184 300.445 114.081C301.569 112.978 303.078 112.358 304.652 112.352C306.226 112.346 307.74 112.954 308.872 114.048C310.003 115.142 310.663 116.635 310.711 118.208C310.728 121.951 306.201 122.398 306.201 125.698Z" fill="#D79922"/>
<path opacity="0.1" d="M353.838 269.762H350.725V266.696H353.838V269.762ZM353.791 265.141H350.772C350.772 260.377 355.303 260.658 355.303 257.643C355.297 256.847 354.976 256.087 354.41 255.528C353.844 254.969 353.079 254.657 352.284 254.662C351.485 254.677 350.723 255.003 350.16 255.569C349.596 256.136 349.275 256.899 349.265 257.698H346.245C346.281 256.125 346.929 254.627 348.052 253.524C349.175 252.422 350.685 251.801 352.259 251.795C353.833 251.789 355.347 252.398 356.478 253.492C357.61 254.586 358.27 256.078 358.317 257.651C358.334 261.411 353.808 261.841 353.808 265.141H353.791Z" fill="#D79922"/>
<defs>
<linearGradient id="paint0_linear" x1="296.88" y1="354.304" x2="296.88" y2="154.701" gradientUnits="userSpaceOnUse">
<stop stop-color="#808080" stop-opacity="0.25"/>
<stop offset="0.54" stop-color="#808080" stop-opacity="0.12"/>
<stop offset="1" stop-color="#808080" stop-opacity="0.1"/>
</linearGradient>
</defs>
</svg>
