<svg width="188" height="158" viewBox="0 0 188 158" fill="none" xmlns="http://www.w3.org/2000/svg">
<path opacity="0.1" d="M19.0522 4.72302C11.9832 5.98855 3.86587 8.24381 1.0062 15.1778C-1.607 21.5172 1.45999 28.6585 3.52357 35.2189C5.55716 41.6959 6.612 48.4402 6.65316 55.2288C6.70597 64.7779 4.84582 74.8474 8.6248 83.5242C12.8889 93.3139 23.4415 98.9765 27.1402 109.011C28.6914 113.218 28.8791 117.823 29.6185 122.269C31.2576 132.121 35.7349 141.426 42.307 148.633C46.6767 153.426 52.3667 157.447 58.6689 157.543C63.4494 157.617 67.9638 155.448 72.3922 153.549C77.5585 151.334 82.8539 149.433 88.2494 147.857C90.5223 147.194 92.8636 146.583 95.2147 146.791C99.7448 147.182 103.524 150.507 107.823 152.072C119.475 156.297 131.52 147.116 143.813 146.147C154.352 145.316 164.938 150.615 175.293 148.403C176.819 148.076 178.45 147.483 179.25 146.075C180.574 143.741 178.931 140.512 180.109 138.093C181.286 135.673 184.465 135.423 186.331 133.582C188.23 131.708 188.385 128.473 187.416 125.928C186.448 123.383 184.58 121.357 182.785 119.376C173.897 109.561 165.714 99.1304 158.298 88.1618C150.732 76.9755 143.651 63.8175 145.779 50.2605C146.515 45.5955 148.322 41.1808 149.141 36.5314C149.961 31.882 149.625 26.6165 146.618 23.1074C144.823 21.0106 142.303 19.7998 139.858 18.6458C117.055 7.88195 92.623 -3.14008 67.9345 0.934256C63.9149 1.59734 59.9364 2.6614 55.8699 2.80614C49.9843 3.01739 44.4449 0.386578 38.6963 1.24135C32.1691 2.20565 25.5735 3.55529 19.0522 4.72302Z" fill="#D79922"/>
<path d="M37.0884 33.4182C37.0884 33.4182 29.0434 29.0015 26.6571 22.2357C25.6751 19.3907 23.7965 16.9411 21.3035 15.2548C20.1139 14.4632 18.8541 13.7822 17.5402 13.2206" stroke="#535461" stroke-width="2" stroke-miterlimit="10"/>
<path d="M16.0145 8.96628C16.7754 9.73107 17.595 13.3281 17.595 13.3281C17.595 13.3281 14.0038 12.4871 13.2429 11.7203C12.9069 11.3472 12.7272 10.8591 12.7412 10.3572C12.7551 9.85523 12.9615 9.37787 13.3177 9.02394C13.6739 8.67001 14.1526 8.46663 14.6546 8.45589C15.1566 8.44516 15.6435 8.6279 16.0145 8.96628Z" fill="#D79922"/>
<path d="M22.5182 10.9281C22.7412 11.9844 21.4757 15.4484 21.4757 15.4484C21.4757 15.4484 18.9192 12.7902 18.6962 11.732C18.6149 11.2353 18.7282 10.7262 19.0126 10.3109C19.297 9.89551 19.7306 9.60578 20.2232 9.50198C20.7157 9.39817 21.2294 9.48827 21.6572 9.75354C22.0851 10.0188 22.3941 10.4388 22.5202 10.9262L22.5182 10.9281Z" fill="#D79922"/>
<path d="M29.6185 18.2709C29.2782 19.2939 26.4361 21.647 26.4361 21.647C26.4361 21.647 25.5716 18.0616 25.9119 17.0367C26.0756 16.5439 26.4283 16.1363 26.8925 15.9035C27.3567 15.6708 27.8944 15.632 28.3872 15.7956C28.88 15.9593 29.2877 16.312 29.5204 16.7762C29.7532 17.2405 29.792 17.7781 29.6283 18.2709H29.6185Z" fill="#D79922"/>
<path d="M33.7476 25.0367C33.5853 26.1028 31.1814 28.9018 31.1814 28.9018C31.1814 28.9018 29.7222 25.514 29.8845 24.448C29.9116 24.1845 29.9918 23.9293 30.1205 23.6978C30.2491 23.4663 30.4234 23.2633 30.6328 23.1012C30.8422 22.9391 31.0823 22.8211 31.3387 22.7546C31.595 22.688 31.8622 22.6742 32.124 22.714C32.3859 22.7537 32.6369 22.8463 32.8619 22.9859C33.0869 23.1256 33.2812 23.3095 33.433 23.5265C33.5848 23.7435 33.691 23.9891 33.7451 24.2484C33.7992 24.5076 33.8 24.7752 33.7476 25.0348V25.0367Z" fill="#D79922"/>
<path d="M18.7138 18.49C19.7935 18.4783 22.8996 16.4871 22.8996 16.4871C22.8996 16.4871 19.7485 14.5702 18.6688 14.582C18.15 14.5879 17.6549 14.7997 17.2923 15.1708C16.9297 15.5418 16.7293 16.0417 16.7353 16.5605C16.7413 17.0792 16.9531 17.5744 17.3241 17.937C17.6951 18.2996 18.195 18.4999 18.7138 18.494V18.49Z" fill="#D79922"/>
<path d="M23.6331 26.3414C24.6581 26.0069 27.0268 23.1785 27.0268 23.1785C27.0268 23.1785 23.4454 22.2925 22.4204 22.627C21.9455 22.8018 21.5569 23.154 21.3362 23.6094C21.1154 24.0649 21.0799 24.5881 21.2368 25.0692C21.3938 25.5504 21.7312 25.9519 22.1781 26.1895C22.6249 26.4271 23.1465 26.4822 23.6331 26.3433V26.3414Z" fill="#D79922"/>
<path d="M29.462 33.3165C30.53 33.16 33.3427 30.7737 33.3427 30.7737C33.3427 30.7737 29.9627 29.2949 28.8967 29.4514C28.6342 29.4785 28.3798 29.5584 28.149 29.6864C27.9181 29.8143 27.7156 29.9877 27.5535 30.196C27.3914 30.4043 27.2732 30.6432 27.2059 30.8984C27.1386 31.1537 27.1237 31.4198 27.162 31.681C27.2003 31.9421 27.291 32.1928 27.4288 32.4179C27.5665 32.6431 27.7484 32.838 27.9635 32.991C28.1786 33.144 28.4224 33.2519 28.6802 33.3081C28.9381 33.3644 29.2047 33.3679 29.464 33.3184L29.462 33.3165Z" fill="#D79922"/>
<path d="M29.8512 60.4109C29.8512 60.4109 21.8062 55.9943 19.4199 49.2285C18.4379 46.3835 16.5594 43.9338 14.0664 42.2476C12.8767 41.4559 11.617 40.775 10.303 40.2133" stroke="#535461" stroke-width="2" stroke-miterlimit="10"/>
<path d="M8.77735 35.959C9.53823 36.7238 10.3578 40.3209 10.3578 40.3209C10.3578 40.3209 6.76658 39.4798 6.0057 38.713C5.66969 38.3399 5.49006 37.8518 5.50399 37.3499C5.51792 36.8479 5.72436 36.3706 6.08055 36.0167C6.43674 35.6627 6.9154 35.4593 7.41742 35.4486C7.91943 35.4379 8.40635 35.6206 8.77735 35.959Z" fill="#D79922"/>
<path d="M15.281 37.9209C15.504 38.9771 14.2385 42.4412 14.2385 42.4412C14.2385 42.4412 11.682 39.783 11.459 38.7248C11.3777 38.228 11.491 37.719 11.7754 37.3036C12.0598 36.8882 12.4934 36.5985 12.9859 36.4947C13.4785 36.3909 13.9922 36.481 14.42 36.7463C14.8478 37.0115 15.1569 37.4315 15.283 37.9189L15.281 37.9209Z" fill="#D79922"/>
<path d="M22.3813 45.2637C22.041 46.2867 19.1989 48.6398 19.1989 48.6398C19.1989 48.6398 18.3344 45.0544 18.6747 44.0295C18.7557 43.7855 18.884 43.5598 19.0523 43.3653C19.2206 43.1709 19.4255 43.0115 19.6553 42.8963C19.8852 42.781 20.1355 42.7122 20.3919 42.6937C20.6484 42.6752 20.906 42.7074 21.15 42.7884C21.394 42.8694 21.6197 42.9977 21.8141 43.166C22.0086 43.3343 22.168 43.5392 22.2832 43.769C22.3984 43.9989 22.4673 44.2492 22.4858 44.5056C22.5043 44.7621 22.4721 45.0197 22.3911 45.2637H22.3813Z" fill="#D79922"/>
<path d="M26.5104 52.0295C26.3481 53.0955 23.9441 55.8945 23.9441 55.8945C23.9441 55.8945 22.485 52.5067 22.6473 51.4407C22.6744 51.1773 22.7546 50.9221 22.8833 50.6906C23.0119 50.459 23.1862 50.2561 23.3956 50.0939C23.605 49.9318 23.8451 49.8139 24.1015 49.7473C24.3578 49.6807 24.625 49.6669 24.8868 49.7067C25.1487 49.7465 25.3997 49.839 25.6247 49.9787C25.8497 50.1184 26.044 50.3023 26.1958 50.5193C26.3476 50.7363 26.4538 50.9819 26.5079 51.2411C26.5619 51.5004 26.5628 51.7679 26.5104 52.0275V52.0295Z" fill="#D79922"/>
<path d="M11.4767 45.4827C12.5564 45.471 15.6625 43.4798 15.6625 43.4798C15.6625 43.4798 12.5114 41.5629 11.4317 41.5747C10.9129 41.5806 10.4178 41.7924 10.0552 42.1635C9.69257 42.5345 9.49221 43.0344 9.49818 43.5532C9.50414 44.0719 9.71594 44.5671 10.087 44.9297C10.458 45.2923 10.9579 45.4926 11.4767 45.4867V45.4827Z" fill="#D79922"/>
<path d="M16.396 53.3341C17.4209 52.9997 19.7896 50.1713 19.7896 50.1713C19.7896 50.1713 16.2082 49.2852 15.1833 49.6197C14.9303 49.6919 14.6946 49.8143 14.49 49.9797C14.2855 50.1451 14.1165 50.3501 13.993 50.5823C13.8695 50.8145 13.7941 51.0693 13.7714 51.3313C13.7486 51.5934 13.7789 51.8573 13.8605 52.1074C13.9421 52.3574 14.0733 52.5884 14.2463 52.7866C14.4192 52.9848 14.6303 53.1461 14.867 53.2608C15.1037 53.3755 15.3611 53.4413 15.6238 53.4542C15.8865 53.4672 16.1491 53.427 16.396 53.3361V53.3341Z" fill="#D79922"/>
<path d="M22.2248 60.3092C23.2928 60.1527 26.1055 57.7664 26.1055 57.7664C26.1055 57.7664 22.7256 56.2877 21.6596 56.4442C21.397 56.4712 21.1427 56.5511 20.9118 56.6791C20.681 56.807 20.4784 56.9804 20.3164 57.1887C20.1543 57.397 20.036 57.636 19.9687 57.8912C19.9015 58.1464 19.8865 58.4126 19.9248 58.6737C19.9631 58.9349 20.0539 59.1855 20.1916 59.4107C20.3294 59.6358 20.5113 59.8307 20.7263 59.9837C20.9414 60.1367 21.1852 60.2446 21.4431 60.3009C21.701 60.3571 21.9676 60.3606 22.2268 60.3112L22.2248 60.3092Z" fill="#D79922"/>
<path d="M123.113 8.30029e-06H32.2434C31.1502 -0.00153398 30.0674 0.212264 29.0568 0.629196C28.0462 1.04613 27.1276 1.65803 26.3535 2.42996C25.5794 3.20189 24.9649 4.11874 24.5452 5.12815C24.1254 6.13756 23.9085 7.21977 23.907 8.31298V134.224C23.9083 135.318 24.1249 136.4 24.5446 137.41C24.9643 138.419 25.5787 139.336 26.3528 140.109C27.127 140.881 28.0456 141.493 29.0564 141.91C30.0671 142.327 31.15 142.541 32.2434 142.539H123.113C124.206 142.541 125.289 142.327 126.3 141.91C127.31 141.493 128.229 140.881 129.003 140.109C129.777 139.337 130.392 138.42 130.811 137.411C131.231 136.402 131.448 135.319 131.45 134.226V8.31103C131.446 6.10352 130.566 3.98783 129.002 2.42927C127.439 0.870704 125.321 -0.00310678 123.113 8.30029e-06Z" fill="url(#paint0_linear)"/>
<path d="M126.258 1.70761H29.1001C26.9396 1.70761 25.1881 3.45907 25.1881 5.6196V137.344C25.1881 139.505 26.9396 141.256 29.1001 141.256H126.258C128.419 141.256 130.17 139.505 130.17 137.344V5.6196C130.17 3.45907 128.419 1.70761 126.258 1.70761Z" fill="#535461"/>
<path d="M124.836 14.9086H30.5222V128.057H124.836V14.9086Z" fill="#F1F1F4"/>
<path d="M77.2528 9.3888C77.9604 9.3888 78.534 8.8152 78.534 8.10762C78.534 7.40005 77.9604 6.82645 77.2528 6.82645C76.5453 6.82645 75.9716 7.40005 75.9716 8.10762C75.9716 8.8152 76.5453 9.3888 77.2528 9.3888Z" fill="white"/>
<path d="M77.2528 138.269C79.3745 138.269 81.0944 136.549 81.0944 134.428C81.0944 132.306 79.3745 130.586 77.2528 130.586C75.1312 130.586 73.4113 132.306 73.4113 134.428C73.4113 136.549 75.1312 138.269 77.2528 138.269Z" fill="white"/>
<path d="M57.953 29.6059H44.2024C42.9223 29.6059 41.8845 30.6437 41.8845 31.9238V45.6744C41.8845 46.9545 42.9223 47.9923 44.2024 47.9923H57.953C59.2331 47.9923 60.2709 46.9545 60.2709 45.6744V31.9238C60.2709 30.6437 59.2331 29.6059 57.953 29.6059Z" fill="#D79922"/>
<path opacity="0.2" d="M97.4054 47.9923H111.156C112.436 47.9923 113.474 46.9545 113.474 45.6744V31.9238C113.474 30.6437 112.436 29.6059 111.156 29.6059L97.4054 29.6059C96.1253 29.6059 95.0875 30.6437 95.0875 31.9238V45.6744C95.0875 46.9545 96.1253 47.9923 97.4054 47.9923Z" fill="#D79922"/>
<path d="M84.5545 29.6059H70.8039C69.5238 29.6059 68.4861 30.6437 68.4861 31.9238V45.6744C68.4861 46.9545 69.5238 47.9923 70.8039 47.9923H84.5545C85.8347 47.9923 86.8724 46.9545 86.8724 45.6744V31.9238C86.8724 30.6437 85.8347 29.6059 84.5545 29.6059Z" fill="#D79922"/>
<path d="M57.953 62.0754H44.2024C42.9223 62.0754 41.8845 63.1132 41.8845 64.3933V78.1439C41.8845 79.4241 42.9223 80.4618 44.2024 80.4618H57.953C59.2331 80.4618 60.2709 79.4241 60.2709 78.1439V64.3933C60.2709 63.1132 59.2331 62.0754 57.953 62.0754Z" fill="#D79922"/>
<path opacity="0.2" d="M97.4054 80.4618H111.156C112.436 80.4618 113.474 79.4241 113.474 78.1439V64.3933C113.474 63.1132 112.436 62.0754 111.156 62.0754H97.4054C96.1253 62.0754 95.0875 63.1132 95.0875 64.3933V78.1439C95.0875 79.4241 96.1253 80.4618 97.4054 80.4618Z" fill="#D79922"/>
<path opacity="0.2" d="M84.5545 62.0754H70.8039C69.5238 62.0754 68.4861 63.1132 68.4861 64.3933V78.1439C68.4861 79.4241 69.5238 80.4618 70.8039 80.4618H84.5545C85.8347 80.4618 86.8724 79.4241 86.8724 78.1439V64.3933C86.8724 63.1132 85.8347 62.0754 84.5545 62.0754Z" fill="#D79922"/>
<path d="M57.953 94.545H44.2024C42.9223 94.545 41.8845 95.5827 41.8845 96.8628V110.613C41.8845 111.894 42.9223 112.931 44.2024 112.931H57.953C59.2331 112.931 60.2709 111.894 60.2709 110.613V96.8628C60.2709 95.5827 59.2331 94.545 57.953 94.545Z" fill="#D79922"/>
<path d="M97.4054 112.931H111.156C112.436 112.931 113.474 111.894 113.474 110.613V96.8628C113.474 95.5827 112.436 94.5449 111.156 94.5449H97.4054C96.1253 94.5449 95.0875 95.5827 95.0875 96.8628V110.613C95.0875 111.894 96.1253 112.931 97.4054 112.931Z" fill="#D79922"/>
<path d="M84.5545 94.545H70.8039C69.5238 94.545 68.4861 95.5827 68.4861 96.8628V110.613C68.4861 111.894 69.5238 112.931 70.8039 112.931H84.5545C85.8347 112.931 86.8724 111.894 86.8724 110.613V96.8628C86.8724 95.5827 85.8347 94.545 84.5545 94.545Z" fill="#D79922"/>
<path d="M154.528 54.3571C154.492 54.1475 154.413 53.9477 154.296 53.7703C154.157 53.6082 154.003 53.4595 153.836 53.3263C152.913 52.4578 153.409 50.893 153.053 49.6862C152.662 48.3972 151.293 47.4094 150.104 46.7522C149.912 46.6412 149.705 46.5576 149.49 46.5038C149.221 46.4607 148.948 46.4391 148.676 46.4392C148.25 46.4136 147.831 46.3185 147.436 46.1576C146.871 45.9268 146.366 45.5708 145.787 45.3752C145.674 45.3339 145.554 45.3172 145.435 45.3263C144.803 45.2676 144.782 46.0539 144.103 46.5096C143.821 46.7052 143.553 46.9752 143.553 47.3116C143.553 47.7713 144.023 48.0744 144.441 48.2759C144.86 48.4774 144.956 48.4383 145.038 48.4363H145.073C145.13 48.4461 145.192 48.495 145.355 48.673C144.098 48.869 142.953 49.5059 142.123 50.4697C141.293 51.4334 140.834 52.661 140.827 53.9326C140.826 54.6743 140.983 55.4076 141.286 56.0842C141.269 56.2094 141.249 56.3385 141.228 56.4754C141.022 57.7371 140.641 59.2588 139.987 60.5185C139.451 60.628 139.113 60.7141 139.113 60.7141C139.118 60.7399 139.122 60.766 139.123 60.7923L138.927 60.9371L138.106 61.5239C136.488 58.8422 134.835 55.5131 134.769 53.0133C134.769 53.0133 134.573 53.1483 134.241 53.3595V51.5835L134.135 51.5639L134.241 51.3683L135.004 49.9248C135.291 49.3818 135.446 48.7786 135.455 48.1644C135.491 45.8955 135.416 40.3013 133.848 39.3722C131.87 38.1986 131.475 43.2725 130.421 45.872C129.638 47.8104 130.029 50.6192 130.268 51.9199C130.286 52.0079 130.301 52.0881 130.317 52.1625C129.674 52.4049 129.048 52.6918 128.445 53.0211C128.862 53.1855 129.173 54.4901 129.345 55.429C129.362 55.5287 129.38 55.6246 129.396 55.7126C128.998 55.8377 128.592 55.937 128.181 56.0099L131.581 63.427C130.855 64.2681 129.341 65.741 128.181 64.9781C126.599 63.9376 121.726 64.4578 121.726 64.4578C121.726 64.4578 118.941 57.0622 119.074 54.848C119.074 54.848 118.927 54.9224 118.683 55.0436V53.027C118.592 53.088 118.498 53.1423 118.399 53.1894L118.503 53.0055L118.653 52.7375C118.941 52.2297 119.112 51.6646 119.154 51.0828C119.318 48.8079 119.559 42.9673 117.76 42.2377C115.518 41.3282 114.859 47.826 114.859 47.826L115.336 53.7097L115.346 53.8407C114.282 53.9346 113.407 53.9346 113.407 53.9346C113.675 54.1987 113.761 55.6559 113.799 56.5693C113.799 56.6632 113.799 56.7493 113.799 56.8295C113.255 56.9234 112.789 56.9312 112.486 56.7943L116.046 66.4119C116.046 66.4119 116.31 68.7591 120.924 69.7918C123.637 70.4041 125.529 70.9654 126.628 71.3332C124.746 75.7928 118.217 91.8711 120.132 95.7831C120.132 95.7831 121.157 95.3919 122.205 95.0476C122.448 98.4198 122.869 103.527 123.379 106.799C122.822 108.522 122.401 109.968 122.264 110.795C122.252 110.864 122.243 110.928 122.235 110.991C121.844 114.111 118.675 120.09 123.422 125.158C123.422 125.158 126.718 127.114 126.982 129.448C127.203 131.415 130.687 136.321 131.79 137.835C130.908 139.351 128.42 143.349 126.19 144.395C123.422 145.696 125.662 147.515 128.298 147.134C130.935 146.752 139.643 140.505 139.643 140.505C139.643 140.505 139.583 136.421 138.757 136.124L137.965 134.488C138.405 134.42 138.835 134.302 139.248 134.136C142.808 132.706 147.686 130.107 147.686 130.107C147.686 130.107 147.782 127.054 146.399 125.935C145.691 123.75 142.413 121.788 142.413 121.788C142.413 121.788 140.036 115.676 134.235 113.982C134.235 113.982 133.298 112.661 133.333 111.149C133.715 110.418 133.973 109.952 133.973 109.952L136.973 102.833C137.75 102.14 138.41 101.327 138.929 100.425C138.974 100.344 139.017 100.262 139.058 100.18C140.868 100.393 142.286 100.607 142.286 100.607L142.155 94.367C140.96 81.4926 144.652 77.7234 144.652 77.7234C144.652 77.7234 149.934 71.3547 150.454 66.805C150.941 62.6055 147.385 62.3943 146.835 62.3864C146.73 61.7637 146.754 61.1261 146.904 60.5126L146.966 60.5576C147.078 60.649 147.214 60.7055 147.358 60.7199C147.386 60.7227 147.415 60.7227 147.444 60.7199H147.491C147.62 60.7138 147.746 60.6748 147.856 60.6065C149.235 59.8828 150.309 58.5742 151.823 58.1967C152.14 58.1185 152.471 58.0833 152.782 57.9816C153.13 57.8587 153.449 57.6649 153.718 57.4124C153.987 57.1598 154.201 56.8541 154.346 56.5146C154.631 55.832 154.694 55.0776 154.528 54.3571ZM135.164 123.208C135.428 124.118 139.647 127.237 139.647 127.237L139.809 128.358C138.728 129.383 137.59 130.346 136.4 131.243L134.9 128.147C134.9 128.147 132.658 120.998 130.681 120.219C130.315 120.075 130.198 119.633 130.249 119.012C131.534 119.953 134.945 122.479 135.158 123.214L135.164 123.208Z" fill="url(#paint1_linear)"/>
<path d="M127.299 70.5253C127.299 70.5253 118.333 91.2745 120.51 95.7577C120.51 95.7577 124.097 94.3494 124.617 94.6056C125.138 94.8618 130.252 67.8358 130.252 67.8358L127.299 70.5253Z" fill="#575988"/>
<path opacity="0.05" d="M127.299 70.5253C127.299 70.5253 118.333 91.2745 120.51 95.7577C120.51 95.7577 124.097 94.3494 124.617 94.6056C125.138 94.8618 130.252 67.8358 130.252 67.8358L127.299 70.5253Z" fill="black"/>
<path d="M132.165 136.616C132.165 136.616 129.091 142.381 126.401 143.658C123.712 144.935 125.889 146.733 128.451 146.347C131.013 145.962 139.467 139.814 139.467 139.814C139.467 139.814 139.408 135.791 138.605 135.498C137.801 135.204 132.165 136.616 132.165 136.616Z" fill="#575988"/>
<path d="M140.236 127.267C140.236 127.267 135.882 131.621 133.959 132.006C132.036 132.392 135.624 134.952 139.082 133.544C142.54 132.135 147.279 129.573 147.279 129.573C147.279 129.573 147.407 125.465 145.23 125.09C143.052 124.714 140.236 127.267 140.236 127.267Z" fill="#575988"/>
<path d="M122.303 91.6579C122.303 91.6579 123.199 107.284 124.353 109.457C125.507 111.631 129.861 118.295 129.861 118.295C129.861 118.295 134.857 121.882 135.113 122.778C135.369 123.674 139.467 126.748 139.467 126.748L139.723 128.542C139.723 128.542 146.513 128.151 146.127 125.853C145.742 123.554 142.157 121.369 142.157 121.369C142.157 121.369 139.851 115.349 134.215 113.684C134.215 113.684 132.422 111.122 133.959 109.074C133.959 109.074 137.803 99.4682 139.98 98.3161C142.157 97.1641 139.082 90.5098 139.082 90.5098L122.303 91.6579Z" fill="#67647E"/>
<path opacity="0.05" d="M122.303 91.6579C122.303 91.6579 123.199 107.284 124.353 109.457C125.507 111.631 129.861 118.295 129.861 118.295C129.861 118.295 134.857 121.882 135.113 122.778C135.369 123.674 139.467 126.748 139.467 126.748L139.723 128.542C139.723 128.542 146.513 128.151 146.127 125.853C145.742 123.554 142.157 121.369 142.157 121.369C142.157 121.369 139.851 115.349 134.215 113.684C134.215 113.684 132.422 111.122 133.959 109.074C133.959 109.074 137.803 99.4682 139.98 98.3161C142.157 97.1641 139.082 90.5098 139.082 90.5098L122.303 91.6579Z" fill="black"/>
<path d="M134.855 127.65L138.962 136.231C138.323 138.408 132.173 137.639 132.173 137.639C132.173 137.639 127.434 131.235 127.178 128.929C126.921 126.623 123.719 124.702 123.719 124.702C119.109 119.707 122.182 113.815 122.567 110.741C122.567 110.682 122.585 110.617 122.595 110.545C122.935 108.483 125.008 102.553 126.62 98.1107C127.708 95.1181 128.586 92.8022 128.586 92.8022C128.586 92.8022 137.167 93.1934 138.953 96.2604C139.774 97.6687 139.406 99.1337 138.767 100.307C138.266 101.194 137.627 101.995 136.873 102.68L133.957 109.71C133.957 109.71 128.836 119.067 130.765 119.838C132.694 120.609 134.855 127.65 134.855 127.65Z" fill="#67647E"/>
<path d="M119.559 51.7028C119.519 52.2755 119.353 52.8323 119.074 53.3341L118.927 53.5982L118.205 54.8989H115.899L115.85 54.2925L115.387 48.495C115.387 48.495 116.027 42.0911 118.205 42.9869C119.952 43.7067 119.719 49.4612 119.559 51.7028Z" fill="#F7C4A7"/>
<path opacity="0.1" d="M118.927 53.5962L118.205 54.897H115.899L115.85 54.2906C116.924 54.1967 118.202 54.0011 118.927 53.5962Z" fill="black"/>
<path d="M119.101 53.6177V56.5635L114.362 57.8446C114.362 57.8446 114.362 57.5375 114.348 57.1111C114.321 56.2114 114.237 54.7757 113.977 54.5155C113.979 54.5194 117.82 54.5195 119.101 53.6177Z" fill="#E6E6F0"/>
<path opacity="0.1" d="M119.101 55.3449V56.5635L114.362 57.8446C114.362 57.8446 114.362 57.5375 114.348 57.1111C115.927 56.8353 118.205 55.7811 119.101 55.3449Z" fill="black"/>
<path d="M146.743 60.2055C145.809 62.9048 147.023 64.1175 147.023 64.1175C147.023 64.1175 135.495 64.8862 138.313 62.8363C139.958 61.6393 140.688 58.9987 141.008 57.0114C141.145 56.1869 141.229 55.3546 141.261 54.5194C141.261 54.5194 150.474 54.3845 148.563 56.9527C147.795 57.9385 147.181 59.0353 146.743 60.2055Z" fill="#F7C4A7"/>
<path opacity="0.1" d="M148.564 56.9468C147.626 58.2104 147.319 58.3962 147 59.3077C146.711 59.3566 146.42 59.3808 146.127 59.3801C143.931 59.3801 141.793 58.9283 141.008 57.0133C141.145 56.1882 141.229 55.3552 141.261 54.5194C141.261 54.5194 150.472 54.3786 148.564 56.9468Z" fill="black"/>
<path d="M145.871 59.7654C148.772 59.7654 151.123 57.4141 151.123 54.5136C151.123 51.6131 148.772 49.2617 145.871 49.2617C142.971 49.2617 140.619 51.6131 140.619 54.5136C140.619 57.4141 142.971 59.7654 145.871 59.7654Z" fill="#F7C4A7"/>
<path d="M119.485 55.4094C119.485 55.4094 114.489 57.9718 113.081 57.3302L116.539 66.809C116.539 66.809 116.795 69.1151 121.278 70.1342C125.762 71.1532 127.939 72.0549 127.939 72.0549L136.263 62.1928L132.036 63.3449C132.036 63.3449 129.859 66.4197 128.32 65.3948C126.781 64.3698 122.047 64.8862 122.047 64.8862C122.047 64.8862 119.358 57.5884 119.485 55.4094Z" fill="#575988"/>
<path opacity="0.05" d="M119.485 55.4094C119.485 55.4094 114.489 57.9718 113.081 57.3302L116.539 66.809C116.539 66.809 116.795 69.1151 121.278 70.1342C125.762 71.1532 127.939 72.0549 127.939 72.0549L136.263 62.1928L132.036 63.3449C132.036 63.3449 129.859 66.4197 128.32 65.3948C126.781 64.3698 122.047 64.8862 122.047 64.8862C122.047 64.8862 119.358 57.5884 119.485 55.4094Z" fill="black"/>
<path opacity="0.1" d="M138.955 61.4574C138.955 61.4574 145.726 59.5209 146.438 63.118C146.438 63.118 143.309 61.5923 138.826 64.2916C138.489 64.4872 138.161 64.7082 137.848 64.9332C133.902 67.697 131.146 71.9748 130.039 76.8334L127.178 89.3714L126.921 92.7415C126.921 92.7415 122.814 93.5513 122.055 92.3367C121.296 91.122 121.799 87.077 122.951 85.7293C124.103 84.3816 125.891 78.5782 125.891 78.5782L127.011 75.2139C127.95 72.3842 129.441 69.7692 131.399 67.521L131.669 67.1943C133.356 65.1696 135.495 63.5696 137.914 62.5234C138.569 62.2398 139.045 61.8818 138.955 61.4574Z" fill="black"/>
<path d="M138.955 61.2011C138.955 61.2011 145.726 59.2647 146.438 62.8618C146.438 62.8618 143.309 61.3361 138.826 64.0354C138.489 64.231 138.161 64.452 137.848 64.6769C133.902 67.4407 131.146 71.7185 130.039 76.5772L127.178 89.1151L126.921 92.4853C126.921 92.4853 122.814 93.2951 122.055 92.0804C121.296 90.8657 121.799 86.8207 122.951 85.4731C124.103 84.1254 125.896 78.3258 125.896 78.3258L127.017 74.9615C127.955 72.1318 129.447 69.5169 131.405 67.2686L131.674 66.942C133.362 64.9172 135.501 63.3173 137.92 62.271C138.569 61.9835 139.045 61.6256 138.955 61.2011Z" fill="#E6E6F0"/>
<path opacity="0.1" d="M121.926 87.0202L121.983 89.2266L123.776 88.0745C123.776 88.0745 126.97 76.4501 129.22 73.2813C129.484 72.9077 129.611 72.3503 129.859 72.2564L139.017 63.4192V61.3654C139.017 61.3654 134.342 64.8236 133.957 65.473C133.793 65.7449 131.338 67.0867 129.85 69.1894C128.524 71.1252 127.347 73.1588 126.329 75.2725L123.254 82.1889L121.926 87.0202Z" fill="black"/>
<path d="M139.019 61.2383V63.2236L129.732 72.1234C129.486 72.2173 129.357 72.7748 129.093 73.1484C126.841 76.319 123.649 87.9415 123.649 87.9415L121.855 89.0936L121.799 86.8873L123.137 82.0521L126.211 75.1357C127.23 73.0219 128.406 70.9883 129.732 69.0525C131.211 66.9518 133.668 65.61 133.84 65.3361C134.172 64.7845 137.783 62.14 138.777 61.4241L139.019 61.2383Z" fill="#787C9C"/>
<path opacity="0.1" d="M144.122 48.939C143.718 48.7434 143.26 48.4402 143.26 47.9884C143.26 47.6578 143.52 47.384 143.794 47.206C144.525 46.7072 144.469 45.8055 145.31 46.0872C145.873 46.2828 146.364 46.6329 146.912 46.8598C147.295 47.0184 147.702 47.1123 148.117 47.1375C148.379 47.1375 148.64 47.1584 148.899 47.2001C149.105 47.254 149.302 47.3363 149.486 47.4446C150.653 48.0979 151.521 49.1805 151.903 50.4627C152.252 51.652 152.216 53.0603 153.112 53.915C153.274 54.0461 153.423 54.1922 153.558 54.3512C153.673 54.5292 153.75 54.729 153.783 54.938C153.944 55.648 153.883 56.3904 153.607 57.0642C153.467 57.3981 153.259 57.699 152.996 57.9479C152.733 58.1968 152.421 58.3881 152.079 58.5097C151.776 58.6094 151.457 58.6427 151.148 58.7209C149.677 59.0926 148.635 60.3835 147.293 61.0955C147.186 61.1626 147.063 61.201 146.937 61.207C146.799 61.1916 146.668 61.1358 146.562 61.0466C146.043 60.6769 145.617 60.1019 145.63 59.4642C145.672 59.066 145.788 58.6792 145.973 58.3239C146.254 57.6586 146.468 56.9674 146.614 56.2603C146.661 56.0978 146.665 55.9263 146.628 55.7615C146.53 55.4505 146.186 55.3058 145.947 55.0847C145.494 54.6642 145.439 53.9483 145.607 53.3517C145.775 52.7551 146.127 52.229 146.389 51.6676C146.48 51.499 146.532 51.3128 146.544 51.1219C146.544 50.3727 145.531 49.9659 145.104 49.471C144.549 48.7942 144.915 49.3302 144.122 48.939Z" fill="black"/>
<path d="M144.252 48.939C143.847 48.7434 143.389 48.4402 143.389 47.9884C143.389 47.6578 143.649 47.384 143.923 47.206C144.654 46.7072 144.598 45.8055 145.439 46.0872C146.002 46.2828 146.493 46.6329 147.041 46.8598C147.424 47.0184 147.831 47.1123 148.246 47.1375C148.51 47.1532 149.364 46.7463 149.615 46.8089C149.821 46.8628 150.018 46.9451 150.202 47.0534C151.369 47.7067 152.237 48.7893 152.619 50.0715C152.967 51.2608 152.725 52.7473 153.621 53.5923C153.771 53.737 153.566 54.1791 153.687 54.3414C153.802 54.5194 153.879 54.7192 153.912 54.9282C154.074 55.6382 154.012 56.3806 153.736 57.0544C153.596 57.3883 153.388 57.6893 153.125 57.9381C152.862 58.187 152.55 58.3783 152.209 58.4999C151.905 58.5996 151.586 58.6329 151.277 58.7111C149.807 59.0828 148.764 60.3737 147.422 61.0857C147.315 61.1529 147.192 61.1913 147.066 61.1972C146.928 61.1818 146.797 61.126 146.691 61.0368C146.172 60.6671 145.746 60.0921 145.76 59.4544C145.801 59.0562 145.917 58.6694 146.102 58.3141C146.383 57.6488 146.598 56.9577 146.743 56.2505C146.79 56.088 146.795 55.9165 146.757 55.7517C146.659 55.4407 146.315 55.296 146.076 55.0749C145.623 54.6544 145.568 53.9385 145.736 53.3419C145.904 52.7454 146.256 52.2192 146.519 51.6578C146.609 51.4892 146.661 51.303 146.673 51.1121C146.673 50.3629 145.66 49.9561 145.233 49.4612C144.678 48.7942 145.044 49.3302 144.252 48.939Z" fill="#B96B6B"/>
<path opacity="0.1" d="M138.769 100.317C136.422 100.039 133.464 99.7675 132.165 99.9846C130.074 100.333 127.14 98.4687 126.612 98.1205C127.7 95.1278 128.578 92.812 128.578 92.812C128.578 92.812 137.159 93.2031 138.945 96.2701C139.776 97.6785 139.408 99.1435 138.769 100.317Z" fill="black"/>
<path d="M149.971 67.1943C149.458 71.6774 144.336 77.9523 144.336 77.9523C144.336 77.9523 140.748 81.6686 141.902 94.3474L142.029 100.495C142.029 100.495 134.472 99.343 132.167 99.7264C129.863 100.11 126.532 97.8056 126.532 97.8056C126.532 97.8056 125.249 75.6442 130.765 71.0378C131.442 69.989 132.178 68.98 132.971 68.0158C134.45 66.2261 136.461 64.2094 138.342 63.7126C138.585 63.6473 138.833 63.6092 139.084 63.5992C139.084 63.5992 144.848 60.3972 146.385 62.8305C146.384 62.8402 150.481 62.7111 149.971 67.1943Z" fill="#575988"/>
<path opacity="0.1" d="M126.595 91.0829C126.595 91.0829 128.645 90.187 132.103 90.4433C135.561 90.6995 141.718 87.6247 141.718 87.6247" fill="black"/>
<path opacity="0.05" d="M130.309 119.654C130.309 119.654 130.436 120.045 128.772 120.55C127.107 121.055 126.595 121.575 126.595 121.575" fill="black"/>
<path d="M118.401 50.6602H132.152C133.432 50.6602 134.47 49.6225 134.47 48.3424V34.5918C134.47 33.3116 133.432 32.2739 132.152 32.2739H118.401C117.121 32.2739 116.083 33.3116 116.083 34.5918V48.3424C116.083 49.6225 117.121 50.6602 118.401 50.6602Z" fill="#D79922"/>
<path d="M135.393 48.8314C135.384 49.4366 135.234 50.0314 134.955 50.5683L134.215 51.9923L133.703 52.9703L130.501 53.2265C130.501 53.2265 130.434 52.9625 130.352 52.5263C130.114 51.2451 129.736 48.4774 130.501 46.5664C131.526 44.004 131.909 39.0084 133.826 40.1624C135.356 41.0818 135.428 46.5957 135.393 48.8314Z" fill="#F7C4A7"/>
<path opacity="0.1" d="M134.215 51.9512V51.9903L133.703 52.9683L130.501 53.2246C130.501 53.2246 130.434 52.9605 130.352 52.5243C131.498 52.0881 133.001 51.6813 134.215 51.9512Z" fill="black"/>
<path d="M134.215 52.2074V54.5194L129.605 56.9527C129.605 56.9527 129.552 56.5361 129.454 55.9962C129.286 55.071 128.985 53.784 128.58 53.6236C128.58 53.6177 131.909 51.695 134.215 52.2074Z" fill="#E6E6F0"/>
<path opacity="0.05" d="M146.687 73.1444C146.125 73.6393 145.467 74.0126 144.754 74.2408C144.041 74.4691 143.289 74.5473 142.544 74.4706C134.434 73.6471 134.215 70.7816 134.215 70.7816L132.971 68.0158C134.45 66.2261 136.461 64.2094 138.342 63.7126C139.686 65.8779 140.885 67.4407 140.885 67.4407C140.885 67.4407 146.906 62.8305 148.699 67.1845C149.738 69.7293 148.173 71.8319 146.687 73.1444Z" fill="black"/>
<path opacity="0.1" d="M134.215 53.6197V54.5194L129.605 56.9527C129.605 56.9527 129.552 56.5361 129.454 55.9962C131.442 55.3527 133.407 54.1459 134.215 53.6197Z" fill="black"/>
<path d="M134.728 53.6177C134.728 53.6177 131.27 56.051 128.324 56.5635L134.344 69.8838C134.344 69.8838 134.565 72.7493 142.673 73.5728C143.417 73.6491 144.169 73.5707 144.882 73.3425C145.595 73.1142 146.252 72.7412 146.814 72.2466C148.3 70.9342 149.861 68.8315 148.817 66.2965C147.023 61.9424 141.003 66.5527 141.003 66.5527C141.003 66.5527 134.855 58.4843 134.728 53.6177Z" fill="#575988"/>
<path d="M184.653 139.727H155.184C154.895 139.727 154.661 139.96 154.661 140.249V141.943C154.661 142.231 154.895 142.465 155.184 142.465H184.653C184.941 142.465 185.175 142.231 185.175 141.943V140.249C185.175 139.96 184.941 139.727 184.653 139.727Z" fill="#D79922"/>
<path d="M181.327 136.988H151.858C151.57 136.988 151.336 137.222 151.336 137.51V139.204C151.336 139.493 151.57 139.726 151.858 139.726H181.327C181.616 139.726 181.85 139.493 181.85 139.204V137.51C181.85 137.222 181.616 136.988 181.327 136.988Z" fill="#D79922"/>
<path opacity="0.05" d="M181.327 136.988H151.858C151.57 136.988 151.336 137.222 151.336 137.51V139.204C151.336 139.493 151.57 139.726 151.858 139.726H181.327C181.616 139.726 181.85 139.493 181.85 139.204V137.51C181.85 137.222 181.616 136.988 181.327 136.988Z" fill="black"/>
<defs>
<linearGradient id="paint0_linear" x1="77.6773" y1="142.537" x2="77.6773" y2="0" gradientUnits="userSpaceOnUse">
<stop stop-color="#808080" stop-opacity="0.25"/>
<stop offset="0.54" stop-color="#808080" stop-opacity="0.12"/>
<stop offset="1" stop-color="#808080" stop-opacity="0.1"/>
</linearGradient>
<linearGradient id="paint1_linear" x1="33912.4" y1="86401.4" x2="33912.4" y2="26789.6" gradientUnits="userSpaceOnUse">
<stop stop-color="#808080" stop-opacity="0.25"/>
<stop offset="0.54" stop-color="#808080" stop-opacity="0.12"/>
<stop offset="1" stop-color="#808080" stop-opacity="0.1"/>
</linearGradient>
</defs>
</svg>
